<svg width="130" height="50" viewBox="0 0 130 50" fill="none" xmlns="http://www.w3.org/2000/svg">
<path d="M118.83 1.97995C114.641 1.97995 112.708 4.97352 112.708 7.28245C112.708 9.85316 114.447 10.9674 116.219 12.0883C119.071 13.0816 121.568 14.6791 121.568 17.4713C121.568 21.6328 117.346 24.8546 110.943 24.1565V26.6735C110.943 26.6735 112.775 27.1434 114.635 27.1434C120.83 27.1434 127.864 22.2234 127.864 13.7059C127.864 7.55094 123.32 1.97995 118.83 1.97995Z" fill="url(#paint0_linear_261_600)"/>
<path d="M110.936 24.1565C116.729 24.237 119.904 20.8877 119.904 17.2565C119.904 14.4308 118.044 13.2494 116.212 12.0883C119.065 13.0816 121.561 14.6791 121.561 17.4713C121.561 21.6328 117.34 24.8545 110.936 24.1565Z" fill="url(#paint1_linear_261_600)"/>
<path d="M108.03 20.579C104.218 20.579 101.6 16.6256 101.6 12.8266C101.6 6.02731 106.741 2.25515 110.822 1L111.876 2.63102C110.715 3.53044 107.272 5.28899 107.272 9.12827C107.272 13.236 112.386 13.1689 112.386 16.6189C112.386 19.1829 110.453 20.579 108.037 20.579H108.03Z" fill="url(#paint2_linear_261_600)"/>
<path d="M4.57089 37.2248L3.78558 34.7011H0L0.355738 41.4266C2.53715 42.2119 5.94015 42.7153 9.06124 42.7153C15.9679 42.7153 19.928 39.5673 19.928 34.0702C19.928 29.0563 17.0016 27.6535 12.5582 26.0493C11.9944 25.8479 10.8668 25.4318 10.3097 25.2237C7.55775 24.2169 6.15493 23.3578 6.15493 21.418C6.15493 19.4782 7.6987 18.3909 10.2895 18.3909C11.4641 18.3909 12.3367 18.552 13.0012 18.7936C13.1824 18.8607 13.8536 19.0285 14.1758 19.9682L14.7866 22.0019H18.5319L18.1829 15.8336C16.0015 15.149 13.5113 14.8134 10.5782 14.8134C1.6176 14.8134 0.275193 19.787 0.275193 22.7537C0.275193 27.2776 2.83919 28.9959 6.62477 30.3853C7.18187 30.5866 8.28265 31.043 8.83974 31.2511C11.4373 32.2445 13.6053 33.2043 13.6053 35.4864C13.6053 37.7685 11.8602 39.1042 9.06124 39.1042C7.75239 39.1042 6.77244 38.9431 5.99384 38.6478C5.12128 38.3189 4.71856 37.7349 4.57089 37.2248ZM30.325 23.7605C25.2238 23.7605 21.6262 27.1165 21.6262 32.8956C21.6262 38.6746 24.6466 42.2656 30.8284 42.2656C34.0837 42.2656 36.0637 41.3259 37.2719 40.554V37.8356C36.0302 38.2383 34.5535 38.6746 32.1708 38.6746C29.0832 38.6746 27.271 37.198 27.0025 33.607H38.1176C38.1176 26.7541 35.7013 23.7672 30.325 23.7672V23.7605ZM27.0025 31.1102C27.2374 27.8884 28.412 26.7809 30.1974 26.7809C31.9828 26.7809 32.9494 27.8548 32.9494 30.9088L27.0092 31.1102H27.0025ZM63.1401 22.653C62.7105 24.7539 59.9787 24.9619 59.9787 24.9619V27.244H62.4353V37.453C62.4353 41.0104 64.3147 42.185 67.7043 42.185C69.5165 42.185 70.9931 41.6816 71.7986 41.1782V38.5941C71.2616 38.7283 70.5904 38.829 69.9863 38.829C68.3083 38.829 67.6371 38.2249 67.6371 36.5469V27.244H72.0536V24.1229H67.6371V19.9615H63.5764C63.328 21.8811 63.1401 22.653 63.1401 22.653ZM73.7921 41.8226H83.699V39.3727C83.699 39.3727 82.162 39.2854 81.9203 39.225C81.6787 39.1646 81.1149 38.97 81.1149 38.1175V29.1704C82.1552 28.6334 83.3634 28.3649 85.0079 28.3649C85.4777 28.3649 86.0818 28.3985 86.4845 28.4992V23.935C86.2832 23.8679 85.8804 23.8008 85.5784 23.8008C83.5648 23.8008 82.021 25.076 81.0813 26.5527H80.88V24.7874C80.8263 23.7001 79.9134 23.8545 79.9134 23.8545L73.7317 24.5659V27.1165L75.9131 27.6535V38.0907C75.9131 38.9632 75.3627 39.1847 75.1009 39.2183C74.8391 39.2519 73.7988 39.366 73.7988 39.366V41.8159L73.7921 41.8226ZM41.8159 38.0907C41.8159 38.9632 41.2656 39.1847 41.0038 39.2183C40.742 39.2519 39.7017 39.366 39.7017 39.366V41.8159H48.7696V39.366C48.7696 39.366 48.0716 39.2787 47.8299 39.2183C47.5883 39.1579 47.0178 38.9632 47.0178 38.1108V28.2576C47.8903 27.9555 48.7629 27.687 49.8033 27.687C51.5148 27.687 52.3538 28.224 52.3538 29.9691V38.0907C52.3538 38.9565 51.743 39.1915 51.5417 39.2183C51.3403 39.2451 50.6087 39.366 50.6087 39.366V41.8159H59.5693V39.366C59.5693 39.366 58.6162 39.2921 58.3611 39.2183C58.106 39.1445 57.5557 38.9498 57.5557 38.1108V28.224C57.5557 25.0022 55.7099 23.7605 52.8572 23.7605C50.4745 23.7605 48.6958 24.5995 46.9842 25.8077H46.7828V24.7807C46.7224 23.6934 45.8163 23.8477 45.8163 23.8477L39.6345 24.5592V27.1098L41.8159 27.6468V38.084V38.0907ZM93.6664 41.0842L89.5855 27.1232L87.9276 26.6467V24.1431H96.962V26.6467L95.1363 27.0494L97.7809 37.0705H97.9151L101.701 27.0494L99.875 26.6467V24.1431H107.252V26.6467L105.661 27.1232L98.9957 44.5946C97.8077 47.7426 96.2908 49.3333 92.9415 49.3333C91.8206 49.3333 90.4715 49.0648 89.7935 48.7561V45.541C90.5721 45.7088 91.0487 45.776 91.6192 45.776C93.21 45.776 94.3175 45.3262 95.0088 43.816C95.2102 43.4603 95.8075 41.8293 95.8075 41.8293H94.5725C93.9953 41.8293 93.7805 41.4534 93.6731 41.091L93.6664 41.0842Z" fill="#003DA5"/>
<defs>
<linearGradient id="paint0_linear_261_600" x1="110.936" y1="14.565" x2="127.837" y2="14.565" gradientUnits="userSpaceOnUse">
<stop offset="0.35" stop-color="#00BFF2"/>
<stop offset="0.98" stop-color="#00A3E0"/>
</linearGradient>
<linearGradient id="paint1_linear_261_600" x1="116.252" y1="24.2505" x2="116.252" y2="12.0883" gradientUnits="userSpaceOnUse">
<stop stop-color="#00BFF2"/>
<stop offset="0.4" stop-color="#0488C6"/>
<stop offset="0.75" stop-color="#0476B7"/>
</linearGradient>
<linearGradient id="paint2_linear_261_600" x1="101.801" y1="5.02722" x2="112.95" y2="14.7664" gradientUnits="userSpaceOnUse">
<stop stop-color="#4F86C6"/>
<stop offset="0.54" stop-color="#3155A5"/>
<stop offset="0.81" stop-color="#003DA5"/>
</linearGradient>
</defs>
</svg>
