<?xml version="1.0" encoding="UTF-8"?>
<svg id="Layer_2" xmlns="http://www.w3.org/2000/svg" version="1.1" viewBox="0 0 216 118.59">
  <!-- Generator: Adobe Illustrator 29.1.0, SVG Export Plug-In . SVG Version: 2.1.0 Build 142)  -->
  <defs>
    <style>
      .st0 {
        fill: #414042;
      }

      .st1 {
        fill: #00205b;
      }
    </style>
  </defs>
  <g>
    <path class="st0" d="M26.47,94.32l-.83.25v-.05c0-.49-.11-.82-.33-1-.22-.18-.63-.27-1.23-.27-.32,0-.62.03-.89.08-.27.05-.46.13-.59.22-.25.17-.46.44-.6.82-.15.38-.22.82-.22,1.3,0,.89.23,1.58.68,2.07.46.49,1.09.74,1.91.74.43,0,.73-.05.88-.15.16-.1.23-.37.23-.79,0-.36-.09-.59-.27-.71-.18-.12-.56-.18-1.13-.19l.22-.57h3.15l-.21.57h-.03c-.24,0-.41.06-.49.18-.08.12-.12.44-.12.96v1.07c-.39.14-.79.24-1.19.31-.4.07-.8.11-1.18.11-1.15,0-2.06-.3-2.74-.9-.68-.6-1.02-1.41-1.02-2.43,0-1.1.37-1.95,1.09-2.56.73-.61,1.75-.92,3.07-.92.32,0,.64,0,.94.03.31.02.61.04.89.08,0,.26,0,.5,0,.74,0,.23,0,.46,0,.67,0,.15.01.27.01.35Z"/>
    <path class="st0" d="M30.61,97.54v-1.39c0-.4-.05-.65-.14-.74-.09-.09-.31-.15-.66-.17l.2-.54c.25-.03.52-.07.78-.12s.55-.12.83-.2v1.28c.15-.44.39-.78.71-1,.33-.22.73-.34,1.22-.34h.07l-.44,1.07s-.03,0-.05,0c-.13-.01-.23-.02-.3-.02-.41,0-.7.13-.86.39-.16.26-.24.72-.24,1.38v.53c0,.41.06.67.19.77.13.1.4.16.81.16l-.21.55h-2.78l.21-.55c.25-.02.42-.1.5-.22.09-.12.13-.4.13-.84Z"/>
    <path class="st0" d="M39.12,96.61c-.2,0-.48,0-.85.02-.36.01-.75.03-1.17.05v.07c0,.49.15.87.47,1.15.32.27.76.41,1.32.41.24,0,.5-.02.76-.05s.56-.09.88-.16l-.32.88c-.24.09-.49.16-.76.21-.27.05-.56.07-.85.07-.84,0-1.5-.21-1.97-.64-.48-.42-.71-1.01-.71-1.76s.25-1.34.76-1.82c.5-.48,1.14-.72,1.91-.72.63,0,1.13.19,1.5.58.37.39.55.92.55,1.59v.13h-1.5ZM37.16,96.11l.97-.03c.07,0,.17,0,.3-.01.64-.02.96-.13.96-.35,0-.2-.1-.38-.31-.54-.21-.16-.46-.24-.76-.24-.32,0-.59.1-.79.31-.21.21-.33.49-.38.86Z"/>
    <path class="st0" d="M47.22,97.38v.21c0,.43.05.69.14.8.09.11.28.17.55.2l-.21.56h-1.57v-.58c-.22.24-.45.42-.69.53-.24.12-.51.17-.79.17-.45,0-.81-.11-1.09-.34-.28-.23-.41-.52-.41-.89,0-.32.1-.58.31-.78.2-.21.58-.41,1.12-.62l1.52-.58v-.27c0-.23-.06-.4-.19-.49-.12-.09-.36-.14-.71-.14-.19,0-.4.01-.64.04-.24.03-.58.08-1.01.15l.37-.8c.31-.07.59-.13.86-.16.27-.04.51-.05.73-.05.29,0,.56.03.79.09.23.06.42.15.57.27.13.11.22.25.28.42.05.17.08.51.08,1.01v1.27ZM46.09,97.21v-.5l-.88.34c-.32.12-.55.25-.69.37-.13.13-.2.28-.2.46s.07.33.2.44c.14.11.32.17.54.17.36,0,.62-.1.79-.29.16-.2.24-.52.24-.99Z"/>
    <path class="st0" d="M52.28,94.44h.8s.12,0,.26,0c.13,0,.33-.01.58-.02l-.25.66c-.24.01-.42.02-.56.02-.14,0-.23,0-.26,0h-.56v2.28c0,.49.06.78.17.88.11.1.35.15.7.15.13,0,.25,0,.38-.02.12-.01.25-.03.37-.05l-.34.85c-.16.03-.31.05-.45.07-.14.01-.27.02-.39.02-.6,0-1.01-.12-1.24-.35-.23-.23-.34-.8-.34-1.7v-2.12h-.83l.24-.58c.29-.06.52-.18.66-.37.15-.19.25-.48.31-.88l.76-.21v1.37Z"/>
    <path class="st0" d="M64.38,92.57l-.21.56c-.4.02-.66.08-.78.2-.13.11-.19.41-.19.9v3.14c0,.26,0,.46,0,.6,0,.14,0,.28.02.41.21.03.4.05.57.07s.32.02.44.02c.49,0,.84-.1,1.05-.29.21-.2.33-.54.35-1.02l.74-.26v2.26h-5.22l.22-.55h.04c.24,0,.4-.07.49-.22.09-.15.13-.44.13-.89v-2.67c0-.76-.06-1.23-.18-1.4-.12-.17-.35-.26-.7-.28l.2-.56h3.02Z"/>
    <path class="st0" d="M73.08,97.38v.21c0,.43.05.69.14.8s.28.17.55.2l-.21.56h-1.57v-.58c-.22.24-.45.42-.69.53-.24.12-.51.17-.79.17-.45,0-.81-.11-1.09-.34-.28-.23-.41-.52-.41-.89,0-.32.1-.58.31-.78.2-.21.58-.41,1.12-.62l1.52-.58v-.27c0-.23-.06-.4-.19-.49-.12-.09-.36-.14-.71-.14-.19,0-.4.01-.64.04-.24.03-.58.08-1.01.15l.37-.8c.31-.07.59-.13.86-.16.27-.04.51-.05.73-.05.29,0,.56.03.79.09.23.06.42.15.57.27.13.11.22.25.28.42.05.17.08.51.08,1.01v1.27ZM71.95,97.21v-.5l-.88.34c-.32.12-.55.25-.69.37-.13.13-.2.28-.2.46s.07.33.2.44c.14.11.32.17.54.17.36,0,.62-.1.79-.29.16-.2.24-.52.24-.99Z"/>
    <path class="st0" d="M78.17,93.65v2.48c.47-.23.8-.42.99-.56.19-.14.29-.27.29-.38,0-.07-.03-.12-.1-.16s-.16-.05-.28-.05h-.11l.21-.55h2.54l-.21.55h-.02c-.43,0-1.04.29-1.85.86-.11.08-.19.14-.25.18.3.16.68.58,1.15,1.26.29.41.52.73.69.94.1.13.22.22.34.28.12.06.27.09.46.09l-.21.54h-1.39c-.12-.17-.28-.42-.49-.74-.83-1.26-1.42-1.98-1.77-2.16v1.24c0,.52.06.83.17.94.11.11.34.17.68.18l-.2.55h-2.6l.21-.55c.25-.02.42-.1.51-.23.09-.13.13-.41.13-.83v-4.31c0-.4-.06-.65-.17-.75-.11-.1-.36-.17-.73-.2l.21-.53c.31-.05.63-.11.94-.18.31-.07.62-.14.92-.23-.02.31-.03.63-.04.96,0,.33-.01.78-.01,1.35Z"/>
    <path class="st0" d="M87.34,96.61c-.2,0-.48,0-.85.02-.36.01-.75.03-1.17.05v.07c0,.49.15.87.47,1.15.32.27.76.41,1.32.41.24,0,.5-.02.76-.05s.56-.09.88-.16l-.32.88c-.24.09-.49.16-.76.21s-.56.07-.85.07c-.84,0-1.5-.21-1.97-.64-.48-.42-.71-1.01-.71-1.76s.25-1.34.76-1.82c.5-.48,1.14-.72,1.91-.72.63,0,1.13.19,1.5.58.37.39.55.92.55,1.59v.13h-1.5ZM85.38,96.11l.97-.03c.07,0,.17,0,.3-.01.64-.02.96-.13.96-.35,0-.2-.1-.38-.31-.54-.21-.16-.46-.24-.76-.24-.32,0-.59.1-.79.31-.21.21-.33.49-.38.86Z"/>
    <path class="st0" d="M95.23,95.57l-.71.31v-.14c0-.29-.08-.5-.23-.63-.15-.13-.41-.19-.76-.19-.25,0-.44.05-.57.14-.13.09-.19.23-.19.42,0,.26.35.53,1.04.81.1.04.18.07.24.1.6.25.98.47,1.15.67.17.2.26.46.26.79,0,.45-.17.79-.52,1.04-.35.25-.84.37-1.47.37-.17,0-.5-.02-.99-.06-.31-.02-.57-.04-.76-.06v-1.44l.71-.3v.18c0,.38.08.65.25.81.17.16.45.24.84.24.28,0,.49-.05.64-.16.15-.1.22-.26.22-.45,0-.15-.06-.29-.19-.4-.13-.11-.42-.25-.88-.43-.66-.25-1.11-.48-1.32-.69-.22-.2-.33-.46-.33-.76,0-.43.17-.77.51-1.03.34-.26.79-.38,1.36-.38.17,0,.43.02.79.06.36.04.64.06.84.06h.07v1.13Z"/>
    <path class="st0" d="M109.11,94.32l-.83.25v-.05c0-.49-.11-.82-.33-1-.22-.18-.63-.27-1.23-.27-.32,0-.62.03-.89.08-.27.05-.46.13-.59.22-.25.17-.46.44-.6.82-.15.38-.22.82-.22,1.3,0,.89.23,1.58.68,2.07.46.49,1.09.74,1.91.74.43,0,.73-.05.88-.15.15-.1.23-.37.23-.79,0-.36-.09-.59-.27-.71-.18-.12-.56-.18-1.13-.19l.22-.57h3.15l-.21.57h-.03c-.24,0-.41.06-.49.18-.08.12-.12.44-.12.96v1.07c-.39.14-.79.24-1.19.31-.4.07-.8.11-1.18.11-1.15,0-2.06-.3-2.74-.9-.68-.6-1.02-1.41-1.02-2.43,0-1.1.37-1.95,1.09-2.56.73-.61,1.75-.92,3.07-.92.32,0,.64,0,.94.03.31.02.61.04.89.08,0,.26,0,.5,0,.74,0,.23,0,.46,0,.67,0,.15.01.27.01.35Z"/>
    <path class="st0" d="M115.66,96.61c-.2,0-.48,0-.85.02s-.75.03-1.17.05v.07c0,.49.15.87.47,1.15s.76.41,1.32.41c.24,0,.5-.02.76-.05.26-.04.56-.09.88-.16l-.32.88c-.24.09-.49.16-.76.21-.27.05-.56.07-.85.07-.84,0-1.5-.21-1.97-.64-.48-.42-.71-1.01-.71-1.76s.25-1.34.76-1.82c.51-.48,1.14-.72,1.91-.72.63,0,1.13.19,1.49.58.37.39.55.92.55,1.59v.13h-1.5ZM113.7,96.11l.97-.03c.07,0,.17,0,.3-.01.64-.02.96-.13.96-.35,0-.2-.1-.38-.31-.54-.21-.16-.46-.24-.76-.24-.32,0-.59.1-.79.31-.21.21-.33.49-.38.86Z"/>
    <path class="st0" d="M121.75,95.23c.24-.29.5-.51.8-.67.3-.16.6-.24.9-.24.58,0,.99.15,1.24.44.25.29.37.81.37,1.54v1.29c0,.43.05.7.14.81.09.11.28.17.55.19l-.21.55h-2.51l.21-.55c.27-.02.45-.09.54-.21.09-.12.14-.42.14-.9v-.98c0-.49-.07-.84-.2-1.03-.14-.19-.36-.29-.68-.29-.42,0-.73.13-.93.39-.2.26-.31.66-.31,1.2v.89c0,.39.06.64.17.75.12.11.34.18.67.18l-.21.54h-2.63l.21-.55c.25-.02.41-.1.5-.22.09-.12.13-.4.13-.84v-1.54c0-.35-.05-.57-.15-.65s-.32-.14-.65-.16l.2-.54c.29-.03.58-.07.86-.13.28-.05.56-.12.84-.19v.92Z"/>
    <path class="st0" d="M131.62,96.61c-.2,0-.48,0-.85.02-.36.01-.75.03-1.17.05v.07c0,.49.15.87.47,1.15.31.27.75.41,1.32.41.24,0,.5-.02.76-.05.27-.04.56-.09.88-.16l-.32.88c-.24.09-.49.16-.76.21-.27.05-.56.07-.85.07-.84,0-1.5-.21-1.97-.64-.48-.42-.71-1.01-.71-1.76s.25-1.34.76-1.82c.5-.48,1.14-.72,1.91-.72.63,0,1.13.19,1.5.58.37.39.55.92.55,1.59v.13h-1.5ZM129.66,96.11l.97-.03c.07,0,.17,0,.3-.01.64-.02.96-.13.96-.35,0-.2-.1-.38-.31-.54-.2-.16-.46-.24-.76-.24-.32,0-.58.1-.79.31-.21.21-.33.49-.38.86Z"/>
    <path class="st0" d="M136.61,97.54v-1.39c0-.4-.05-.65-.14-.74-.09-.09-.31-.15-.66-.17l.2-.54c.25-.03.52-.07.78-.12s.55-.12.83-.2v1.28c.15-.44.39-.78.71-1,.33-.22.73-.34,1.22-.34h.07l-.44,1.07s-.03,0-.05,0c-.13-.01-.23-.02-.3-.02-.41,0-.7.13-.86.39-.16.26-.24.72-.24,1.38v.53c0,.41.06.67.19.77s.4.16.81.16l-.21.55h-2.78l.21-.55c.25-.02.42-.1.5-.22s.13-.4.13-.84Z"/>
    <path class="st0" d="M145.82,97.38v.21c0,.43.05.69.14.8.09.11.28.17.55.2l-.21.56h-1.57v-.58c-.22.24-.45.42-.69.53-.24.12-.51.17-.79.17-.45,0-.81-.11-1.09-.34-.28-.23-.41-.52-.41-.89,0-.32.1-.58.31-.78.2-.21.58-.41,1.12-.62l1.52-.58v-.27c0-.23-.06-.4-.19-.49-.12-.09-.36-.14-.71-.14-.19,0-.4.01-.64.04-.24.03-.58.08-1.01.15l.37-.8c.31-.07.59-.13.86-.16.27-.04.51-.05.73-.05.3,0,.56.03.79.09.23.06.42.15.57.27.13.11.22.25.28.42.06.17.08.51.08,1.01v1.27ZM144.7,97.21v-.5l-.88.34c-.32.12-.55.25-.69.37-.13.13-.2.28-.2.46s.07.33.2.44c.14.11.32.17.54.17.36,0,.62-.1.79-.29.16-.2.24-.52.24-.99Z"/>
    <path class="st0" d="M150.94,93.65v3.83c0,.52.06.84.17.94.11.11.34.17.68.18l-.21.54h-2.63l.21-.55c.25-.02.42-.1.51-.23.09-.13.13-.41.13-.83v-4.31c0-.4-.06-.65-.17-.75-.11-.1-.36-.17-.73-.2l.21-.53c.3-.05.61-.1.93-.17.32-.07.64-.14.96-.23-.02.32-.03.64-.04.97,0,.33-.01.78-.01,1.34Z"/>
    <path class="st0" d="M163.8,95.31l.57,1.44c.03.08.07.19.13.33.38.98.81,1.49,1.28,1.52l-.21.54h-2.83l.2-.54c.22-.01.39-.05.5-.12.11-.07.16-.17.16-.3,0-.06-.01-.13-.03-.22-.02-.09-.06-.21-.12-.36l-.25-.68h-2.35l-.15.39c-.06.14-.1.27-.13.39-.03.11-.04.22-.04.31,0,.22.08.38.25.47.16.09.46.14.88.14l-.22.55h-2.81l.21-.55c.32-.04.64-.46.97-1.24l.06-.14,1.21-2.85c.13-.32.25-.62.35-.9.1-.28.2-.55.29-.82.17-.02.35-.05.52-.08.18-.03.36-.07.54-.11.17.52.34,1.02.52,1.49.17.48.34.93.52,1.36ZM162.96,96.27l-.9-2.46-.96,2.46h1.87Z"/>
    <path class="st0" d="M172.84,94.47l-.31.76c-.15,0-.29,0-.41-.01-.12,0-.23-.02-.32-.03.08.13.14.27.18.41.04.14.06.28.06.42,0,.55-.2,1.01-.6,1.37-.4.36-.91.53-1.52.53-.04,0-.14,0-.3-.02-.03,0-.06,0-.08,0-.11.07-.18.14-.22.19-.04.05-.06.11-.06.16,0,.18.46.26,1.37.27h.51c.53,0,.92.11,1.17.3.25.19.38.48.38.87,0,.53-.27.97-.8,1.31-.53.35-1.22.52-2.07.52-.61,0-1.1-.12-1.46-.35-.36-.23-.54-.54-.54-.92,0-.18.05-.37.15-.55.1-.18.25-.36.46-.55-.11-.07-.19-.15-.25-.23-.05-.08-.08-.17-.08-.27,0-.23.28-.53.83-.9l.04-.03c-.29-.12-.51-.3-.66-.53-.15-.24-.22-.53-.22-.87,0-.58.19-1.06.58-1.43s.87-.56,1.47-.56c.23,0,.44.02.63.07.19.05.38.13.56.24.3-.02.77-.07,1.4-.14h.13ZM168.99,99.35c-.07.08-.12.16-.15.24-.03.08-.05.15-.05.23,0,.29.14.51.41.67.27.16.65.24,1.13.24s.85-.07,1.13-.21c.28-.14.42-.32.42-.55,0-.2-.09-.34-.26-.43-.18-.08-.52-.12-1.04-.12h-.45c-.37,0-.62,0-.76-.02-.14-.01-.27-.03-.37-.05ZM170.97,96.1c0-.41-.07-.7-.21-.86-.14-.16-.37-.24-.7-.24s-.58.08-.71.23c-.13.15-.19.44-.19.88s.07.72.22.87c.14.15.4.23.76.23.31,0,.53-.08.65-.24.12-.16.19-.45.19-.87Z"/>
    <path class="st0" d="M178.24,96.61c-.2,0-.48,0-.85.02-.36.01-.75.03-1.17.05v.07c0,.49.15.87.47,1.15.31.27.75.41,1.32.41.24,0,.5-.02.76-.05.27-.04.56-.09.88-.16l-.32.88c-.24.09-.49.16-.76.21s-.56.07-.85.07c-.84,0-1.5-.21-1.97-.64-.48-.42-.71-1.01-.71-1.76s.25-1.34.76-1.82c.5-.48,1.14-.72,1.91-.72.63,0,1.13.19,1.5.58.37.39.55.92.55,1.59v.13h-1.5ZM176.28,96.11l.97-.03c.07,0,.17,0,.3-.01.64-.02.96-.13.96-.35,0-.2-.1-.38-.31-.54-.2-.16-.46-.24-.76-.24-.32,0-.58.1-.79.31-.21.21-.33.49-.38.86Z"/>
    <path class="st0" d="M184.32,95.23c.24-.29.5-.51.8-.67.3-.16.6-.24.91-.24.58,0,.99.15,1.24.44.25.29.37.81.37,1.54v1.29c0,.43.05.7.14.81.09.11.28.17.55.19l-.21.55h-2.51l.21-.55c.27-.02.45-.09.54-.21.09-.12.14-.42.14-.9v-.98c0-.49-.07-.84-.2-1.03-.14-.19-.36-.29-.68-.29-.42,0-.73.13-.93.39-.2.26-.31.66-.31,1.2v.89c0,.39.06.64.17.75.12.11.34.18.67.18l-.21.54h-2.63l.21-.55c.25-.02.41-.1.5-.22.09-.12.13-.4.13-.84v-1.54c0-.35-.05-.57-.15-.65-.1-.09-.32-.14-.65-.16l.2-.54c.29-.03.58-.07.86-.13.28-.05.56-.12.84-.19v.92Z"/>
    <path class="st0" d="M195.02,95.36c-.29-.09-.57-.16-.83-.2-.26-.04-.52-.07-.77-.07-.22,0-.4.02-.53.05-.13.03-.23.09-.3.16-.12.14-.22.33-.29.58-.07.24-.11.51-.11.79,0,.59.14,1.02.42,1.28.28.27.73.4,1.34.4.13,0,.29,0,.47-.02.18-.01.44-.04.75-.08l-.32.9c-.28.04-.52.08-.71.1-.19.02-.35.03-.5.03-.81,0-1.46-.21-1.94-.64-.48-.43-.72-1.01-.72-1.73,0-.78.26-1.4.78-1.87.52-.47,1.21-.7,2.09-.7.13,0,.27,0,.42.02.15.01.32.03.49.06l.24.96Z"/>
    <path class="st0" d="M200.19,94.44l-.22.55h-.16c-.17,0-.3.03-.38.08-.09.06-.13.14-.13.25,0,.07.02.16.05.27.03.11.1.27.19.49l.85,1.97.63-1.52c.14-.34.24-.6.3-.78.06-.18.09-.31.09-.39,0-.13-.06-.23-.18-.29-.12-.06-.31-.09-.57-.09l.22-.55h1.93c-.22.44-.43.86-.62,1.26-.19.41-.37.79-.53,1.16l-1.23,2.86c-.32.76-.63,1.25-.92,1.46-.29.21-.73.31-1.31.31-.09,0-.19,0-.28-.01-.09-.01-.19-.03-.29-.05l.34-.77s.02,0,.03,0c.14.01.25.01.32.01.35,0,.62-.08.81-.24.19-.16.4-.53.65-1.11l-1.41-3.15v-.02c-.34-.75-.7-1.15-1.08-1.18l.22-.55h2.67Z"/>
  </g>
  <g>
    <path class="st1" d="M97.23,68.99c-.51,1.94-1.06,3.73-1.62,5.3-.6,1.68-1.36,3.15-2.27,4.37-.92,1.23-2.07,2.19-3.42,2.83-1.35.65-3.05.97-5.07.97h-7.99l.05-.3,7.57-44.56c.15-1.2.33-2.23.52-3.07.2-.87.54-1.58,1.01-2.09.47-.52,1.12-.9,1.93-1.11.73-.19,1.69-.29,2.84-.31v-3.77c-1.85.11-3.62.22-5.31.33-3.7.24-7.74.22-11.45,0-1.88-.11-3.72-.22-5.55-.33v3.77c1.64.02,2.75.21,3.4.59.71.42,1.07,1.15,1.07,2.16,0,.53-.17,1.91-.52,4.21-.34,2.24-.78,4.95-1.32,8.05-.54,3.1-1.12,6.44-1.75,10.02-.63,3.59-1.23,6.97-1.81,10.15-.57,3.18-1.09,5.98-1.55,8.35-.46,2.38-.77,3.95-.92,4.69-.16.65-.34,1.21-.53,1.68-.21.5-.5.91-.88,1.22-.37.31-.85.53-1.4.66-.48.11-1.06.16-1.77.18v3.78c.17-.01.42-.04.77-.08.5-.06,1.27-.12,2.31-.17,1.03-.06,2.42-.11,4.25-.17,1.77-.06,4.04-.09,6.75-.09h21.87l3.41-15.94-2.63-1.31Z"/>
    <path class="st0" d="M60.36,87.28h-.38v-4.82h.26c.79,0,1.43-.06,1.92-.17.47-.1.87-.29,1.18-.55.31-.26.56-.6.73-1.02.19-.45.35-.98.5-1.6.15-.74.46-2.3.92-4.68.46-2.36.98-5.17,1.55-8.34.57-3.18,1.18-6.57,1.81-10.15.63-3.58,1.21-6.93,1.75-10.02.54-3.1.98-5.8,1.32-8.04.34-2.24.51-3.63.51-4.13,0-.83-.27-1.39-.82-1.71-.59-.35-1.73-.52-3.39-.52h-.26v-4.84l.28.02c1.91.12,3.85.23,5.82.34,3.68.22,7.71.24,11.38,0,1.78-.11,3.64-.23,5.59-.34l.28-.02v4.84h-.26c-1.23,0-2.23.1-2.97.29-.71.19-1.28.51-1.68.96-.41.45-.71,1.08-.89,1.86-.19.82-.36,1.84-.51,3.03l-7.52,44.27h7.38c1.94,0,3.57-.31,4.85-.92,1.27-.61,2.36-1.51,3.23-2.67.88-1.18,1.62-2.61,2.2-4.23.59-1.65,1.15-3.52,1.68-5.57l.08-.31,3.57,1.78-3.59,16.75h-22.29c-2.7,0-4.96.03-6.73.09-1.82.06-3.21.12-4.24.17-1.03.05-1.79.11-2.28.17-.51.06-.82.09-.98.09ZM60.5,82.98v3.78c.17-.01.42-.04.77-.08.5-.06,1.27-.12,2.31-.17,1.03-.06,2.42-.11,4.25-.17,1.77-.06,4.04-.09,6.75-.09h21.87l3.41-15.94-2.63-1.31c-.51,1.94-1.06,3.73-1.62,5.3-.6,1.68-1.36,3.15-2.27,4.37-.92,1.23-2.07,2.19-3.42,2.83-1.35.65-3.05.97-5.07.97h-7.99l.05-.3,7.57-44.56c.15-1.2.33-2.23.52-3.07.2-.87.54-1.58,1.01-2.09.47-.52,1.12-.9,1.93-1.11.73-.19,1.69-.29,2.84-.31v-3.77c-1.85.11-3.62.22-5.31.33-3.7.24-7.74.22-11.45,0-1.88-.11-3.72-.22-5.55-.33v3.77c1.64.02,2.75.21,3.4.59.71.42,1.07,1.15,1.07,2.16,0,.53-.17,1.91-.52,4.21-.34,2.24-.78,4.95-1.32,8.05-.54,3.1-1.12,6.44-1.75,10.02-.63,3.59-1.23,6.97-1.81,10.15-.57,3.18-1.09,5.98-1.55,8.35-.46,2.38-.77,3.95-.92,4.69-.16.65-.34,1.21-.53,1.68-.21.5-.5.91-.88,1.22-.37.31-.85.53-1.4.66-.48.11-1.06.16-1.77.18Z"/>
  </g>
  <g>
    <path class="st1" d="M51.73,69.77c.15-.91.32-1.74.49-2.47.18-.74.43-1.37.75-1.85.33-.49.77-.89,1.3-1.16.47-.25,1.06-.39,1.75-.41v-3.77c-1.76.11-3.48.25-5.13.41-3.35.32-6.82.37-10.32,0-1.5-.16-3.03-.3-4.56-.41v3.76c.88,0,1.61.05,2.18.13.65.09,1.16.26,1.52.52.37.26.63.62.76,1.04.12.4.18.87.18,1.41,0,.41-.08,1.18-.23,2.36-.15,1.15-.33,2.42-.52,3.83-.19,1.42-.41,2.87-.63,4.31-.23,1.46-.42,2.71-.57,3.74-.17,1-.63,1.7-1.37,2.09-.71.36-1.66.54-2.84.54-1.82,0-3.34-.59-4.51-1.75-1.15-1.14-2.07-2.63-2.73-4.44-.65-1.79-1.11-3.8-1.36-6-.25-2.17-.37-4.35-.37-6.48,0-3.44.39-7.24,1.15-11.28.76-4.04,1.84-7.86,3.2-11.36,1.36-3.51,3-6.47,4.89-8.8,1.92-2.38,4.07-3.58,6.4-3.58,1.5,0,2.75.32,3.73.94.97.63,1.75,1.53,2.3,2.69.54,1.14.93,2.54,1.14,4.17.2,1.54.31,3.26.32,5.11.94,0,1.9.03,2.88.09.97.05,1.93.27,2.88.65l.94-11.55c-2.12-1.82-4.41-3.27-6.8-4.3-2.42-1.04-4.91-1.57-7.38-1.57-3.61,0-7.14.82-10.47,2.43-3.34,1.61-6.34,3.99-8.92,7.07-2.59,3.09-4.68,6.94-6.23,11.45-1.55,4.51-2.34,9.73-2.34,15.53,0,4.48.56,8.33,1.68,11.44,1.11,3.11,2.62,5.68,4.5,7.65,1.87,1.97,4.05,3.42,6.47,4.32,4.9,1.82,10.42,1.79,16,0,2.77-.89,5.43-2.19,7.9-3.86l1.99-12.62Z"/>
    <path class="st0" d="M33.51,88.14c-2.73,0-5.37-.47-7.86-1.39-2.49-.93-4.74-2.42-6.67-4.45-1.93-2.02-3.48-4.66-4.62-7.84-1.13-3.17-1.71-7.07-1.71-11.62,0-5.85.8-11.14,2.37-15.7,1.57-4.57,3.7-8.47,6.33-11.61,2.63-3.14,5.69-5.56,9.09-7.21,3.4-1.64,7-2.48,10.7-2.48,2.55,0,5.1.54,7.59,1.61,2.48,1.07,4.85,2.57,7.04,4.47l.1.09-1.02,12.54-.34-.15c-1-.44-2.02-.7-3.03-.75-1.06-.06-2.1-.09-3.11-.09h-.26v-.26c0-1.92-.11-3.71-.31-5.3-.21-1.57-.57-2.92-1.09-4.01-.51-1.07-1.22-1.9-2.11-2.47-.89-.57-2.05-.86-3.44-.86-2.16,0-4.18,1.14-5.99,3.39-1.85,2.29-3.47,5.21-4.81,8.66-1.34,3.47-2.41,7.26-3.17,11.27-.76,4.01-1.14,7.77-1.14,11.18,0,2.11.13,4.27.37,6.42.24,2.15.69,4.13,1.33,5.88.63,1.73,1.51,3.16,2.6,4.25,1.07,1.06,2.47,1.6,4.15,1.6,1.1,0,1.97-.16,2.6-.49.6-.31.96-.86,1.1-1.7.15-1.03.34-2.28.57-3.74.23-1.44.44-2.88.63-4.3.19-1.4.36-2.68.52-3.83.15-1.14.23-1.91.23-2.29,0-.49-.05-.91-.16-1.26-.1-.32-.28-.57-.56-.77-.29-.2-.73-.35-1.29-.43-.6-.08-1.4-.13-2.37-.13h-.26v-4.84l.28.02c1.63.12,3.26.26,4.86.43,3.46.36,6.9.32,10.21,0,1.74-.17,3.57-.31,5.43-.43l.28-.02v4.84h-.26c-.72,0-1.32.12-1.77.36-.46.24-.83.57-1.11.99-.29.43-.52.99-.68,1.68-.17.72-.33,1.54-.48,2.43l-2.02,12.84-.09.06c-2.53,1.73-5.27,3.07-8.13,3.99-2.87.92-5.72,1.39-8.48,1.39ZM41.14,26.37c-3.61,0-7.14.82-10.47,2.43-3.34,1.61-6.34,3.99-8.92,7.07-2.59,3.09-4.68,6.94-6.23,11.45-1.55,4.51-2.34,9.73-2.34,15.53,0,4.48.56,8.33,1.68,11.44,1.11,3.11,2.62,5.68,4.5,7.65,1.87,1.97,4.05,3.42,6.47,4.32,4.9,1.82,10.42,1.79,16,0,2.77-.89,5.43-2.19,7.9-3.86l1.99-12.62c.15-.91.32-1.74.49-2.47.18-.74.43-1.37.75-1.85.33-.49.77-.89,1.3-1.16.47-.25,1.06-.39,1.75-.41v-3.77c-1.76.11-3.48.25-5.13.41-3.35.32-6.82.37-10.32,0-1.5-.16-3.03-.3-4.56-.41v3.76c.88,0,1.61.05,2.18.13.65.09,1.16.26,1.52.52.37.26.63.62.76,1.04.12.4.18.87.18,1.41,0,.41-.08,1.18-.23,2.36-.15,1.15-.33,2.42-.52,3.83-.19,1.42-.41,2.87-.63,4.31-.23,1.46-.42,2.71-.57,3.74-.17,1-.63,1.7-1.37,2.09-.71.36-1.66.54-2.84.54-1.82,0-3.34-.59-4.51-1.75-1.15-1.14-2.07-2.63-2.73-4.44-.65-1.79-1.11-3.8-1.36-6-.25-2.17-.37-4.35-.37-6.48,0-3.44.39-7.24,1.15-11.28.76-4.04,1.84-7.86,3.2-11.36,1.36-3.51,3-6.47,4.89-8.8,1.92-2.38,4.07-3.58,6.4-3.58,1.5,0,2.75.32,3.73.94.97.63,1.75,1.53,2.3,2.69.54,1.14.93,2.54,1.14,4.17.2,1.54.31,3.26.32,5.11.94,0,1.9.03,2.88.09.97.05,1.93.27,2.88.65l.94-11.55c-2.12-1.82-4.41-3.27-6.8-4.3-2.42-1.04-4.91-1.57-7.38-1.57Z"/>
  </g>
  <g>
    <path class="st1" d="M143.78,69.77c.15-.91.32-1.74.49-2.47.18-.75.43-1.37.75-1.85.33-.49.77-.89,1.3-1.16.47-.25,1.06-.39,1.75-.41v-3.77c-1.76.11-3.48.25-5.13.41-3.35.32-6.82.37-10.32,0-1.49-.16-3.03-.3-4.56-.41v3.76c.88,0,1.61.05,2.18.13.65.09,1.16.26,1.52.52.37.26.63.62.76,1.04.12.4.18.87.18,1.41,0,.41-.08,1.18-.23,2.36-.14,1.04-.29,2.17-.46,3.42l-.06.41c-.19,1.41-.4,2.84-.63,4.31-.23,1.46-.42,2.71-.57,3.74-.17,1-.63,1.7-1.37,2.09-.71.36-1.66.54-2.84.54-1.82,0-3.34-.59-4.51-1.75-1.15-1.14-2.07-2.63-2.73-4.44-.65-1.78-1.11-3.8-1.36-6-.25-2.17-.37-4.35-.37-6.48,0-3.45.39-7.24,1.15-11.28.77-4.04,1.84-7.87,3.2-11.36,1.36-3.51,3-6.47,4.89-8.8,1.92-2.38,4.07-3.58,6.4-3.58,1.5,0,2.75.32,3.73.94.97.63,1.75,1.53,2.3,2.69.54,1.14.93,2.54,1.14,4.17.2,1.54.31,3.26.32,5.11.94,0,1.9.03,2.88.09.97.05,1.93.27,2.88.65l.94-11.55c-2.12-1.82-4.41-3.27-6.8-4.3-2.42-1.04-4.91-1.57-7.38-1.57-3.61,0-7.14.82-10.47,2.43-3.33,1.61-6.33,3.99-8.92,7.07-2.59,3.09-4.68,6.94-6.23,11.45-1.55,4.51-2.34,9.73-2.34,15.53,0,4.48.56,8.33,1.68,11.44,1.11,3.11,2.62,5.68,4.5,7.65,1.87,1.97,4.05,3.42,6.47,4.32,4.9,1.82,10.42,1.79,16,0,2.77-.89,5.43-2.19,7.9-3.86l1.99-12.62Z"/>
    <path class="st0" d="M125.57,88.14c-2.73,0-5.37-.47-7.86-1.39-2.49-.93-4.74-2.42-6.67-4.45-1.93-2.02-3.48-4.66-4.62-7.84-1.13-3.17-1.71-7.07-1.71-11.62,0-5.85.8-11.14,2.37-15.7,1.57-4.57,3.7-8.47,6.33-11.61,2.63-3.14,5.69-5.56,9.09-7.21,3.4-1.64,7-2.48,10.7-2.48,2.55,0,5.1.54,7.59,1.61,2.48,1.07,4.85,2.57,7.04,4.47l.1.09v.13s-1.02,12.41-1.02,12.41l-.34-.15c-1-.44-2.02-.7-3.03-.75-1.06-.06-2.1-.09-3.11-.09h-.26v-.26c0-1.92-.11-3.71-.31-5.3-.21-1.57-.57-2.92-1.09-4.01-.51-1.07-1.22-1.9-2.11-2.47-.89-.57-2.05-.86-3.44-.86-2.16,0-4.18,1.14-5.99,3.39-1.85,2.29-3.47,5.21-4.81,8.66-1.35,3.46-2.41,7.25-3.17,11.27-.76,4-1.14,7.76-1.14,11.18,0,2.11.13,4.27.37,6.42.25,2.15.69,4.13,1.33,5.88.63,1.73,1.51,3.16,2.6,4.25,1.07,1.06,2.47,1.6,4.15,1.6,1.1,0,1.97-.16,2.61-.49.6-.31.95-.86,1.09-1.7.15-1.03.34-2.28.57-3.74.23-1.46.44-2.89.63-4.3l.06-.41c.17-1.24.32-2.38.46-3.42.15-1.13.23-1.9.23-2.29,0-.49-.05-.91-.16-1.26-.1-.32-.28-.57-.56-.77-.29-.2-.73-.35-1.29-.43-.6-.08-1.4-.13-2.37-.13h-.26v-4.84l.28.02c1.63.12,3.26.26,4.85.43,3.46.36,6.9.32,10.21,0,1.74-.17,3.57-.31,5.43-.43l.28-.02v4.84h-.26c-.72,0-1.32.12-1.77.36-.46.24-.83.57-1.11.99-.29.43-.52.99-.68,1.68-.17.72-.33,1.54-.48,2.43l-2.02,12.84-.09.06c-2.53,1.73-5.27,3.07-8.13,3.99-2.87.92-5.72,1.39-8.48,1.39ZM133.2,26.37c-3.61,0-7.14.82-10.47,2.43-3.33,1.61-6.33,3.99-8.92,7.07-2.59,3.09-4.68,6.94-6.23,11.45-1.55,4.51-2.34,9.73-2.34,15.53,0,4.48.56,8.33,1.68,11.44,1.11,3.1,2.62,5.68,4.5,7.65,1.87,1.97,4.05,3.42,6.47,4.32,4.9,1.82,10.42,1.79,16,0,2.77-.89,5.43-2.19,7.9-3.86l1.99-12.62c.15-.91.32-1.74.49-2.47.18-.75.43-1.37.75-1.85.33-.49.77-.89,1.3-1.16.47-.25,1.06-.39,1.75-.41v-3.77c-1.76.11-3.48.25-5.13.41-3.35.32-6.82.37-10.32,0-1.49-.16-3.03-.3-4.56-.41v3.76c.88,0,1.61.05,2.18.13.65.09,1.16.26,1.52.52.37.26.63.62.76,1.04.12.4.18.87.18,1.41,0,.41-.08,1.18-.23,2.36-.14,1.04-.29,2.17-.46,3.42l-.06.41c-.19,1.41-.4,2.84-.63,4.31-.23,1.46-.42,2.71-.57,3.74-.17,1-.63,1.7-1.37,2.09-.71.36-1.66.54-2.84.54-1.82,0-3.34-.59-4.51-1.75-1.15-1.14-2.07-2.63-2.73-4.44-.65-1.78-1.11-3.8-1.36-6-.25-2.17-.37-4.35-.37-6.48,0-3.45.39-7.24,1.15-11.28.77-4.04,1.84-7.87,3.2-11.36,1.36-3.51,3-6.47,4.89-8.8,1.92-2.38,4.07-3.58,6.4-3.58,1.5,0,2.75.32,3.73.94.97.63,1.75,1.53,2.3,2.69.54,1.14.93,2.54,1.14,4.17.2,1.54.31,3.26.32,5.11.94,0,1.9.03,2.88.09.97.05,1.93.27,2.88.65l.94-11.55c-2.12-1.82-4.41-3.27-6.8-4.3-2.42-1.04-4.91-1.57-7.38-1.57Z"/>
  </g>
  <g>
    <path class="st0" d="M202.82,87.27c-21.87-34.04-18.84-55.43-18.81-55.64l.09-.6h-.61s-9.32,0-9.32,0h-.17l-.14.11c-12.76,9.61-17.65,24.47-19.5,35.24-2,11.64-.99,21.15-.98,21.25l.05.46h16.3l-.14-.53h-15.69s-4.17-37.6,20.28-56.01h9.32s-3.27,22.11,18.88,56.01h-22.22c.04.11.06.18.07.2l.13.33h.36s21.67-.01,21.67-.01h.95s-.52-.8-.52-.8Z"/>
    <path class="st1" d="M201.62,86.35c-20.82-32.47-18.25-53.82-18.13-54.76,0-.01,0-.04-.01-.05h-9.3c-24.43,18.4-20.28,55.97-20.28,56.01h11.69s4,0,4,0c-1.09-4.52-1.79-8.75-2.2-12.72h8.83c1.26,5.95,2.94,10.4,3.93,12.72h22.21c-.26-.41-.49-.8-.75-1.2ZM174.79,64.67h-7.79c.1-4.05.51-7.72,1.12-11.01h6.68c-.3,3.89-.26,7.58-.01,11.01ZM175.92,45.38h-5.66c.73-2.17,1.52-4.07,2.29-5.7h4.74c-.54,1.93-1.01,3.83-1.37,5.7ZM179.05,34.32h-3.49c.88-1.31,1.46-1.97,1.46-1.97l2.78-.02c-.27.67-.5,1.33-.74,1.99Z"/>
  </g>
  <path class="st0" d="M184.47,27.72v-1.58c0-.58-.48-1.06-1.06-1.06h-.38l.02-2.3,1.25-.49v-1.37l-1.27-.29s.02-2.18.02-2.52c0-.23.09-.38.23-.45l-.05-.56c-.29.12-.55.29-.64.64-.03.13-.06.26-.07.39-.02.28,0,.56-.01.83,0,.29-.02.58-.03.86,0,0-.07-.08-1.05-.14v-.53h-.7v.5c-.44-.01-.98-.02-1.66-.02s-1.23,0-1.66.02v-.5h-.7v.53c-.98.06-1.05.14-1.05.14,0-.29-.02-.58-.03-.86,0-.28,0-.56-.01-.83,0-.13-.04-.26-.07-.39-.09-.36-.35-.52-.64-.64l-.05.56c.14.07.23.22.23.45,0,.35.02,2.52.02,2.52l-1.27.29v1.37l1.25.49.02,2.3h-.38c-.58,0-1.06.48-1.06,1.06v1.58h-.27s.03,1.85.03,2.03c0,.16.1.28.27.28.05,0,.21,0,.43,0h.15s0,.71,0,.71c0,.23.19.42.42.42h.45c.23,0,.42-.19.42-.42v-.72c1.48,0,3.5-.01,3.5-.01,0,0,2.02,0,3.5.01v.72c0,.23.19.42.42.42h.45c.23,0,.42-.19.42-.42v-.71h.15c.23,0,.39,0,.43,0,.16,0,.27-.12.27-.28,0-.17.03-2.03.03-2.03h-.27ZM175.52,26.18v.78h0c0,.27-.21.48-.48.48h-.33c-.26,0-.48-.22-.48-.48v-.78c0-.26.22-.48.48-.48h.33c.26,0,.48.21.48.48h0ZM177.15,27.7h-.26c-.35,0-.64-.29-.64-.64v-3.2c0-.35.29-.64.64-.64h.26v4.49ZM178.73,27.7h-.89v-4.49h.89v4.49ZM180.3,27.7h-.89v-4.49h.89v4.49ZM181.89,27.06c0,.35-.29.64-.64.64h-.26v-4.49h.26c.35,0,.64.29.64.64v3.2ZM182.25,21.89c0,.19-.16.35-.35.35h-5.66c-.19,0-.35-.16-.35-.35v-.83c0-.19.16-.35.35-.35h5.66c.19,0,.35.16.35.35v.83ZM183.9,26.96c0,.26-.22.48-.48.48h-.33c-.26,0-.48-.21-.48-.48h0v-.79h0c0-.27.21-.48.48-.48h.33c.26,0,.48.22.48.48v.78Z"/>
</svg>