<?xml version="1.0" encoding="utf-8"?>
<!-- Generator: Adobe Illustrator 22.1.0, SVG Export Plug-In . SVG Version: 6.00 Build 0)  -->
<svg version="1.1" xmlns="http://www.w3.org/2000/svg" xmlns:xlink="http://www.w3.org/1999/xlink" x="0px" y="0px"
	 viewBox="0 0 792 341.4" style="enable-background:new 0 0 792 341.4;" xml:space="preserve">
<style type="text/css">
	.st0{stroke:#000000;stroke-width:0.7024;stroke-miterlimit:10;}
	.st1{fill-rule:evenodd;clip-rule:evenodd;fill:url(#SVGID_1_);}
	.st2{fill-rule:evenodd;clip-rule:evenodd;fill:url(#SVGID_2_);}
	.st3{fill-rule:evenodd;clip-rule:evenodd;fill:url(#SVGID_3_);}
</style>
<g id="Layer_1">
	<g>
		<path d="M145,237.7H135v27.5h-4.2v-27.5h-10.1v-3.5H145V237.7z"/>
		<path d="M184.1,234.2v31h-4.2v-14.1h-16.7v14.1h-4.2v-31h4.2V248h16.7v-13.8H184.1z"/>
		<path d="M220.4,261.8l0,3.4h-19.1v-31h19.1v3.4h-14.9v10.3h12.1v3.3h-12.1v10.6H220.4z"/>
		<path d="M279.7,265.2h-3.2c-0.4,0-0.7-0.1-0.9-0.3c-0.2-0.2-0.4-0.4-0.5-0.7l-2.9-7.5h-13.9l-2.9,7.5c-0.1,0.3-0.3,0.5-0.5,0.7
			c-0.2,0.2-0.5,0.3-0.9,0.3h-3.2l12.4-31h4.2L279.7,265.2z M271,253.7l-4.9-12.6c-0.1-0.4-0.3-0.8-0.5-1.3c-0.2-0.5-0.3-1-0.5-1.6
			c-0.3,1.2-0.6,2.1-0.9,2.9l-4.9,12.6H271z"/>
		<path d="M325.4,234.2v31h-3.7v-22.8c0-0.3,0-0.6,0-1c0-0.3,0-0.7,0.1-1.1l-10.7,19.4c-0.3,0.7-0.8,1-1.5,1H309
			c-0.7,0-1.2-0.3-1.5-1l-10.9-19.5c0.1,0.8,0.1,1.5,0.1,2.1v22.8h-3.7v-31h3.1c0.4,0,0.7,0,0.9,0.1c0.2,0.1,0.4,0.3,0.6,0.6
			l10.7,19.1c0.2,0.3,0.3,0.7,0.5,1.1c0.2,0.4,0.3,0.8,0.5,1.1c0.1-0.4,0.3-0.8,0.5-1.2c0.2-0.4,0.3-0.7,0.5-1.1l10.5-19.1
			c0.2-0.3,0.4-0.5,0.6-0.6c0.2-0.1,0.5-0.1,0.9-0.1H325.4z"/>
		<path d="M354.2,252.8v12.4H350v-12.4l-11.4-18.7h3.7c0.4,0,0.7,0.1,0.9,0.3c0.2,0.2,0.4,0.4,0.6,0.7l7.1,12.1
			c0.3,0.5,0.5,1,0.7,1.4c0.2,0.4,0.4,0.9,0.6,1.3c0.2-0.4,0.3-0.9,0.5-1.3c0.2-0.4,0.4-0.9,0.7-1.4l7.1-12.1
			c0.1-0.2,0.3-0.5,0.5-0.7c0.2-0.2,0.5-0.3,0.9-0.3h3.7L354.2,252.8z"/>
		<path d="M404,234.2v31h-2.1c-0.3,0-0.6-0.1-0.8-0.2c-0.2-0.1-0.4-0.3-0.7-0.6l-18-23.4c0,0.4,0.1,0.7,0.1,1.1c0,0.3,0,0.7,0,1
			v22.1h-3.7v-31h2.2c0.2,0,0.3,0,0.5,0c0.1,0,0.2,0.1,0.3,0.1c0.1,0.1,0.2,0.1,0.3,0.2c0.1,0.1,0.2,0.2,0.3,0.4l18,23.4
			c0-0.4-0.1-0.7-0.1-1.1c0-0.4,0-0.7,0-1v-22H404z"/>
		<path d="M442.2,237.7h-10.1v27.5H428v-27.5h-10.1v-3.5h24.3V237.7z"/>
		<path d="M478.3,265.2H475c-0.4,0-0.7-0.1-0.9-0.3c-0.2-0.2-0.4-0.4-0.5-0.7l-2.9-7.5h-13.9l-2.9,7.5c-0.1,0.3-0.3,0.5-0.5,0.7
			c-0.2,0.2-0.5,0.3-0.9,0.3h-3.3l12.4-31h4.2L478.3,265.2z M469.5,253.7l-4.9-12.6c-0.1-0.4-0.3-0.8-0.5-1.3
			c-0.2-0.5-0.3-1-0.5-1.6c-0.3,1.2-0.6,2.1-0.9,2.9l-4.9,12.6H469.5z"/>
		<path d="M535.8,250.3v11.9c-1.6,1.1-3.2,2-5,2.5c-1.8,0.6-3.7,0.8-5.8,0.8c-2.5,0-4.8-0.4-6.8-1.2c-2-0.8-3.7-1.9-5.1-3.2
			c-1.4-1.4-2.5-3.1-3.3-5c-0.8-1.9-1.1-4.1-1.1-6.4c0-2.4,0.4-4.5,1.1-6.5c0.7-2,1.8-3.6,3.2-5c1.4-1.4,3-2.5,5-3.2
			c2-0.8,4.2-1.1,6.6-1.1c1.2,0,2.4,0.1,3.4,0.3c1.1,0.2,2,0.4,2.9,0.8c0.9,0.3,1.7,0.8,2.5,1.2s1.5,1,2.1,1.6l-1.2,1.9
			c-0.2,0.3-0.4,0.5-0.7,0.6c-0.3,0.1-0.6,0-1-0.2c-0.3-0.2-0.7-0.4-1.2-0.7c-0.4-0.3-1-0.6-1.6-0.8c-0.6-0.3-1.4-0.5-2.3-0.7
			c-0.9-0.2-1.9-0.3-3.1-0.3c-1.7,0-3.3,0.3-4.7,0.9c-1.4,0.6-2.6,1.4-3.6,2.4c-1,1.1-1.8,2.3-2.3,3.9c-0.5,1.5-0.8,3.2-0.8,5.1
			c0,1.9,0.3,3.7,0.8,5.2c0.6,1.5,1.4,2.8,2.4,3.9c1,1.1,2.3,1.9,3.8,2.5c1.5,0.6,3.1,0.8,5,0.8c1.4,0,2.7-0.2,3.8-0.5
			c1.1-0.3,2.2-0.8,3.3-1.4v-6.8h-4.8c-0.3,0-0.5-0.1-0.7-0.2c-0.2-0.2-0.2-0.4-0.2-0.6v-2.4H535.8z"/>
		<path d="M574.4,265.2h-3.7c-0.8,0-1.3-0.3-1.7-0.9l-8.1-11.1c-0.2-0.3-0.5-0.6-0.8-0.7c-0.3-0.2-0.7-0.2-1.3-0.2h-3.2v13h-4.2v-31
			h8.8c2,0,3.7,0.2,5.1,0.6c1.4,0.4,2.6,1,3.5,1.7c0.9,0.8,1.6,1.7,2.1,2.7c0.4,1.1,0.7,2.2,0.7,3.6c0,1.1-0.2,2.1-0.5,3.1
			c-0.3,1-0.8,1.8-1.5,2.6c-0.7,0.8-1.5,1.4-2.4,1.9c-0.9,0.5-2,0.9-3.2,1.2c0.5,0.3,1,0.7,1.4,1.3L574.4,265.2z M560.1,249.2
			c1.2,0,2.3-0.1,3.2-0.4c0.9-0.3,1.7-0.7,2.3-1.3c0.6-0.5,1.1-1.2,1.4-1.9c0.3-0.8,0.5-1.6,0.5-2.5c0-1.8-0.6-3.2-1.8-4.2
			c-1.2-0.9-3-1.4-5.5-1.4h-4.6v11.7H560.1z"/>
		<path d="M616.3,249.7c0,2.3-0.4,4.5-1.1,6.4c-0.7,1.9-1.8,3.6-3.1,5c-1.3,1.4-3,2.5-4.8,3.3c-1.9,0.8-4,1.2-6.3,1.2
			c-2.3,0-4.4-0.4-6.2-1.2c-1.9-0.8-3.5-1.9-4.8-3.3c-1.3-1.4-2.4-3.1-3.1-5c-0.7-1.9-1.1-4.1-1.1-6.4c0-2.3,0.4-4.5,1.1-6.4
			s1.8-3.6,3.1-5c1.3-1.4,3-2.5,4.8-3.3c1.9-0.8,4-1.2,6.2-1.2c2.3,0,4.4,0.4,6.3,1.2c1.9,0.8,3.5,1.9,4.8,3.3
			c1.3,1.4,2.4,3.1,3.1,5S616.3,247.4,616.3,249.7z M612,249.7c0-1.9-0.3-3.6-0.8-5.1c-0.5-1.5-1.3-2.8-2.2-3.8
			c-1-1-2.1-1.9-3.5-2.4c-1.4-0.6-2.9-0.8-4.5-0.8c-1.7,0-3.2,0.3-4.5,0.8c-1.4,0.6-2.5,1.4-3.5,2.4c-1,1-1.7,2.3-2.2,3.8
			c-0.5,1.5-0.8,3.2-0.8,5.1s0.3,3.6,0.8,5.1c0.5,1.5,1.3,2.8,2.2,3.8c1,1,2.1,1.8,3.5,2.4c1.4,0.6,2.9,0.8,4.5,0.8
			c1.7,0,3.2-0.3,4.5-0.8c1.4-0.6,2.5-1.4,3.5-2.4c1-1,1.7-2.3,2.2-3.8C611.7,253.3,612,251.6,612,249.7z"/>
		<path d="M643.5,261.9c1.3,0,2.4-0.2,3.4-0.6c1-0.4,1.9-1,2.6-1.8c0.7-0.8,1.2-1.7,1.6-2.8c0.4-1.1,0.6-2.3,0.6-3.6v-18.9h4.2V253
			c0,1.8-0.3,3.5-0.9,5c-0.6,1.5-1.4,2.9-2.4,4c-1.1,1.1-2.4,2-3.9,2.6c-1.5,0.6-3.2,1-5.2,1c-1.9,0-3.6-0.3-5.2-1
			c-1.5-0.6-2.8-1.5-3.9-2.6c-1.1-1.1-1.9-2.4-2.5-4c-0.6-1.5-0.9-3.2-0.9-5v-18.9h4.2V253c0,1.3,0.2,2.5,0.6,3.6s0.9,2,1.6,2.8
			c0.7,0.8,1.6,1.4,2.6,1.8C641.1,261.7,642.2,261.9,643.5,261.9z"/>
		<path d="M681.9,234.2c2,0,3.7,0.2,5.1,0.7c1.5,0.5,2.7,1.1,3.6,1.9c1,0.8,1.7,1.8,2.1,3c0.5,1.2,0.7,2.5,0.7,4
			c0,1.4-0.3,2.8-0.8,4c-0.5,1.2-1.2,2.2-2.2,3.1c-1,0.9-2.2,1.5-3.6,2c-1.4,0.5-3.1,0.7-5,0.7h-5v11.6h-4.2v-31H681.9z
			 M681.9,250.3c1.2,0,2.3-0.2,3.2-0.5c0.9-0.3,1.7-0.8,2.3-1.3c0.6-0.6,1.1-1.3,1.4-2c0.3-0.8,0.5-1.7,0.5-2.6c0-2-0.6-3.5-1.8-4.6
			c-1.2-1.1-3.1-1.7-5.6-1.7h-5v12.8H681.9z"/>
	</g>
	<g>
		<g>
			<g>
				<path class="st0" d="M143.1,100.9v76.6h-25.6v-7.6c-5.1,6.1-12.6,8.9-22.6,8.9c-20.8,0-37.6-15.3-37.6-39.7
					c0-24.3,16.8-39.4,37.6-39.4c8.9,0,16.1,2.5,21.3,7.9v-6.6H143.1z M116.7,139.1c0-11.6-7.1-18.1-16.1-18.1s-16.1,6.5-16.1,18.1
					c0,11.7,7.1,18.4,16.1,18.4S116.7,150.8,116.7,139.1z"/>
				<path class="st0" d="M287.5,133.7v43.8h-26.9v-39.4c0-11-4.5-15.7-11.6-15.7c-7.8,0-13.4,5.2-13.4,17.1v38h-26.9v-39.4
					c0-11-4.4-15.7-11.6-15.7c-7.9,0-13.6,5.2-13.6,17.1v38h-26.9v-76.6h25.6v8.1c5.8-6.2,13.9-9.3,22.9-9.3
					c10.5,0,19.4,3.8,24.7,12c6.1-7.6,15.5-12,26.6-12C274.4,99.6,287.5,110,287.5,133.7z"/>
				<path class="st0" d="M378.5,100.9v62.6c0,29-16.3,42.7-44.1,42.7c-14.6,0-28.1-3.4-37.3-10l9.8-18.8c6.1,5.1,16.1,8.2,25,8.2
					c13.9,0,19.8-6.5,19.8-18.5v-1.7c-5.8,5.5-13.3,8.2-21.5,8.2c-18.8,0-32.5-10.7-32.5-35.1v-37.6h26.9v33.2
					c0,12,4.7,16.7,12.7,16.7c7.9,0,14.4-5.4,14.4-18.1v-31.8H378.5z"/>
				<path class="st0" d="M473.8,133.7v43.8H447v-39.4c0-11-4.8-15.7-12.6-15.7c-8.6,0-15.3,5.4-15.3,18.1v37h-26.9v-76.6h25.6v8.3
					c6.1-6.4,14.7-9.6,24.3-9.6C460.1,99.6,473.8,110,473.8,133.7z"/>
				<path class="st0" d="M537.8,174.4c-4.7,3-11.6,4.4-18.7,4.4c-19.6,0-31-9.6-31-29.3V83.8h26.9v19.9h17.4v20.1h-17.4v25.4
					c0,5.7,3.1,8.8,7.9,8.8c3,0,5.9-0.8,8.2-2.4L537.8,174.4z"/>
				<path class="st0" d="M626.2,100.9v76.6h-25.6v-7.6c-5.1,6.1-12.6,8.9-22.6,8.9c-20.8,0-37.6-15.3-37.6-39.7
					c0-24.3,16.8-39.4,37.6-39.4c8.9,0,16.1,2.5,21.3,7.9v-6.6H626.2z M599.7,139.1c0-11.6-7.1-18.1-16.1-18.1s-16.1,6.5-16.1,18.1
					c0,11.7,7.1,18.4,16.1,18.4S599.7,150.8,599.7,139.1z"/>
			</g>
		</g>
		<g>
			<linearGradient id="SVGID_1_" gradientUnits="userSpaceOnUse" x1="731.2322" y1="161.1662" x2="731.2322" y2="74.172">
				<stop  offset="0" style="stop-color:#551155"/>
				<stop  offset="1" style="stop-color:#993399"/>
			</linearGradient>
			<path class="st1" d="M748.4,135c-0.6,1.2-1.2,2.4-1.9,3.6c-0.9,1.6-1.7,3.1-2.7,4.7c-4.1,6.6-8.9,12.6-14.4,17.9l-0.2-0.1
				l-5.8-3.3l-11.8-6.8c-2.3-1.3-4.6-2.8-6.8-4.5c5.4-4.1,10.1-9,14-14.6c0.7-1.1,1.3-2.1,2-3.1c6.3-10.2,9.6-21.8,9.6-33.9
				c0-6.8,0-13.9,0-20.7c10.2,3,18.2,7.6,27.2,12.8l0,7.8c0,12.1-2.3,23.8-6.9,34.8C750,131.4,749.2,133.2,748.4,135z"/>
			<linearGradient id="SVGID_2_" gradientUnits="userSpaceOnUse" x1="663.0421" y1="93.6223" x2="719.0308" y2="93.6184">
				<stop  offset="0" style="stop-color:#FFDD00"/>
				<stop  offset="1" style="stop-color:#FF9900"/>
			</linearGradient>
			<path class="st2" d="M698.2,70.8c1.4-0.1,2.7-0.2,4.1-0.2c1.9-0.1,3.5,0,5.4,0c7.7,0.2,15.3,1.4,22.7,3.5v0.2l0,6.7
				c0,7,0.4,14.8-0.5,21.7c-6.2-2.6-12.9-4.2-19.7-4.8c-1.3-0.1-2.5-0.1-3.7-0.2c-11.9-0.3-23.7,2.6-34.1,8.6
				c-5.9,3.4-11.8,6.9-17.7,10.3c-1.8-7.3-2.7-14.7-2.7-22.1l0-7.8l6.7-3.9c10.5-6.1,21.8-9.9,33.6-11.5
				C694.4,71.2,696.3,71,698.2,70.8z"/>
			<linearGradient id="SVGID_3_" gradientUnits="userSpaceOnUse" x1="672.764" y1="123.9814" x2="703.3885" y2="158.0079">
				<stop  offset="0" style="stop-color:#AA1133"/>
				<stop  offset="1" style="stop-color:#FF0000"/>
			</linearGradient>
			<path class="st3" d="M667.9,146.2c-0.8-1.1-1.5-2.3-2.2-3.4c-1-1.6-1.8-3-2.7-4.7c-3.7-6.8-6.4-14-8.3-21.5l0.2-0.1l5.8-3.4
				l11.7-6.8c2.3-1.3,4.8-2.6,7.3-3.6c0.9,6.7,2.8,13.3,5.7,19.4c0.5,1.2,1.1,2.2,1.7,3.3c5.7,10.5,14.1,19.3,24.5,25.3
				c5.9,3.4,12,6.9,17.9,10.3c-5.4,5.2-11.5,9.6-17.9,13.3l-6.8,3.9l-6.8-3.9c-10.5-6-19.5-13.9-26.7-23.4
				C670.1,149.4,669,147.8,667.9,146.2z"/>
		</g>
	</g>
</g>
<g id="Layer_2">
</g>
</svg>
