<?xml version="1.0" encoding="utf-8"?>
<svg xmlns="http://www.w3.org/2000/svg" id="Layer_1" version="1.1" viewBox="0 0 583.8 256.9">
  
  <defs>
    <style>
      .st0 {
        fill: #004d99;
      }

      .st1 {
        fill: #475a6b;
      }
    </style>
  </defs>
  <g>
    <path class="st0" d="M138.8,208.4c-.5,2.5-.9,5.2-1.3,8.1-6.8,1.4-13,2.1-18.7,2.1s-9.9-.8-14.6-2.3c-4.7-1.5-8.8-3.9-12.2-7.1-3.5-3.2-6-7-7.6-11.3-1.6-4.4-2.4-9-2.4-14s.9-10.4,2.6-15.4c1.8-4.9,4.4-9.1,8-12.6,3.6-3.4,7.9-6,12.9-7.7,5.1-1.7,10.3-2.6,15.9-2.6s11.9.6,17.8,1.9c0,1.8.2,4.4.6,8-3.8-1.2-7.1-2-9.8-2.4-2.7-.4-5.2-.6-7.7-.6-4.1,0-8,.6-11.8,1.9-3.8,1.3-7.1,3.3-10,6-2.9,2.8-5.1,6.2-6.7,10.2-1.5,4-2.3,8.2-2.3,12.6s.6,7.9,1.8,11.5c1.2,3.6,3.1,6.7,5.6,9.2,2.5,2.5,5.6,4.4,9,5.7,3.5,1.3,7.4,2,11.8,2s11.8-1.1,18.9-3.3Z"/>
    <path class="st0" d="M148.6,217.5l.5-8.3.8-17.4.5-17.1c0-1,0-2,0-3v-3.7s3.7,0,3.7,0h3.5c-.4,6-.8,12.3-1,18.9-.4,10.5-.7,20.7-.8,30.6h-3.4c-.4,0-1.7,0-3.8,0Z"/>
    <path class="st0" d="M167,217.5l.7-10.1,1.2-29.4v-5.7c.2-1.8.2-3.2.2-4.2,1.8,0,3.3,0,4.5,0s2.4,0,4.2,0l4,6.4,24,36.1,1.5-42.5h3.2s3.2,0,3.2,0l-.8,12.7-1,22.4-.4,14.4c-1.4,0-2.8,0-4.2,0s-2.7,0-4.4,0l-3.3-5.3-24.6-36.8c0,1.4-.2,3.5-.3,6.4l-1,25.6-.2,10.1c-1.6,0-2.6,0-3.2,0s-1.5,0-3.3,0Z"/>
    <path class="st0" d="M261.4,211.1c-.3,1.7-.6,3.6-.9,5.7-4.8,1-9.1,1.4-13.1,1.4s-6.9-.5-10.2-1.6c-3.3-1.1-6.1-2.7-8.6-5-2.4-2.2-4.2-4.9-5.3-7.9-1.1-3-1.7-6.3-1.7-9.8s.6-7.3,1.8-10.8c1.2-3.5,3.1-6.4,5.6-8.8,2.5-2.4,5.5-4.2,9.1-5.4,3.5-1.2,7.2-1.8,11.1-1.8s8.3.4,12.4,1.3c0,1.2.2,3.1.4,5.6-2.7-.8-5-1.4-6.9-1.7-1.9-.3-3.7-.4-5.4-.4-2.9,0-5.6.4-8.3,1.3-2.6.9-5,2.3-7,4.2-2,1.9-3.6,4.3-4.7,7.1-1.1,2.8-1.6,5.8-1.6,8.8s.4,5.5,1.3,8c.9,2.5,2.2,4.7,3.9,6.4,1.8,1.8,3.9,3.1,6.3,4,2.4.9,5.2,1.4,8.2,1.4s8.3-.8,13.3-2.3Z"/>
    <path class="st0" d="M269.8,217.5l.5-8.3.8-17.4.5-17.1c0-1,0-2,0-3v-3.7s3.7,0,3.7,0h3.5c-.4,6-.8,12.3-1,18.9-.4,10.5-.7,20.7-.8,30.6h-3.4c-.4,0-1.7,0-3.8,0Z"/>
    <path class="st0" d="M288.2,217.5l.7-10.1,1.2-29.4v-5.7c.2-1.8.2-3.2.2-4.2,1.8,0,3.3,0,4.5,0s2.4,0,4.2,0l4,6.4,24,36.1,1.5-42.5h3.2s3.2,0,3.2,0l-.8,12.7-1,22.4-.4,14.4c-1.4,0-2.8,0-4.2,0s-2.7,0-4.4,0l-3.3-5.3-24.6-36.8c0,1.4-.2,3.5-.3,6.4l-1,25.6-.2,10.1c-1.6,0-2.6,0-3.2,0s-1.5,0-3.3,0Z"/>
    <path class="st0" d="M344.2,217.5l.7-10.1,1.2-29.4v-5.7c.2-1.8.2-3.2.2-4.2,1.8,0,3.3,0,4.5,0s2.4,0,4.2,0l4,6.4,24,36.1,1.5-42.5h3.2s3.2,0,3.2,0l-.8,12.7-1,22.4-.4,14.4c-1.4,0-2.8,0-4.2,0s-2.7,0-4.4,0l-3.3-5.3-24.6-36.8c0,1.4-.2,3.5-.3,6.4l-1,25.6-.2,10.1c-1.6,0-2.6,0-3.2,0s-1.5,0-3.3,0Z"/>
    <path class="st0" d="M393.7,217.5l6.6-12.5,16.8-32.9,2-4.1h4.2c1.3,0,2.7,0,4.2,0l6.3,17.8,11.6,31.7h-3.4c-.7,0-1.9,0-3.9,0-.7-2.3-1.7-5.7-3.3-10.1-1.5-4.4-2.8-8-3.8-10.7h-19.8l-5.2,10.8-4.6,9.9h-3.7c-.6,0-1.9,0-3.9,0ZM413.3,191.9h16.3l-6.7-19.2-9.6,19.2Z"/>
    <path class="st0" d="M462,217.5l.7-11.1,1-23,.3-10.6c-5.9,0-11.1.1-15.5.3.1-1.9.2-3.6.2-5.1,6.1,0,12.8,0,19.9,0h11.6s6.2,0,6.2,0c-.2,2.1-.3,3.8-.3,5.1-3.7-.2-7.9-.3-12.4-.3h-3l-.8,16-.8,22.6v6.1h-3.5c-.3,0-1.5,0-3.7,0Z"/>
    <path class="st0" d="M490.7,217.5l.5-8.3.8-17.4.5-17.1c0-1,0-2,0-3v-3.7s3.7,0,3.7,0h3.5c-.4,6-.8,12.3-1,18.9-.4,10.5-.7,20.7-.8,30.6h-3.4c-.4,0-1.7,0-3.8,0Z"/>
  </g>
  <g>
    <path class="st1" d="M81.3,254.6l.3-4.2.4-8.8.3-8.6c0-.5,0-1,0-1.5v-1.9s1.9,0,1.9,0h1.8c-.2,3-.4,6.2-.5,9.6-.2,5.3-.3,10.5-.4,15.4h-1.7c-.2,0-.9,0-1.9,0Z"/>
    <path class="st1" d="M90.6,254.6l.4-5.1.6-14.9v-2.9c0-.9,0-1.6,0-2.1.9,0,1.7,0,2.3,0s1.2,0,2.1,0l2,3.2,12.1,18.3.8-21.5h1.6s1.6,0,1.6,0l-.4,6.4-.5,11.3-.2,7.3c-.7,0-1.4,0-2.1,0s-1.4,0-2.2,0l-1.7-2.7-12.4-18.6c0,.7,0,1.8-.1,3.2l-.5,13v5.1c-.9,0-1.4,0-1.7,0s-.8,0-1.7,0Z"/>
    <path class="st1" d="M117.9,254c0-1.2-.1-2.2-.2-3,1.3.6,2.5,1,3.5,1.3,1,.3,2,.4,3,.4s1.8-.2,2.6-.5c.8-.3,1.4-.8,1.8-1.3.4-.6.6-1.2.6-2s0-.8-.2-1.2c-.1-.4-.4-.7-.6-1.1-.3-.4-.8-.9-1.6-1.6-.7-.6-1.8-1.6-3.1-2.7l-1.4-1.2c-.5-.4-1-.9-1.4-1.3-.4-.4-.8-.8-1-1.2-.3-.4-.5-.8-.6-1.1-.2-.3-.3-.7-.4-1.1,0-.4-.1-.8-.1-1.2,0-1.1.3-2,.9-3,.6-.9,1.4-1.6,2.6-2.2,1.2-.5,2.7-.8,4.6-.8s3,.2,5,.6c0,.8.1,1.8.3,2.9-1.9-.7-3.6-1-5.1-1s-1.9.2-2.6.5c-.7.3-1.2.8-1.6,1.3-.4.5-.6,1.1-.6,1.7s0,.7.1,1c0,.3.2.6.4.9.3.4.6.9,1,1.3.4.4,1,1,1.7,1.6.2.1.9.7,2.1,1.7,1.2,1,2.1,1.8,2.7,2.3.6.6,1,1.1,1.3,1.5.3.5.6,1,.8,1.5.2.5.3,1.1.3,1.8,0,1-.2,1.9-.6,2.7-.4.8-1,1.5-1.8,2-.8.5-1.7.9-2.6,1.1-1,.2-2,.3-3,.3s-1.7,0-2.6-.2c-.9-.1-2.2-.4-3.8-.9Z"/>
    <path class="st1" d="M137.6,229.6h1.8s1.8,0,1.8,0l-.8,14v1.7c0,0,0,.3,0,.3,0,1.7.3,3,.7,4,.5.9,1.3,1.7,2.4,2.2,1.1.5,2.5.8,4.2.8s2.2-.2,3.1-.5c.8-.3,1.5-.6,2-1,.6-.4,1-1,1.4-1.6.3-.6.6-1.3.7-2,.2-.9.3-2.6.5-5l.3-5.9c0-2.2.2-4.5.2-7h1.9s1.7,0,1.7,0l-.5,8.6-.3,7.1c-.1,1.7-.3,3-.5,3.9-.2.7-.5,1.3-.8,1.8-.3.5-.7,1-1.2,1.4-.6.5-1.2.9-2,1.3-.8.4-1.7.7-2.6.9-1.3.3-2.7.4-4.1.4s-2.7-.1-3.9-.4c-1.1-.2-2-.6-2.9-1.1-.9-.5-1.6-1.1-2.1-1.7-.4-.5-.8-1.2-1-1.9-.3-.9-.4-1.8-.4-2.9s0-2.4.1-3.9c0-1.5.2-3.7.3-6.6.1-3,.2-5.2.2-6.8Z"/>
    <path class="st1" d="M163.9,254.6l.4-4.9.4-9.1.2-7.7c0-1.6,0-2.7,0-3.3,1.5,0,2.7,0,3.6,0s1.7,0,2.8,0c1,0,1.8,0,2.5,0,1.1,0,2.2,0,3.1.2.9.2,1.8.5,2.5,1.1.7.6,1.3,1.2,1.6,2,.3.8.5,1.6.5,2.6s-.1,1.8-.4,2.5c-.3.8-.7,1.5-1.2,2.1-.5.6-1.2,1.2-1.9,1.6-.6.3-1.3.5-2.1.7-.6.1-1.3.2-2.3.3l3.2,5.2,3.3,5.1c.2.4.6.9,1,1.6-1,0-1.6,0-1.9,0s-1,0-2,0l-1.3-2.5c-.3-.5-.5-1-.8-1.4-.3-.5-.6-1-.9-1.5l-4.2-6.8c-.2-.3-.5-.7-.8-1.4.9.2,1.8.3,2.5.3,1.2,0,2.3-.2,3.3-.6,1-.4,1.8-1,2.3-1.9.5-.8.8-1.8.8-2.8s0-1.1-.3-1.6c-.2-.5-.4-.9-.8-1.2-.4-.3-.7-.6-1.1-.7-.4-.1-.8-.3-1.4-.3-.6,0-1.2-.1-1.8-.1h-2.6c-1.1,0-1.8,0-2.1,0-.4,8.2-.6,15.8-.7,22.6h-1.8c-.3,0-.9,0-1.8,0Z"/>
    <path class="st1" d="M181.8,254.6l3.3-6.3,8.5-16.6,1-2.1h2.1c.7,0,1.4,0,2.1,0l3.2,9,5.9,16h-1.7c-.3,0-1,0-2,0-.3-1.2-.9-2.9-1.6-5.1-.8-2.2-1.4-4-1.9-5.4h-10l-2.7,5.5-2.3,5h-1.9c-.3,0-1,0-2,0ZM191.8,241.7h8.2l-3.4-9.7-4.8,9.7Z"/>
    <path class="st1" d="M211.2,254.6l.4-5.1.6-14.9v-2.9c0-.9,0-1.6,0-2.1.9,0,1.7,0,2.3,0s1.2,0,2.1,0l2,3.2,12.1,18.3.8-21.5h1.6s1.6,0,1.6,0l-.4,6.4-.5,11.3-.2,7.3c-.7,0-1.4,0-2.1,0s-1.4,0-2.2,0l-1.7-2.7-12.4-18.6c0,.7,0,1.8-.1,3.2l-.5,13v5.1c-.9,0-1.4,0-1.7,0s-.8,0-1.7,0Z"/>
    <path class="st1" d="M258.9,251.4c-.2.9-.3,1.8-.5,2.9-2.4.5-4.6.7-6.6.7s-3.5-.3-5.2-.8c-1.7-.5-3.1-1.4-4.3-2.5-1.2-1.1-2.1-2.5-2.7-4-.6-1.5-.8-3.2-.8-4.9s.3-3.7.9-5.4c.6-1.7,1.6-3.2,2.8-4.4,1.3-1.2,2.8-2.1,4.6-2.7,1.8-.6,3.7-.9,5.6-.9s4.2.2,6.3.7c0,.6,0,1.6.2,2.8-1.4-.4-2.5-.7-3.5-.8-1-.1-1.9-.2-2.7-.2-1.5,0-2.8.2-4.2.7-1.3.4-2.5,1.2-3.5,2.1-1,1-1.8,2.2-2.4,3.6-.5,1.4-.8,2.9-.8,4.4s.2,2.8.7,4.1c.4,1.3,1.1,2.4,2,3.2.9.9,2,1.6,3.2,2,1.2.5,2.6.7,4.2.7s4.2-.4,6.7-1.2Z"/>
    <path class="st1" d="M263.1,254.6l.5-6.9.5-12.9v-2.8c0-.7,0-1.5,0-2.4,2.8,0,5.6,0,8.5,0h5.8s1.9,0,1.9,0c0,.9-.1,1.7-.2,2.6h-1.6c-.4-.1-1.1-.1-2.1-.1-1,0-2,0-2.9,0-2.9,0-4.9,0-6,0l-.3,8.6c1.9,0,3.6,0,5.1,0s3.8,0,6.4,0c0,.9-.1,1.7-.2,2.5h-6.3c-1.2,0-3,0-5.2,0l-.3,9.1h1.9c3.5,0,5.8,0,6.9,0,1.1,0,2.5,0,4-.2,0,.9-.1,1.8-.2,2.6-2.9,0-5.4,0-7.5,0h-8.7Z"/>
    <path class="st1" d="M313,251.4c-.2.9-.3,1.8-.5,2.9-2.4.5-4.6.7-6.6.7s-3.5-.3-5.2-.8c-1.7-.5-3.1-1.4-4.3-2.5-1.2-1.1-2.1-2.5-2.7-4-.6-1.5-.8-3.2-.8-4.9s.3-3.7.9-5.4c.6-1.7,1.6-3.2,2.8-4.4,1.3-1.2,2.8-2.1,4.6-2.7,1.8-.6,3.7-.9,5.6-.9s4.2.2,6.3.7c0,.6,0,1.6.2,2.8-1.4-.4-2.5-.7-3.5-.8-1-.1-1.9-.2-2.7-.2-1.5,0-2.8.2-4.2.7-1.3.4-2.5,1.2-3.5,2.1-1,1-1.8,2.2-2.4,3.6-.5,1.4-.8,2.9-.8,4.4s.2,2.8.6,4.1c.4,1.3,1.1,2.4,2,3.2.9.9,2,1.6,3.2,2,1.2.5,2.6.7,4.2.7s4.2-.4,6.7-1.2Z"/>
    <path class="st1" d="M330.6,229.2c1.8,0,3.5.3,5.2.8,1.6.5,3.1,1.4,4.3,2.6,1.2,1.2,2.1,2.6,2.6,4.1.5,1.5.8,3.1.8,4.9s-.3,3.7-.9,5.4c-.6,1.7-1.5,3.2-2.7,4.4-1.2,1.2-2.7,2.1-4.5,2.7-1.8.6-3.7.9-5.6.9s-3.7-.3-5.4-.8c-1.7-.6-3.2-1.4-4.4-2.5-1.2-1.1-2.1-2.5-2.6-4-.5-1.5-.8-3.2-.8-4.9s.3-3.7,1-5.5c.7-1.8,1.6-3.2,2.9-4.4,1.3-1.2,2.8-2.1,4.6-2.7,1.8-.6,3.7-.9,5.6-.9ZM330.4,231.7c-1.5,0-2.8.2-4.2.7-1.3.5-2.4,1.2-3.4,2.3-1,1-1.7,2.3-2.2,3.7-.5,1.4-.7,2.9-.7,4.4s.2,2.8.7,4.1c.5,1.3,1.2,2.4,2.1,3.3.9.9,2,1.5,3.3,1.9,1.3.4,2.6.6,4,.6s2.8-.2,4.1-.7c1.3-.5,2.4-1.2,3.3-2.2.9-1,1.6-2.2,2.1-3.6.5-1.4.7-2.8.7-4.4s-.2-2.8-.6-4.1c-.4-1.3-1.1-2.4-2-3.4-.9-.9-2-1.6-3.2-2-1.2-.4-2.5-.6-3.9-.6Z"/>
    <path class="st1" d="M346.9,254.6l.4-3.4,1.2-13.7.6-8c.9,0,1.7,0,2.4,0s1.4,0,2.3,0l.4,1.6c.1.4.3.9.5,1.5.2.6.5,1.5,1,2.9l2.2,6.5,2.8,8.7,3.6-8.7,4.2-9.5c.1-.3.3-.7.4-1.1.1-.4.4-1,.7-1.9.8,0,1.6,0,2.5,0s1.5,0,2.3,0l-.2,8.7v5.7c-.1.5-.1,1.1-.1,1.6v4.2s0,2.4,0,2.4c0,.3,0,1.1,0,2.4-.8,0-1.3,0-1.6,0s-.9,0-1.7,0v-2.3c.1,0,.4-13.2.4-13.2,0-1.5,0-3.1,0-4.9v-1.5s-8.1,19.3-8.1,19.3l-1.1,2.7c-.8,0-1.4,0-1.7,0s-1,0-1.8,0l-2.2-6.9-2.2-6.8-2.2-6.6c-.1-.3-.3-.8-.5-1.6l-.2,2.1-1.1,15.8c0,.5,0,1.1,0,1.6,0,.5,0,1.3,0,2.4h-1.5c-.2,0-.8,0-1.6,0Z"/>
    <path class="st1" d="M379.4,254.6l.3-4.2.6-14.3v-3.1c0-.5,0-1,0-1.5v-2c1.5,0,2.8,0,3.7,0s1.5,0,2.6,0c1.2,0,2.1,0,2.7,0,1.6,0,2.7.1,3.4.3.7.2,1.4.6,2,1.1.6.5,1,1.2,1.4,2,.3.8.5,1.6.5,2.6,0,1.5-.4,2.9-1.2,4.2-.8,1.2-1.9,2.1-3.2,2.7-1.4.6-2.9.9-4.5.9s-1.9,0-2.9-.3c-.2-.8-.4-1.6-.6-2.3.9.2,1.9.3,2.8.3s1.7-.1,2.5-.3c.8-.2,1.5-.5,2.1-1,.6-.5,1-1.1,1.3-1.8.3-.7.5-1.5.5-2.2s-.1-1.2-.3-1.7c-.2-.5-.6-.9-1-1.3-.4-.3-.9-.5-1.4-.6-.5-.1-1.3-.2-2.3-.2h-3.5s-1.4,0-1.4,0c-.1,2.7-.3,5.1-.3,7.3l-.3,7.5c0,2.9-.1,4.8-.1,5.7v2.1h-1.7c-.2,0-.8,0-1.8,0Z"/>
    <path class="st1" d="M396.4,254.6l3.3-6.3,8.5-16.6,1-2.1h2.1c.7,0,1.4,0,2.1,0l3.2,9,5.9,16h-1.7c-.3,0-1,0-2,0-.3-1.2-.9-2.9-1.6-5.1-.8-2.2-1.4-4-1.9-5.4h-10l-2.7,5.5-2.3,5h-1.9c-.3,0-1,0-2,0ZM406.4,241.7h8.2l-3.4-9.7-4.8,9.7Z"/>
    <path class="st1" d="M425.8,254.6l.4-5.1.6-14.9v-2.9c0-.9,0-1.6,0-2.1.9,0,1.7,0,2.3,0s1.2,0,2.1,0l2,3.2,12.1,18.3.8-21.5h1.6s1.6,0,1.6,0l-.4,6.4-.5,11.3-.2,7.3c-.7,0-1.4,0-2.1,0s-1.4,0-2.2,0l-1.7-2.7-12.4-18.6c0,.7-.1,1.8-.1,3.2l-.5,13v5.1c-.9,0-1.4,0-1.7,0s-.8,0-1.7,0Z"/>
    <path class="st1" d="M454.2,254.6l.3-4.2.4-8.8.3-8.6c0-.5,0-1,0-1.5v-1.9s1.9,0,1.9,0h1.8c-.2,3-.4,6.2-.5,9.6-.2,5.3-.3,10.5-.4,15.4h-1.7c-.2,0-.9,0-1.9,0Z"/>
    <path class="st1" d="M463.4,254.6l.5-6.9.5-12.9v-2.8c0-.7,0-1.5,0-2.4,2.8,0,5.6,0,8.5,0h5.8s1.9,0,1.9,0c0,.9-.1,1.7-.2,2.6h-1.6c-.4-.1-1.1-.1-2.1-.1-1,0-2,0-2.9,0-2.9,0-4.9,0-6,0l-.3,8.6c1.9,0,3.6,0,5.1,0s3.8,0,6.4,0c0,.9-.1,1.7-.2,2.5h-6.3c-1.2,0-3,0-5.2,0l-.3,9.1h1.9c3.5,0,5.8,0,6.9,0,1.1,0,2.5,0,4-.2,0,.9-.1,1.8-.2,2.6-2.9,0-5.4,0-7.5,0h-8.7Z"/>
    <path class="st1" d="M483.6,254c0-1.2-.1-2.2-.2-3,1.3.6,2.5,1,3.5,1.3,1,.3,2,.4,3,.4s1.8-.2,2.6-.5c.8-.3,1.4-.8,1.8-1.3.4-.6.6-1.2.6-2s0-.8-.2-1.2c-.1-.4-.4-.7-.7-1.1-.3-.4-.8-.9-1.6-1.6-.7-.6-1.8-1.6-3.1-2.7l-1.4-1.2c-.5-.4-1-.9-1.4-1.3-.4-.4-.8-.8-1-1.2-.3-.4-.5-.8-.7-1.1-.2-.3-.3-.7-.4-1.1,0-.4-.1-.8-.1-1.2,0-1.1.3-2,.9-3,.6-.9,1.4-1.6,2.6-2.2,1.2-.5,2.7-.8,4.6-.8s3,.2,5,.6c0,.8.1,1.8.3,2.9-1.9-.7-3.6-1-5.1-1s-1.9.2-2.6.5c-.7.3-1.2.8-1.6,1.3-.4.5-.5,1.1-.5,1.7s0,.7.2,1c0,.3.2.6.4.9.3.4.6.9,1,1.3.4.4,1,1,1.7,1.6.2.1.9.7,2.1,1.7,1.2,1,2.1,1.8,2.7,2.3.6.6,1,1.1,1.3,1.5.3.5.6,1,.8,1.5.2.5.3,1.1.3,1.8,0,1-.2,1.9-.6,2.7-.4.8-1,1.5-1.8,2-.8.5-1.7.9-2.6,1.1-1,.2-2,.3-3,.3s-1.7,0-2.6-.2c-.9-.1-2.2-.4-3.8-.9Z"/>
  </g>
  <g>
    <path class="st0" d="M154.4,161.9l.2-3.6.3-7.5v-3.5c-1.8,0-3.5,0-4.9.1,0-.6,0-1.2,0-1.7,2,0,4.1,0,6.5,0h3.8s2,0,2,0c0,.7,0,1.3,0,1.7-1.2,0-2.6-.1-4-.1h-1l-.2,5.2-.2,7.3v2h-1.1c-.1,0-.5,0-1.2,0Z"/>
    <path class="st0" d="M163.9,161.9l.4-7.1.2-5.4v-1.9c0-.3,0-.8,0-1.7h1.2s1.1,0,1.1,0l-.3,7.1h9.6l.2-5.6c0-.2,0-.7,0-1.5h1.2s1.1,0,1.1,0c-.2,3.1-.4,5.9-.4,8.4,0,2.5-.2,5-.2,7.7h-1.2c-.1,0-.5,0-1.2,0,.2-2.4.3-4.9.4-7.4h-9.6l-.2,4.8v2.6s-1.2,0-1.2,0c-.1,0-.5,0-1.1,0Z"/>
    <path class="st0" d="M181.9,161.9l.3-4.4.3-8.3v-1.8c0-.5,0-1,0-1.6,1.8,0,3.6,0,5.4,0h3.8s1.2,0,1.2,0c0,.5,0,1.1-.1,1.6h-1c-.3,0-.7,0-1.3,0-.6,0-1.3,0-1.9,0-1.9,0-3.1,0-3.9,0l-.2,5.5c1.2,0,2.3,0,3.3,0s2.4,0,4.1,0c0,.6,0,1.1-.1,1.6h-4.1c-.8,0-1.9,0-3.3,0l-.2,5.8h1.2c2.2,0,3.7,0,4.4,0,.7,0,1.6,0,2.6-.1,0,.6,0,1.1-.1,1.7-1.9,0-3.5,0-4.8,0h-5.6Z"/>
  </g>
  <g>
    <path class="st0" d="M174.2,7.5l-.9-.8-4.7,4.3,3.4,1.8.4,32.4-.9,5.5v.4c-10.2,7.3-21.9,15.1-35.2,22.9-48.7,28.9-109,56-126.8,63.8,7.5-3.9,71.8-37.6,107.8-65.8,38.2-30,51.3-61,51.3-61,0,0-16.4,28.5-59.3,62.2-40.6,31.9-94.1,61.5-99.9,64.6-3.2,1.4-5,2.2-5,2.2,0,0,2.3-.9,6.3-2.6,5.5-1.7,63.2-19.2,158.9-25.4l-.4,14.3,7.2,1.4V5.4s-2.2,2.2-2.2,2.2ZM14.7,135.8c25.1-10.5,90.4-38.5,131.2-62.8,9.3-5.5,17.8-11.2,25.4-16.8l-1.5,47.1c-82.6,6.3-139.4,26.4-155.2,32.5Z"/>
    <polygon class="st0" points="183.3 128.1 192.4 127.5 192.4 2.8 183.1 2.8 183.3 128.1"/>
    <path class="st0" d="M239.4,51l-2.5-5.5.2-11.2c22.9,13.5,54.3,29,93.7,41.5,38.3,12.1,83.8,24,123.6,33.8,64.6,16.5,126,29.3,126,29.3,0,0-119.3-28.7-208.4-59.5C282.9,48.5,239.6,9.7,239.6,9.7c0,0,26,29.6,78.4,55.3-33.6-12.1-60.6-24.6-80.8-35.2l.3-17.8,2.1-2.3-5.4-1.2-2.7,1.7v16.6c-2.7-1.5-5.3-3-7.8-4.4v-2.5l-6-.9c-5.3-3.1-9.7-5.8-13.4-8.2l19.4,3v-4.9l-24-3.5v2.3c-4.9-3.3-7.3-5.1-7.3-5.1,0,0,2.5,2.3,7.3,6.1v1.3l2,.3c2.8,2.2,6.3,4.8,10.4,7.7l-12.4-1.9v21.7s.9-6.1,12.6-6c11,.1,11.4,5.2,11.4,5.9v-11.8c2.5,1.6,5.2,3.3,8,5l.5,70.4c-2.7,0-5.4,0-8,0v-50.5s.5-9.7-12.1-9.3c-12.6.4-12.1,10-12.1,10v50.1s0,0-.1,0v8.8c10.4-.4,21.3-.6,32.4-.7v14.5c0,0,4.3,1.7,4.3,1.7l6.7-1.2-.3-6.2c0-.4,0-.9,0-1.3l-.4-7.6c141.5.4,306.4,22.2,306.4,22.2,0,0-180-27.3-306.8-30.4l-2.6-50.6ZM218.7,51.4v50c-6,0-12,.1-17.8.3v-49.6s-.4-9.5,8.9-9.9c9.3-.4,8.9,9.2,8.9,9.2Z"/>
    <path class="st0" d="M223.7,37.9h0c0,0,0,0,0,0Z"/>
    <polygon class="st0" points="199.4 127.1 224 126.2 224 116.5 199.4 117.4 199.4 127.1"/>
  </g>
  <path class="st0" d="M249.3,124.1c.9.5,1.8.8,2.8.8s1.9-.2,2.8-.8c.9-.5,1.6-1.2,2.1-2.1.5-.9.8-1.9.8-2.8s-.3-1.9-.8-2.9c-.5-.9-1.2-1.6-2.1-2.1-.9-.5-1.9-.7-2.8-.7s-1.9.2-2.8.7c-.9.5-1.6,1.2-2.1,2.1-.5.9-.8,1.9-.8,2.9s.3,1.9.8,2.8c.5.9,1.2,1.6,2.1,2.1ZM247.4,119.1c0-.8.2-1.6.6-2.4.4-.8,1-1.4,1.8-1.8.8-.4,1.5-.6,2.3-.6s1.6.2,2.3.6c.8.4,1.4,1,1.8,1.8.4.8.6,1.6.6,2.4s-.2,1.6-.6,2.4c-.4.8-1,1.3-1.8,1.8-.8.4-1.5.6-2.4.6s-1.6-.2-2.4-.6c-.8-.4-1.4-1-1.8-1.8-.4-.8-.6-1.5-.6-2.4Z"/>
  <path class="st0" d="M250.6,119.7h.6c.3,0,.6,0,.8.2.3.2.6.7,1,1.4l.6,1h1.2l-.8-1.2c-.4-.6-.7-1-.9-1.2-.1-.1-.3-.2-.5-.3.5,0,1-.2,1.3-.6.3-.3.5-.7.5-1.2s0-.6-.3-.9c-.2-.3-.4-.5-.8-.6-.3-.1-.8-.2-1.6-.2h-2.1v6.2h1v-2.6ZM250.6,117h1.1c.5,0,.8,0,1,.1.2,0,.3.2.4.3.1.1.2.3.2.5,0,.3-.1.5-.3.7-.2.2-.6.3-1.2.3h-1.2v-1.9Z"/>
</svg>