<svg width="34" height="34" viewBox="0 0 34 34" fill="none" xmlns="http://www.w3.org/2000/svg">
<rect x="0.461548" width="33.0769" height="33.0769" rx="4.26755" fill="#D4ECFA"/>
<path d="M17 21.125C19.2782 21.125 21.125 19.2782 21.125 17C21.125 14.7218 19.2782 12.875 17 12.875C14.7218 12.875 12.875 14.7218 12.875 17C12.875 19.2782 14.7218 21.125 17 21.125Z" stroke="#55B2EC" stroke-width="2.25" stroke-linecap="round" stroke-linejoin="round"/>
<path d="M22.2218 11.103C22.4593 11.3218 22.6843 11.5468 22.8968 11.778L25.4562 12.1437C25.8732 12.8679 26.1946 13.6431 26.4124 14.4499L24.8562 16.5218C24.8562 16.5218 24.8843 17.1593 24.8562 17.478L26.4124 19.5499C26.1956 20.3571 25.8741 21.1324 25.4562 21.8562L22.8968 22.2218C22.8968 22.2218 22.4562 22.6812 22.2218 22.8968L21.8562 25.4562C21.1319 25.8732 20.3567 26.1946 19.5499 26.4124L17.478 24.8562C17.1599 24.8843 16.8399 24.8843 16.5218 24.8562L14.4499 26.4124C13.6427 26.1956 12.8674 25.8741 12.1437 25.4562L11.778 22.8968C11.5468 22.678 11.3218 22.453 11.103 22.2218L8.54365 21.8562C8.12664 21.1319 7.80521 20.3567 7.5874 19.5499L9.14365 17.478C9.14365 17.478 9.1249 16.8405 9.14365 16.5218L7.5874 14.4499C7.8042 13.6427 8.12568 12.8674 8.54365 12.1437L11.103 11.778C11.3218 11.5468 11.5468 11.3218 11.778 11.103L12.1437 8.54365C12.8679 8.12664 13.6431 7.80521 14.4499 7.5874L16.5218 9.14365C16.8399 9.11552 17.1599 9.11552 17.478 9.14365L19.5499 7.5874C20.3571 7.8042 21.1324 8.12568 21.8562 8.54365L22.2218 11.103Z" stroke="#55B2EC" stroke-width="2.25" stroke-linecap="round" stroke-linejoin="round"/>
</svg>
