<?xml version="1.0" encoding="UTF-8"?> <svg xmlns="http://www.w3.org/2000/svg" id="Warstwa_2" viewBox="0 0 96.79 13.63"><defs><style>.cls-1{fill:#072d53;}.cls-2{fill:#248ccc;}</style></defs><g id="Full_Color_Lockup"><g><polygon class="cls-2" points="13.37 6.29 9.73 2.66 7.28 5.1 6.79 4.61 9.73 1.68 13.86 5.8 13.37 6.29"></polygon><polygon class="cls-2" points="16.31 10.91 13.72 8.32 14.21 7.83 16.31 9.93 17.5 8.74 15.4 6.64 15.89 6.15 18.48 8.74 16.31 10.91"></polygon><rect class="cls-2" x="15.33" y="6.87" width=".69" height="2.47" transform="translate(-1.14 13.46) rotate(-45)"></rect><path class="cls-2" d="M5.46,7.34l3.64,3.64,1.19-1.19-.7-.7h0L5.53,5.03,.98,9.58l1.12,1.12,3.36-3.36Zm3.64,4.61l-3.64-3.64-3.36,3.36L0,9.58,5.53,4.06l5.74,5.73-2.17,2.17Z"></path><polygon class="cls-2" points="9.03 10.21 5.53 6.71 2.17 10.07 1.68 9.58 5.53 5.73 9.52 9.72 9.03 10.21"></polygon><polygon class="cls-2" points="9.1 13.63 5.67 10.21 6.51 9.37 7 9.86 6.65 10.21 9.1 12.66 11.97 9.79 11.62 9.44 11.62 9.44 7.63 5.45 9.73 3.36 13.37 6.99 14.56 5.8 9.73 .98 6.44 4.27 5.95 3.78 9.73 0 15.54 5.8 13.37 7.97 9.73 4.34 8.61 5.45 12.95 9.79 9.1 13.63"></polygon><path class="cls-2" d="M62.06,2.09v1.76h-1.42v.63h1.42s0,3.56,0,3.59c.04,1.42,.65,1.56,2.04,1.59v-.65h-.02c-.99,0-1.3-.04-1.3-1.01v-3.52h1.32v-.63h-1.32v-1.76h-.72Z"></path><g><path class="cls-1" d="M22.68,9.66V4.73h-1.46v-1.02h1.46v-.27c0-1.14,.81-1.73,1.91-1.73h.55v1.02c-.73,0-1.34-.09-1.34,.7v.28h1.08v1.02h-1.08v4.93h-1.12Z"></path><path class="cls-1" d="M27.85,9.81c-1.68,0-3.17-1.43-3.17-3.1,0-1.81,1.28-3.16,3.1-3.16,1.64,0,3.34,1.29,3.32,3.18-.02,1.59-1.35,3.08-3.25,3.08Zm.03-5.24c-1.12,0-2.08,.94-2.08,2.1s.93,2.12,2.06,2.12,2.13-.92,2.13-2.13-.93-2.09-2.1-2.09Z"></path><path class="cls-1" d="M31.54,9.66V3.71h1.04v.54h.02c.27-.4,.73-.51,1.51-.55v1.15c-.97,.03-1.47,.25-1.46,1.47v3.34h-1.12Z"></path><path class="cls-1" d="M39.99,9.66l-1.29-4.01h-.02l-1.29,4.01h-.61l-2.22-5.95h1.19l1.32,3.87h.02l1.23-3.87h.73l1.23,3.87h.02l1.31-3.87h1.19l-2.2,5.95h-.62Z"></path><path class="cls-1" d="M47.8,9.66v-.92h-.02c-.42,.71-1.17,1.07-2.02,1.07-1.74,0-3.16-1.31-3.16-3.03,0-1.9,1.36-3.23,3.11-3.23,.87,0,1.6,.32,2.06,1h.02v-.84h1.12v5.95h-1.12Zm.02-2.96c0-1.16-.84-2.13-2.07-2.13-1.12,0-2.03,.96-2.03,2.13s.91,2.09,2.03,2.09,2.07-.97,2.07-2.09Z"></path><path class="cls-1" d="M57.56,9.66v-.85h-.02c-.46,.64-1.23,1-2.1,1-1.73,0-3.09-1.31-3.09-3.06s1.29-3.2,3.06-3.2c.81,0,1.57,.29,2.05,.89h.02V1.71h1.12v7.95h-1.03Zm-2.07-5.09c-1.14,0-2.03,.96-2.03,2.13s.91,2.09,2.03,2.09,2.07-.92,2.07-2.05c0-1.21-.82-2.17-2.07-2.17Z"></path><path class="cls-2" d="M69.08,9.66v-3.28c0-1.32-.79-2.07-1.83-2.07-1.14,0-1.84,.87-1.84,2.02v3.33h-.75V1.71h.75v2.82h.02c.38-.57,1.04-.9,1.8-.9,1.62,0,2.59,1.12,2.59,2.75v3.28h-.75Z"></path><path class="cls-2" d="M70.55,3.07V1.71h.75v1.35h-.75Zm0,6.59V3.79h.75v5.87h-.75Z"></path><path class="cls-2" d="M76.63,9.66v-3.28c0-1.32-.79-2.07-1.83-2.07-1.14,0-1.84,.87-1.84,2.02v3.33h-.75V3.79h.75v.75h.02c.38-.57,1.04-.9,1.8-.9,1.62,0,2.59,1.12,2.59,2.75v3.28h-.75Z"></path><path class="cls-2" d="M81.75,9.66l-1.93-2.32-.94,1.2v1.12h-.75V1.71h.75V7.37h.02l2.74-3.59h.97l-2.32,2.96,2.44,2.91h-.97Z"></path><path class="cls-2" d="M83.4,3.07V1.71h.75v1.35h-.75Zm0,6.59V3.79h.75v5.87h-.75Z"></path><path class="cls-2" d="M89.48,9.66v-3.28c0-1.32-.79-2.07-1.83-2.07-1.14,0-1.84,.87-1.84,2.02v3.33h-.75V3.79h.75v.75h.02c.38-.57,1.04-.9,1.8-.9,1.62,0,2.59,1.12,2.59,2.75v3.28h-.75Z"></path><path class="cls-2" d="M96.04,8.59h-.02c-.42,.77-1.32,1.21-2.27,1.21-1.68,0-3.07-1.33-3.07-3.05s1.39-3.11,3.07-3.11c.95,0,1.78,.44,2.27,1.2h.02v-1.05h.75v5.55c0,2.13-1.55,2.93-2.87,2.93-1.45,0-2.61-.79-3.01-2.16h.79c.39,.96,1.18,1.48,2.2,1.48,1.33,0,2.13-.9,2.13-2.15v-.86Zm.04-1.86c0-1.28-1.01-2.42-2.34-2.42s-2.31,1.11-2.31,2.42,1.01,2.39,2.32,2.39,2.33-1.13,2.33-2.39Z"></path><path class="cls-1" d="M49.72,9.67V3.72h1.04v.54h.02c.27-.4,.73-.51,1.51-.55v1.15c-.97,.03-1.47,.25-1.46,1.47v3.34h-1.12Z"></path></g></g></g></svg> 