<svg width="160" height="40" viewBox="0 0 160 40" fill="none" xmlns="http://www.w3.org/2000/svg">
<path d="M14.2233 5.03964C14.1837 4.95398 14.2198 4.85226 14.305 4.81171C16.8136 3.61814 19.5695 3.07424 22.3316 3.22886C25.15 3.38663 27.8851 4.26666 30.2876 5.78874C32.6901 7.31082 34.6837 9.42653 36.0865 11.943C37.4893 14.4595 38.2568 17.2967 38.319 20.196C38.3812 23.0953 37.7361 25.9646 36.4426 28.5421C35.149 31.1196 33.2482 33.3236 30.9132 34.9529C28.5783 36.5823 25.8836 37.5853 23.0747 37.8705C20.3222 38.15 17.5458 37.7314 14.9886 36.6528C14.9015 36.616 14.8608 36.5157 14.8968 36.4283C14.9337 36.3384 15.0373 36.2964 15.1269 36.3341C17.6301 37.3882 20.3474 37.797 23.0414 37.5235C25.7939 37.244 28.4345 36.2611 30.7226 34.6645C33.0106 33.0678 34.8733 30.9081 36.1409 28.3823C37.4085 25.8565 38.0406 23.0448 37.9797 20.2037C37.9187 17.3626 37.1667 14.5823 35.792 12.1163C34.4173 9.65034 32.4638 7.57708 30.1095 6.08555C27.7551 4.59402 25.0749 3.73164 22.3131 3.57704C19.61 3.42572 16.9129 3.95712 14.4573 5.12353C14.3695 5.16525 14.2641 5.12789 14.2233 5.03964Z" fill="url(#paint0_linear_350_51)"/>
<path d="M9.71353 8.43555C9.62623 8.3473 9.62614 8.20511 9.71457 8.118C11.5916 6.26908 13.8629 4.87781 16.3552 4.05179C18.918 3.20237 21.6427 2.97454 24.3088 3.38671C26.9749 3.79888 29.5076 4.83949 31.7022 6.4244C33.8968 8.0093 35.6917 10.094 36.9417 12.51C38.1916 14.926 38.8617 17.6054 38.8975 20.3316C38.9334 23.0578 38.3342 25.7543 37.1483 28.203C35.9623 30.6518 34.223 32.784 32.0709 34.4274C29.9796 36.0244 27.5555 37.1161 24.9846 37.6204C24.8609 37.6447 24.742 37.5621 24.7199 37.438C24.6979 37.3145 24.7799 37.1967 24.9029 37.1725C27.4049 36.6811 29.764 35.6183 31.7993 34.064C33.895 32.4637 35.5888 30.3873 36.7436 28.0028C37.8984 25.6182 38.482 22.9924 38.447 20.3377C38.4121 17.6829 37.7596 15.0737 36.5424 12.7211C35.3252 10.3684 33.5774 8.33835 31.4403 6.79498C29.3033 5.25162 26.8369 4.23829 24.2407 3.83692C21.6444 3.43555 18.9912 3.65741 16.4955 4.48457C14.072 5.28781 11.8631 6.63994 10.0367 8.43664C9.94681 8.52503 9.80217 8.52515 9.71353 8.43555Z" fill="url(#paint1_linear_350_51)"/>
<path d="M13.047 5.90116C13.0424 5.89272 13.0455 5.8821 13.0539 5.8775C15.2214 4.6986 17.6156 3.99044 20.0785 3.79988C22.5472 3.60886 25.0285 3.94224 27.3579 4.77791C29.6873 5.61358 31.8114 6.93243 33.5894 8.64698C35.3673 10.3615 36.7585 12.4326 37.6707 14.7228C38.5828 17.0129 38.995 19.4699 38.88 21.9306C38.765 24.3913 38.1253 26.7996 37.0034 28.9957C35.8815 31.1917 34.3031 33.1254 32.3729 34.6684C30.4471 36.2077 28.215 37.3232 25.8241 37.941C25.8148 37.9434 25.8054 37.9378 25.803 37.9286C25.8005 37.9193 25.8061 37.9098 25.8154 37.9073C28.2015 37.2907 30.4291 36.1775 32.351 34.6413C34.2774 33.1014 35.8526 31.1716 36.9723 28.9799C38.0919 26.7883 38.7303 24.3848 38.8451 21.929C38.9599 19.4732 38.5485 17.0211 37.6382 14.7356C36.7279 12.45 35.3395 10.3831 33.565 8.67193C31.7906 6.96081 29.6707 5.6446 27.3461 4.8106C25.0214 3.97661 22.545 3.64389 20.0812 3.83452C17.6232 4.02471 15.2337 4.73147 13.0706 5.90805C13.0622 5.91262 13.0516 5.90955 13.047 5.90116Z" fill="url(#paint2_linear_350_51)"/>
<path d="M12.6871 5.88222C12.6553 5.82807 12.6756 5.75824 12.7317 5.73003C16.6165 3.77703 21.1445 3.24296 25.4312 4.23475C29.7559 5.23534 33.5184 7.71575 35.9706 11.183C38.4229 14.6502 39.3854 18.8503 38.667 22.9486C37.9542 27.0144 35.6387 30.6846 32.1759 33.2418C32.1293 33.2763 32.0639 33.2684 32.0266 33.224C31.9855 33.1751 31.9946 33.1016 32.0459 33.0636C35.4564 30.5401 37.7368 26.9217 38.4394 22.914C39.1485 18.8689 38.1985 14.7234 35.7781 11.3012C33.3577 7.87908 29.6442 5.4309 25.3756 4.44332C21.1409 3.46355 16.6675 3.9925 12.831 5.92433C12.7794 5.9503 12.7164 5.932 12.6871 5.88222Z" fill="url(#paint3_linear_350_51)"/>
<path d="M5.6841 16.1307C5.60028 16.1093 5.5493 16.0239 5.57103 15.9402C6.35218 12.9311 7.93085 10.1933 10.1382 8.0227C12.3826 5.81563 15.1889 4.28151 18.2446 3.59113C21.3004 2.90075 24.4858 3.08118 27.4461 4.11236C30.4064 5.14353 33.0256 6.98497 35.012 9.4317C36.9985 11.8784 38.2742 14.8344 38.6972 17.9706C39.1202 21.1068 38.674 24.3002 37.408 27.1952C36.1421 30.0902 34.1063 32.5733 31.5271 34.368C28.9921 36.132 26.03 37.1629 22.9601 37.3514C22.8802 37.3563 22.8184 37.282 22.8371 37.204C22.8495 37.1525 22.8941 37.1155 22.9469 37.1124C25.983 36.9373 28.8426 35.8516 31.3495 34.1072C33.8809 32.3457 35.8791 29.9086 37.1216 27.0672C38.364 24.2258 38.8021 21.0915 38.3869 18.0134C37.9717 14.9353 36.7196 12.034 34.7699 9.63256C32.8203 7.23114 30.2496 5.42379 27.3441 4.4117C24.4385 3.39962 21.3122 3.22253 18.313 3.90013C15.3138 4.57773 12.5594 6.08345 10.3566 8.24965C8.19086 10.3794 6.64173 13.0654 5.87477 16.0176C5.85301 16.1014 5.768 16.1522 5.6841 16.1307Z" fill="url(#paint4_linear_350_51)"/>
<path d="M7.45752 11.1385C7.3845 11.0902 7.36395 10.992 7.41218 10.919C9.16291 8.26646 11.6026 6.15118 14.4649 4.80619C17.3746 3.43889 20.6049 2.92223 23.7901 3.31466C26.9752 3.70709 29.9881 4.99294 32.4878 7.0267C34.9875 9.06046 36.8741 11.7609 37.9342 14.8224C38.9942 17.884 39.1854 21.1843 38.486 24.35C37.7867 27.5157 36.2247 30.4202 33.9769 32.735C31.8734 34.9011 29.2479 36.4698 26.3642 37.2897C25.9767 37.3998 25.5909 37.581 25.1964 37.6628C23.716 37.9701 19.7721 37.9913 16.3866 36.976C16.2695 36.9409 16.287 36.7762 16.4086 36.7636C16.4247 36.7619 16.441 36.7637 16.4564 36.7688C19.441 37.7576 22.6396 37.8846 25.692 37.1352C28.7524 36.3838 31.5436 34.7815 33.7498 32.5096C35.956 30.2377 37.489 27.3869 38.1754 24.2799C38.8619 21.1728 38.6742 17.9336 37.6338 14.9287C36.5934 11.9239 34.7417 9.27342 32.2883 7.27731C29.8349 5.2812 26.8778 4.01915 23.7516 3.63399C20.6254 3.24883 17.4549 3.75593 14.5991 5.09791C11.7916 6.41714 9.39834 8.49141 7.68026 11.0924C7.63132 11.1665 7.53158 11.1875 7.45752 11.1385Z" fill="url(#paint5_linear_350_51)"/>
<path d="M8.82573 9.77928C8.79209 9.75172 8.78654 9.70234 8.81336 9.66811C10.5665 7.4301 12.8327 5.6733 15.4094 4.55547C18.0096 3.4274 20.8433 2.98595 23.6521 3.27137C26.461 3.55679 29.1556 4.55999 31.4904 6.18953C33.8252 7.81907 35.726 10.0231 37.0193 12.6008C38.3127 15.1784 38.9575 18.0477 38.8951 20.947C38.8327 23.8463 38.065 26.6834 36.662 29.1998C35.259 31.7162 33.2653 33.8318 30.8627 35.3537C28.4833 36.8608 25.7777 37.7383 22.9882 37.9082C22.9432 37.9109 22.9046 37.8763 22.9022 37.8312C22.8998 37.7863 22.9342 37.748 22.9791 37.7453C25.7423 37.577 28.4224 36.7078 30.7794 35.2148C33.1594 33.7072 35.1344 31.6115 36.5242 29.1187C37.9141 26.626 38.6746 23.8155 38.7364 20.9434C38.7982 18.0713 38.1594 15.229 36.8782 12.6755C35.5969 10.1221 33.7141 7.93873 31.4012 6.3245C29.0883 4.71026 26.419 3.71647 23.6365 3.43374C20.854 3.151 18.047 3.5883 15.4711 4.70578C12.9202 5.81246 10.6764 7.55137 8.94013 9.7665C8.91229 9.80202 8.86064 9.80789 8.82573 9.77928Z" fill="url(#paint6_linear_350_51)"/>
<path d="M4.89743 24.061C4.84787 24.0701 4.81494 24.1175 4.82403 24.1671C5.37075 27.145 6.64339 29.9382 8.52674 32.2937C8.55865 32.3336 8.61706 32.3395 8.65646 32.307C8.69527 32.275 8.70102 32.2176 8.66958 32.1783C6.80533 29.8469 5.5455 27.0824 5.00411 24.1349C4.99496 24.0851 4.94726 24.0519 4.89743 24.061Z" fill="url(#paint7_linear_350_51)"/>
<path d="M9.12856 32.8707C9.09107 32.9043 9.08761 32.9618 9.12101 32.9995C9.964 33.9505 10.9036 34.8093 11.9243 35.5617C11.9655 35.5921 12.0236 35.5827 12.0533 35.541C12.0826 35.4999 12.0734 35.4429 12.0328 35.4129C11.0229 34.6686 10.0933 33.8191 9.25911 32.8783C9.2252 32.8401 9.16662 32.8365 9.12856 32.8707Z" fill="url(#paint8_linear_350_51)"/>
<path d="M10.5359 7.91591C10.5178 7.89647 10.4871 7.89646 10.4691 7.91595C8.27009 10.3006 6.73705 13.3038 6.04502 16.5829C6.04011 16.6062 6.05461 16.6292 6.07773 16.6348C6.10193 16.6407 6.12619 16.6253 6.13134 16.601C6.82048 13.3381 8.34677 10.35 10.5359 7.9779C10.5521 7.96038 10.5521 7.93338 10.5359 7.91591Z" fill="url(#paint9_linear_350_51)"/>
<path d="M8.28496 30.7724C8.2006 30.7977 8.16319 30.8961 8.21077 30.9702C9.04531 32.27 10.2119 33.454 11.6542 34.4643C11.6942 34.4923 11.7475 34.4922 11.7875 34.4642C11.8541 34.4176 11.8539 34.3189 11.7876 34.2719C10.3816 33.2748 9.24656 32.1087 8.43762 30.8299C8.40526 30.7787 8.34294 30.755 8.28496 30.7724Z" fill="url(#paint10_linear_350_51)"/>
<path d="M19.0232 36.9993C19.011 37.0631 19.0539 37.1243 19.118 37.1343C19.4267 37.1825 19.7367 37.2235 20.0477 37.2575C20.1101 37.2643 20.1661 37.2195 20.1737 37.1573C20.1815 37.0934 20.1354 37.0356 20.0714 37.0286C19.7648 36.995 19.4592 36.9545 19.1548 36.9069C19.0932 36.8973 19.0349 36.9381 19.0232 36.9993Z" fill="url(#paint11_linear_350_51)"/>
<path d="M21.1861 37.266C21.1843 37.324 21.2301 37.3725 21.2881 37.3737C21.6082 37.3803 21.9284 37.3794 22.2485 37.371C22.3066 37.3695 22.3521 37.3207 22.35 37.2626C22.3478 37.205 22.2995 37.1599 22.2419 37.1614C21.9259 37.1697 21.6096 37.1706 21.2936 37.1641C21.2359 37.1629 21.1878 37.2083 21.1861 37.266Z" fill="url(#paint12_linear_350_51)"/>
<path d="M10.2322 32.2528C10.2163 32.2764 10.2175 32.3076 10.2352 32.3298C10.3967 32.5324 10.562 32.7291 10.731 32.9198C10.7608 32.9535 10.8147 32.9482 10.8377 32.9095C10.8525 32.8844 10.8494 32.8526 10.83 32.8309C10.6622 32.6427 10.4981 32.4485 10.3378 32.2486C10.3102 32.214 10.2569 32.2161 10.2322 32.2528Z" fill="url(#paint13_linear_350_51)"/>
<path d="M14.7238 35.8778C14.7154 35.9124 14.7327 35.9481 14.7651 35.9627C14.9648 36.0527 15.1661 36.1357 15.3689 36.2117C15.4122 36.2279 15.4596 36.2011 15.4684 36.1557C15.4755 36.1194 15.4551 36.0833 15.4204 36.0704C15.2211 35.9963 15.0233 35.9153 14.827 35.8275C14.7844 35.8085 14.7348 35.8325 14.7238 35.8778Z" fill="url(#paint14_linear_350_51)"/>
<path d="M12.1875 35.0004C12.1571 35.0411 12.1671 35.0989 12.2096 35.1267C13.8779 36.222 15.7448 37.0195 17.7179 37.4798C17.7639 37.4905 17.8099 37.4624 17.8216 37.4167C17.8338 37.3693 17.8044 37.3211 17.7566 37.31C15.8045 36.8539 13.9576 36.064 12.3074 34.9795C12.2682 34.9537 12.2156 34.9628 12.1875 35.0004Z" fill="url(#paint15_linear_350_51)"/>
<path d="M21.9424 11.0839L20.1182 22.6005L21.1982 22.6014L20.7139 26.08H29.4727L28.7529 30.1337H15.0791L15.6641 26.5194L16.248 22.621L15.0566 22.6093L17.2236 11.0341L21.9424 11.0839Z" fill="url(#paint16_linear_350_51)"/>
<path d="M136.058 15.126L134.909 22.7783L135.742 22.7793L135.368 25.6523H142.133L141.577 29H131.018L131.473 25.9883L131.917 22.8174L131 22.7861L132.425 15L136.058 15.126Z" fill="url(#paint17_linear_350_51)"/>
<path d="M55.0715 29H43.9715V15H55.0715V17.8H47.5715V20.5H53.4715V23.3H47.5715V26.2H55.0715V29ZM59.1668 29H55.2668L60.5668 15H64.5668L69.8668 29H65.9668L65.0668 26.5H60.0668L59.1668 29ZM60.9668 23.9H64.1668L62.5668 19.2L60.9668 23.9ZM78.666 15C80.1727 15 81.3127 15.3933 82.086 16.18C82.8727 16.9533 83.266 18.0933 83.266 19.6V24.4C83.266 25.9067 82.8727 27.0533 82.086 27.84C81.3127 28.6133 80.1727 29 78.666 29H70.866V15H78.666ZM79.666 19.6C79.666 18.4 79.066 17.8 77.866 17.8H74.466V26.2H77.866C79.066 26.2 79.666 25.6 79.666 24.4V19.6ZM96.3605 29H85.2605V15H96.3605V17.8H88.8605V20.5H94.7605V23.3H88.8605V26.2H96.3605V29ZM97.9559 15H106.356C107.756 15 108.769 15.32 109.396 15.96C110.036 16.5867 110.356 17.6 110.356 19V20.8C110.356 21.9067 110.169 22.7667 109.796 23.38C109.436 23.9933 108.856 24.4 108.056 24.6L110.556 29H106.656L104.356 24.8H101.556V29H97.9559V15ZM106.756 19C106.756 18.2 106.356 17.8 105.556 17.8H101.556V22H105.556C106.356 22 106.756 21.6 106.756 20.8V19ZM129.446 29H118.346V15H129.446V17.8H121.946V20.5H127.846V23.3H121.946V26.2H129.446V29ZM150.834 15C152.341 15 153.481 15.3933 154.254 16.18C155.041 16.9533 155.434 18.0933 155.434 19.6V24.4C155.434 25.9067 155.041 27.0533 154.254 27.84C153.481 28.6133 152.341 29 150.834 29H143.034V15H150.834ZM151.834 19.6C151.834 18.4 151.234 17.8 150.034 17.8H146.634V26.2H150.034C151.234 26.2 151.834 25.6 151.834 24.4V19.6Z" fill="url(#paint18_linear_350_51)"/>
<defs>
<linearGradient id="paint0_linear_350_51" x1="21.1326" y1="3.20313" x2="21.1326" y2="38.5514" gradientUnits="userSpaceOnUse">
<stop stop-color="#9D61FF"/>
<stop offset="1" stop-color="#45009D"/>
</linearGradient>
<linearGradient id="paint1_linear_350_51" x1="21.4267" y1="3.18702" x2="21.4267" y2="38.5353" gradientUnits="userSpaceOnUse">
<stop stop-color="#9D61FF"/>
<stop offset="1" stop-color="#45009D"/>
</linearGradient>
<linearGradient id="paint2_linear_350_51" x1="21.1447" y1="3.74757" x2="21.1447" y2="39.0959" gradientUnits="userSpaceOnUse">
<stop stop-color="#9D61FF"/>
<stop offset="1" stop-color="#45009D"/>
</linearGradient>
<linearGradient id="paint3_linear_350_51" x1="20.8632" y1="3.74757" x2="20.8632" y2="37.3855" gradientUnits="userSpaceOnUse">
<stop stop-color="#9D61FF"/>
<stop offset="1" stop-color="#45009D"/>
</linearGradient>
<linearGradient id="paint4_linear_350_51" x1="25.1851" y1="3.49574" x2="18.0032" y2="36.9202" gradientUnits="userSpaceOnUse">
<stop stop-color="#9D61FF"/>
<stop offset="1" stop-color="#45009D"/>
</linearGradient>
<linearGradient id="paint5_linear_350_51" x1="22.8521" y1="3.18702" x2="22.8521" y2="38.4436" gradientUnits="userSpaceOnUse">
<stop stop-color="#9D61FF"/>
<stop offset="1" stop-color="#45009D"/>
</linearGradient>
<linearGradient id="paint6_linear_350_51" x1="21.7087" y1="3.18702" x2="21.7087" y2="38.5353" gradientUnits="userSpaceOnUse">
<stop stop-color="#9D61FF"/>
<stop offset="1" stop-color="#45009D"/>
</linearGradient>
<linearGradient id="paint7_linear_350_51" x1="22.2447" y1="2.62647" x2="22.2447" y2="39.6852" gradientUnits="userSpaceOnUse">
<stop stop-color="#9D61FF"/>
<stop offset="1" stop-color="#45009D"/>
</linearGradient>
<linearGradient id="paint8_linear_350_51" x1="22.2447" y1="2.62647" x2="22.2447" y2="39.6852" gradientUnits="userSpaceOnUse">
<stop stop-color="#9D61FF"/>
<stop offset="1" stop-color="#45009D"/>
</linearGradient>
<linearGradient id="paint9_linear_350_51" x1="21.9903" y1="2.62647" x2="21.9903" y2="39.115" gradientUnits="userSpaceOnUse">
<stop stop-color="#9D61FF"/>
<stop offset="1" stop-color="#45009D"/>
</linearGradient>
<linearGradient id="paint10_linear_350_51" x1="23.3718" y1="14.3972" x2="23.3718" y2="38.3428" gradientUnits="userSpaceOnUse">
<stop stop-color="#9D61FF"/>
<stop offset="1" stop-color="#45009D"/>
</linearGradient>
<linearGradient id="paint11_linear_350_51" x1="21.9538" y1="2.62647" x2="21.9538" y2="37.9748" gradientUnits="userSpaceOnUse">
<stop stop-color="#9D61FF"/>
<stop offset="1" stop-color="#45009D"/>
</linearGradient>
<linearGradient id="paint12_linear_350_51" x1="21.3996" y1="2.62647" x2="21.3996" y2="37.9748" gradientUnits="userSpaceOnUse">
<stop stop-color="#9D61FF"/>
<stop offset="1" stop-color="#45009D"/>
</linearGradient>
<linearGradient id="paint13_linear_350_51" x1="18.455" y1="2.62647" x2="18.455" y2="37.4046" gradientUnits="userSpaceOnUse">
<stop stop-color="#9D61FF"/>
<stop offset="1" stop-color="#45009D"/>
</linearGradient>
<linearGradient id="paint14_linear_350_51" x1="18.455" y1="2.62647" x2="18.455" y2="37.4046" gradientUnits="userSpaceOnUse">
<stop stop-color="#9D61FF"/>
<stop offset="1" stop-color="#45009D"/>
</linearGradient>
<linearGradient id="paint15_linear_350_51" x1="21.4361" y1="6.55006" x2="21.4361" y2="38.4775" gradientUnits="userSpaceOnUse">
<stop stop-color="#9D61FF"/>
<stop offset="1" stop-color="#45009D"/>
</linearGradient>
<linearGradient id="paint16_linear_350_51" x1="22.1457" y1="11.0341" x2="22.1457" y2="30.4615" gradientUnits="userSpaceOnUse">
<stop stop-color="#9D61FF"/>
<stop offset="1" stop-color="#45009D"/>
</linearGradient>
<linearGradient id="paint17_linear_350_51" x1="136.475" y1="15" x2="136.475" y2="29.2404" gradientUnits="userSpaceOnUse">
<stop stop-color="#9D61FF"/>
<stop offset="1" stop-color="#45009D"/>
</linearGradient>
<linearGradient id="paint18_linear_350_51" x1="98.5514" y1="14" x2="98.5514" y2="31.2919" gradientUnits="userSpaceOnUse">
<stop stop-color="#9D61FF"/>
<stop offset="1" stop-color="#45009D"/>
</linearGradient>
</defs>
</svg>
