<?xml version="1.0" encoding="UTF-8"?>
<!DOCTYPE svg PUBLIC "-//W3C//DTD SVG 1.1//EN" "http://www.w3.org/Graphics/SVG/1.1/DTD/svg11.dtd">
<!-- Creator: CorelDRAW -->
<svg xmlns="http://www.w3.org/2000/svg" xml:space="preserve" width="91.4398mm" height="81.2798mm" version="1.1" style="shape-rendering:geometricPrecision; text-rendering:geometricPrecision; image-rendering:optimizeQuality; fill-rule:evenodd; clip-rule:evenodd"
viewBox="0 0 9143.98 8127.98"
 xmlns:xlink="http://www.w3.org/1999/xlink"
 xmlns:xodm="http://www.corel.com/coreldraw/odm/2003">
 <defs>
  <style type="text/css">
   <![CDATA[
    .fil6 {fill:black}
    .fil5 {fill:#1600E0}
    .fil10 {fill:#2B2A29}
    .fil4 {fill:#E31E24}
    .fil2 {fill:#FEFEFE}
    .fil0 {fill:black;fill-rule:nonzero}
    .fil7 {fill:#2B2A29;fill-rule:nonzero}
    .fil8 {fill:url(#id0);fill-rule:nonzero}
    .fil3 {fill:url(#id1);fill-rule:nonzero}
    .fil9 {fill:url(#id2);fill-rule:nonzero}
    .fil1 {fill:url(#id3);fill-rule:nonzero}
   ]]>
  </style>
  <linearGradient id="id0" gradientUnits="userSpaceOnUse" x1="104860.02" y1="-7599.49" x2="104860.02" y2="7587.84">
   <stop offset="0" style="stop-opacity:1; stop-color:#1600E0"/>
   <stop offset="1" style="stop-opacity:1; stop-color:#E31E24"/>
  </linearGradient>
  <linearGradient id="id1" gradientUnits="userSpaceOnUse" xlink:href="#id0" x1="1978.79" y1="1793.95" x2="1978.79" y2="4749.81">
  </linearGradient>
  <linearGradient id="id2" gradientUnits="userSpaceOnUse" xlink:href="#id0" x1="78213.01" y1="-7599.49" x2="78213.01" y2="7587.84">
  </linearGradient>
  <linearGradient id="id3" gradientUnits="userSpaceOnUse" xlink:href="#id0" x1="7165.03" y1="1793.95" x2="7165.03" y2="4749.81">
  </linearGradient>
 </defs>
 <g id="Слой_x0020_1">
  <metadata id="CorelCorpID_0Corel-Layer"/>
  <g id="_3102424429200">
   <path class="fil0" d="M2000.11 5596.11l-203.05 0 0 368.04c0,91.77 -48.81,127.88 -204.03,127.88 -207.94,0 -248.94,-31.23 -248.94,-127.88l0 -368.04 -201.1 0 0 368.04c0,197.19 135.69,295.79 450.04,295.79 271.39,0 407.08,-98.6 407.08,-295.79l0 -368.04zm364.14 260.66c-46.86,0 -69.31,-12.7 -69.31,-45.89 0,-33.19 22.45,-44.9 69.31,-44.9l452.97 0 129.84 -169.87 -567.19 0c-198.18,0 -280.18,80.05 -280.18,203.06 0,112.27 77.12,187.44 245.03,187.44l355.35 0c47.84,0 69.31,13.66 69.31,46.85 0,34.18 -21.48,47.84 -69.31,47.84l-493.98 0 -129.84 167.91 608.19 0c199.15,0 280.18,-80.04 280.18,-213.79 0,-119.1 -85.91,-178.65 -245.03,-178.65l-355.35 0 0.01 0zm1552.19 -15.62c0,-145.46 -118.12,-245.04 -320.2,-245.04l-410.02 0 -133.74 169.87 562.31 0c62.47,0 98.6,28.31 98.6,74.2 0,44.9 -36.12,75.16 -98.6,75.16l-562.31 0 0 333.87 201.11 0 0 -166.94 341.68 0c203.06,0 321.17,-96.65 321.17,-241.12zm559.38 -255.78c-318.25,0 -477.37,103.49 -477.37,336.8 0,233.32 159.12,337.77 477.37,337.77 317.28,0 477.37,-104.45 477.37,-337.77 0,-233.32 -160.1,-336.8 -477.37,-336.8zm0 504.71c-203.06,0 -276.27,-27.33 -276.27,-167.91 0,-140.58 73.21,-166.94 276.27,-166.94 203.06,0 276.27,26.36 276.27,166.94 0,140.58 -73.21,167.91 -276.27,167.91zm1300.33 100.56c24.4,42.94 59.55,69.3 111.29,69.3 50.76,0 95.66,-29.28 113.24,-89.81l168.88 -574.03 -197.2 0 -61.5 227.46c-19.53,72.25 -34.17,127.89 -44.9,179.63 -20.5,-43.93 -42.95,-89.82 -91.77,-179.63l-86.89 -164.98c-34.17,-64.43 -68.33,-73.22 -117.14,-73.22 -47.83,0 -81.03,8.79 -115.2,73.22l-87.86 164c-44.9,84.93 -70.29,134.72 -91.76,180.61 -9.76,-52.72 -23.43,-106.41 -43.93,-179.63l-61.5 -227.46 -202.08 0 165.96 574.03c17.57,60.52 62.48,89.81 113.24,89.81 52.72,0 87.86,-27.33 111.29,-69.3l104.45 -185.49c56.62,-100.55 82.98,-148.38 103.48,-195.24 22.45,46.86 48.81,95.67 105.44,196.22l104.45 184.5 0.01 0.01zm673.6 -109.34l0 -88.83 401.23 0 116.18 -148.39 -517.4 0 0 -78.09 422.7 0 130.81 -169.87 -756.57 0 0 653.09 628.7 0 129.84 -167.91 -555.47 0 -0.02 0zm1431.15 41.01c-44.9,-45.89 -69.31,-69.31 -91.77,-85.91 107.39,-21.48 170.84,-105.43 170.84,-206.96 0,-186.46 -187.44,-233.31 -335.83,-233.31l-419.77 0 -131.8 169.86 568.16 0c69.31,0 111.29,25.38 111.29,76.14 0,44.9 -48.81,73.22 -111.29,73.22l-568.16 0 0 333.87 202.08 0 0 -172.79 310.43 0 145.46 172.79 270.41 0 -120.07 -126.91 0.02 0zm-4333.47 905.53l0 -88.84 401.23 0 116.18 -148.38 -517.4 0 0 -78.1 422.7 0 130.82 -169.86 -756.57 0 0 653.09 628.69 0 129.84 -167.91 -555.47 0 -0.02 0zm826.86 0l0 -485.18 -202.07 0 0 653.09 576.95 0 130.81 -167.91 -505.69 0 0 0zm1403.81 -164.99c0,-188.41 -164.98,-320.2 -393.42,-320.2l-308.48 0 -128.85 169.86 437.35 0c109.33,0 193.29,67.37 193.29,159.13 0,93.71 -81.03,156.2 -193.29,156.2l-234.3 0 0 -239.18 -203.05 0 0 407.09 437.35 0c226.49,0 393.42,-143.51 393.42,-332.9l-0.02 0z"/>
   <path class="fil1" d="M6716.51 1808.66c34.85,-9.36 70.22,-14.11 105.78,-14.11l1926.91 0 0 0c0,469.89 -520.89,850.83 -823.03,850.83l-843.67 0c-79.15,0 -148.41,82.65 -168.9,201.6l1103.01 0c0,469.85 -520.89,850.82 -823.05,850.82l-292.26 0c-79.15,0 -148.42,82.66 -168.91,201.54l551.61 0c0,469.88 -520.89,850.84 -823.05,850.84l-290.67 0 0 -0.07 -589.28 0.05c215.51,-216.18 406.95,-483.47 568.37,-784.88 333.09,-622.04 540.33,-1392.93 567.16,-2156.62l-0.02 0z"/>
   <path class="fil2" d="M6698.82 1742.42c19.55,-5.26 40.08,-9.33 61.54,-12.19 21.63,-2.88 42.3,-4.34 61.94,-4.34l1995.57 0 0 68.66c0,231.45 -114.29,441.64 -269.67,602.26 -187.89,194.24 -439.64,317.23 -622.02,317.23l-843.67 0c-18.31,0 -37.19,11.6 -53.88,31.52 -7.88,9.41 -15.11,20.4 -21.51,32.75l1078.17 0 0 68.67c0,231.43 -114.3,441.62 -269.69,602.26 -187.89,194.23 -439.63,317.22 -622.03,317.22l-292.26 0c-18.31,0 -37.19,11.6 -53.89,31.52 -7.88,9.39 -15.1,20.36 -21.5,32.7l526.76 0 0 68.67c0,231.45 -114.3,441.64 -269.67,602.27 -187.9,194.24 -439.65,317.22 -622.03,317.22l-359.35 0 0 -0.34 -685.47 0.07 116.31 -116.69c103.96,-104.28 202.49,-221.24 294.9,-348.84 94.63,-130.67 182.09,-271.36 261.66,-419.93 165,-308.15 298.77,-653.91 394.43,-1017.64 94.46,-359.17 151.55,-735.12 164.68,-1108.94l1.79 -50.97 48.9 -13.13 -0.01 -0.01zm17.69 66.24c34.85,-9.36 70.22,-14.11 105.78,-14.11l1926.91 0c0,469.89 -520.89,850.83 -823.03,850.83l-843.67 0c-79.15,0 -148.41,82.65 -168.9,201.6l1103.01 0c0,469.85 -520.89,850.82 -823.05,850.82l-292.26 0c-79.15,0 -148.42,82.66 -168.91,201.54l551.61 0c0,469.88 -520.89,850.84 -823.05,850.84l-290.67 0 0 -0.07 -589.28 0.05c215.51,-216.18 406.95,-483.47 568.37,-784.88 333.09,-622.04 540.33,-1392.93 567.16,-2156.62l-0.02 0z"/>
   <path class="fil3" d="M2427.43 1808.66c-34.85,-9.36 -70.21,-14.11 -105.77,-14.11l-1926.91 0 0 0c0,469.89 520.89,850.83 823.03,850.83l843.67 0c79.15,0 148.42,82.65 168.89,201.6l-1103 0c0,469.85 520.89,850.82 823.05,850.82l292.26 0c79.15,0 148.42,82.66 168.91,201.54l-551.61 0c0,469.88 520.89,850.84 823.05,850.84l290.67 0 0 -0.07 589.27 0.05c-215.5,-216.18 -406.94,-483.47 -568.36,-784.88 -33.51,-62.57 -65.72,-126.69 -96.63,-192.1 -16.88,31.04 -25.69,59.05 -48.15,122.73 -275.52,-412.55 -273.58,-669.53 -244.29,-921.05 -102.37,-376.36 -164.26,-772.25 -178.1,-1166.2l0.02 0z"/>
   <path class="fil2" d="M2383.58 1730.22c21.46,2.86 41.99,6.93 61.55,12.19l48.91 13.13 1.78 50.97c6.73,191.47 25.24,384.7 54.62,577.06 29.62,193.99 70.4,386 121.34,573.31l3.41 12.55 -1.54 13.2c-13.99,120.11 -21.54,241.09 6.77,378.67 22.96,111.61 69.55,236.14 155.29,383.21l2.19 -4.07 64.43 -118.41 57.59 121.91c15.5,32.79 31.09,64.81 46.79,95.99 16.9,33.61 33,64.71 48.24,93.16 79.56,148.57 167.03,289.25 261.65,419.93 92.41,127.6 190.95,244.57 294.9,348.85l116.33 116.68 -685.48 -0.06 0 0.33 -359.34 0c-182.4,0 -434.15,-122.99 -622.03,-317.22 -155.38,-160.62 -269.67,-370.82 -269.67,-602.27l0 -68.67 526.75 0c-6.41,-12.33 -13.62,-23.3 -21.5,-32.7 -16.7,-19.93 -35.58,-31.51 -53.89,-31.51l-292.26 0c-182.4,0 -434.14,-123 -622.03,-317.23 -155.38,-160.62 -269.68,-370.82 -269.68,-602.26l0 -68.67 1078.17 0c-6.42,-12.35 -13.64,-23.33 -21.52,-32.74 -16.69,-19.93 -35.56,-31.53 -53.88,-31.53l-843.67 0c-182.39,0 -434.14,-122.98 -622.02,-317.22 -155.38,-160.63 -269.67,-370.81 -269.67,-602.26l0 -68.67 1995.57 0c19.65,0 40.31,1.46 61.93,4.34l-0.03 0.01zm43.85 78.43c-34.85,-9.37 -70.21,-14.11 -105.77,-14.11l-1926.91 0c0,469.89 520.89,850.83 823.03,850.83l843.67 0c79.15,0 148.42,82.65 168.89,201.59l-1103 0c0,469.86 520.89,850.83 823.05,850.83l292.26 0c79.15,0 148.42,82.65 168.91,201.53l-551.61 0c0,469.89 520.89,850.85 823.05,850.85l290.67 0 0 -0.08 589.27 0.06c-215.5,-216.19 -406.94,-483.47 -568.36,-784.88 -33.51,-62.57 -65.72,-126.69 -96.63,-192.1 -16.88,31.04 -25.69,59.05 -48.15,122.73 -275.52,-412.55 -273.58,-669.53 -244.29,-921.05 -102.37,-376.36 -164.26,-772.25 -178.1,-1166.2l0.02 0z"/>
   <path class="fil2" d="M4571.96 1413.05c-188.15,0.42 -368.62,8.49 -541.42,24.11 -588.91,53.23 -1167.99,27.82 -1104.9,663.71 13.3,133.98 32.67,268.18 57.73,401.53 150.19,-83.2 329.61,-141.98 523.8,-178.78 68.68,-58.06 141.89,-113.89 231.48,-166.71 103.2,-60.84 227.09,-117.08 388.98,-167.12 77.06,-23.81 179.06,-37.78 296.43,-53.85 335.89,-46.01 823.05,-112.77 885.38,-477.24 -64.53,-8.38 -129.88,-15.56 -196.04,-21.54 -172.82,-15.61 -353.28,-23.68 -541.44,-24.11l0 0zm1996.6 53.23c71.56,1669.48 -798.65,3497.54 -1996.6,3728.41 -660.1,-127.23 -1220.59,-739.5 -1578.94,-1542.9 40.72,-62.99 89.39,-108.12 142.75,-139.65 47.58,111.27 99.14,218.96 154.43,322.21 324.14,605.32 772.35,1052.86 1281.76,1166.62 192.29,-42.94 346.75,-76.64 534.25,-264.41 187.5,-187.78 251.69,-422.29 216.01,-572.28 -35.68,-149.99 -138.4,-295.36 -384.44,-416.81 42.11,127.01 42.78,226.36 45.41,323.75 -108.84,-256.9 -513.26,-511.26 -1182.5,-663.28 -281.17,-63.86 -767.57,-170.89 -954.46,328.68 -436.17,-770 44.97,-1158.95 725.47,-1276.25 143.59,-124.79 300.02,-238.85 598.77,-331.17 298.73,-92.32 1225.3,-37.35 1288.48,-689.45 90.94,36.84 224.01,231.44 95.37,457.68 296.2,-115.99 567.56,-116.63 643.94,-111.25 54.8,3.85 119.39,13.59 185.32,26.9 2.52,-74.17 3.22,-148.3 2.05,-222.18 -225.87,-97.82 -475.98,-173.75 -750.61,-227.4 -322.52,-62.99 -676.74,-95.24 -1063.07,-96.11 -386.32,0.87 -740.54,33.12 -1063.05,96.11 -924.43,180.57 -847.19,333.62 -646.11,1280.4 -60.14,48.01 -112.18,101.91 -154.5,162.04 -103.82,-435.47 -152.05,-893.23 -132.93,-1339.65 533.26,-255.45 1197.12,-386.53 1996.59,-388.4 799.48,1.86 1463.34,132.94 1996.6,388.4l0.01 -0.01zm-3009.95 1379.01c2.58,-56.22 0,0 14.8,-192.96 -166.21,31.03 -315.89,79.48 -435.08,146.99 -100.01,56.63 -177.51,125.87 -222.56,208.31 -42.91,78.49 -58.51,175.2 -38.36,292.11 2.33,13.49 5.1,27.22 8.37,41.19 109.76,-96.89 239.43,-146.5 374.22,-167.24 213.37,-32.81 426.32,14.52 582.16,49.91 336.34,76.41 611.14,178.08 820.45,293.51l-46.11 -139.03 404.93 199.86c149.48,73.77 263.16,161.5 339.81,263.55 87.11,116 124.98,245.52 112.02,388.9l0 5.92c-5.85,46.7 9.55,97.38 19.21,141.9 132.55,-159.66 253.74,-343.06 361.28,-543.87 284.12,-530.54 470.16,-1177.69 519.38,-1830.44 -66.81,-14.43 -133.1,-25.14 -187.43,-28.96 -39.37,-2.75 -142.12,-3.37 -279.08,20.27 -85.84,14.85 -183.3,39.18 -283.43,78.4l-497.24 194.74 114.55 -201.36c-236.66,127.47 -533.39,168.11 -771.83,200.78 -102.39,14.02 -191.42,26.23 -242.67,42.06 -133.1,41.13 -233.85,86.72 -316.84,135.64 -83.05,48.95 -160.02,87.85 -213.81,157.77 -53.8,69.93 -91.15,161.36 -136.72,242.04l-0.02 0.01zm-972.57 78.2l-19.99 -83.85c-53.55,-224.6 -92.79,-456.97 -116.19,-692.76 -22.69,-228.75 -29.9,-458.91 -20.17,-686.3l3.76 -87.8 79.07 -37.88c278.78,-133.56 589.69,-234.2 933.31,-301.29 340.2,-66.42 715.35,-100.43 1126.11,-101.38 410.76,0.95 785.93,34.97 1126.13,101.38 343.62,67.09 654.52,167.74 933.32,301.29l79.06 37.88 3.76 87.8c37.82,882.27 -180.16,1808.17 -568.3,2532.98 -376.92,703.85 -917.02,1223.2 -1546.55,1344.53l-27.43 5.28 -27.42 -5.28c-348.64,-67.2 -669.38,-255.82 -950.19,-530.23 -251.22,-245.48 -470.96,-560.34 -649.93,-917.89l-71.17 190.22 -153.84 -271.59c-93.25,-164.63 -148.87,-315.26 -172.51,-452.44 -27.96,-162.22 -12.03,-306.11 39.14,-432.67l0.03 0zm707.18 584.89c16.45,37.19 32.61,72.37 48.47,105.45 24.53,51.18 50.23,101.87 77.05,151.96 158.94,296.79 348.54,553.15 560.59,746.17 184.21,167.66 384.12,286.16 593.65,339.5 154.27,-34.85 282.57,-70.26 429.83,-217.73 14.72,-14.74 28.51,-29.8 41.38,-45.09l-195.25 -460.87c-43.49,-102.65 -157.17,-209.94 -337.95,-311.34 -185.13,-103.83 -433.54,-196.12 -742.29,-266.25 -128.79,-29.26 -304.48,-68.42 -458.88,-44.66 -5.55,0.85 -11.09,1.8 -16.6,2.85l0 0.01zm1845.48 932.86c6.03,-13.03 11.47,-26.02 16.35,-38.92 29.89,-79.21 37.45,-151.68 24.93,-204.33 -9.47,-39.81 -25.48,-79.13 -50.77,-117.27l9.5 360.51 -0.01 0.01zm263.63 -2867.17c-0.95,-0.54 0.28,0.17 1.12,0.67l-1.12 -0.67zm317.69 -43.47c1.37,3.43 2.7,6.87 3.99,10.36 16.11,43.39 26.86,91.52 29.37,143.13 33.37,-7.61 65.74,-14.01 96.82,-19.39 100.58,-17.37 189.12,-23.96 255.56,-25.67 -38.95,-13.32 -78.93,-26.18 -119.92,-38.6 -85.95,-26.04 -174.57,-49.32 -265.84,-69.83l0.02 0zm-124.66 2457.35c45.87,-72.09 89.19,-146.27 129.82,-222.15 137.44,-256.62 251.34,-542.64 336.97,-844.4 73.06,-257.54 125.21,-526.04 153.48,-797.04 -13.23,-1.56 -26.49,-2.81 -39.66,-3.73 -18.87,-1.32 -56.87,-1.95 -111.04,1.97 -38,2.76 -83.11,7.84 -133.77,16.58 -42.53,7.37 -86.88,16.87 -131.14,29.12 -39.2,10.84 -80.61,24.4 -123.72,41.29l-880.98 345.02 123.29 -216.73c-10.47,2.5 -20.93,4.94 -31.39,7.31 -139.9,31.61 -277,50.38 -399.15,67.12 -49.57,6.79 -95.91,13.14 -136.52,19.78 -35.44,5.8 -64.25,11.43 -82.73,17.14 -62.48,19.31 -115.94,39.04 -162.35,59.19 -45.73,19.84 -86.46,40.83 -123.63,62.75 -33.61,19.81 -31.03,18.32 -32.18,19 -57.85,33.52 -110.57,64.07 -139.93,102.23 -27.18,35.33 -52.65,85.45 -78.12,135.56 -13.37,26.3 -26.75,52.61 -47.16,88.77l-65.08 115.23c91.95,12.9 179.02,32.46 253.78,49.43 172.95,39.28 328.63,84.31 466.81,133.75 26.41,9.45 52.3,19.09 77.68,28.91l-50.08 -151 717.44 354.1c83.49,41.21 157.62,86.84 222.23,136.95 66.67,51.71 123.25,108.36 169.56,170.02 54.19,72.17 93.32,149.53 117.1,232.11l0.5 1.75 -0.03 -0.03zm-2196.38 -971.43l13.42 -175.1c-10.9,3.38 -21.69,6.88 -32.32,10.47 -62.45,21.1 -119.54,45.8 -169.78,74.26 -42.09,23.83 -78.13,49.24 -106.87,76.14 -24.96,23.36 -45.15,48.38 -59.71,75.04l-1.29 2.4c63.7,-24.03 129.37,-40.34 195.84,-50.57 54.13,-8.32 107.91,-12.15 160.71,-12.65l0 0.01z"/>
   <path class="fil4" d="M3857.18 4846.81c103.05,-8.78 205.26,-12.04 306.68,-8.86 162.03,5.07 320.96,28.62 477.05,66.1 38.36,-5.69 205.65,-56.32 268.44,-118.6 -250.07,-74.6 -506.57,-121.42 -769.83,-123.42 -148.76,-1.13 -299.08,11 -451.11,33.8l168.77 150.99 0 -0.01zm1035.19 121.17c47.68,7.79 10.42,-4.92 61.24,65.4 -4.14,-75.75 181.53,-95.52 177.59,-170.69l-23.55 -10.2 -215.29 115.5 0.01 -0.01zm-1785.63 -1182.69c70.45,-74.9 32.39,-76.94 95.23,-126.46 209.2,-66.07 415.4,-117.1 619.86,-149.02 -13.82,-3.27 -27.79,-6.51 -41.86,-9.72 -132.92,-30.19 -314.35,-70.59 -477.76,-45.46 -39.42,6.07 -78.18,16.26 -115.32,31.86 -17.15,7.98 -34.21,16.5 -51.11,25.64 -131.66,126.05 -33.62,120.67 -69.06,148.66 9.67,51.87 19.51,69.83 40.04,124.5l-0.02 0zm967.72 -305.24c15.21,-1.25 30.39,-2.39 45.58,-3.45 413.27,-28.9 11.55,-65.52 8.06,-99.77 -109.29,-15.91 -67.14,-39.75 -189.01,-53.88 -39.63,-4.61 -79.19,10.5 -118.78,16.81 -67.16,10.73 -135.68,19.91 -204.48,30.62 66.96,10.92 129.86,25.05 184.87,37.56 96.84,22.01 188.12,46.15 273.76,72.12l0 -0.01zm-907.32 518.62c288.35,-90.99 570.5,-154.18 849.35,-177.85 202.56,-17.19 403.57,-15.09 602.32,0.25 -25.16,-16.17 -52.56,-32.59 -82.68,-49.5 -85.13,-47.74 -183.22,-93.08 -294.02,-134.99 -83.69,2.47 -167.66,7.67 -251.83,15.98 -295.12,29.11 -593.66,101.6 -899.27,204.25l76.14 141.88 -0.01 -0.02zm1633.66 -159.95c173.39,19.91 -58.46,-52.33 112.1,-18.3 -6.26,-67.06 -86.94,-84.97 -93.08,-151.21 -267.71,-44.42 -60.19,-24.76 -337.16,-32.63l-0.78 -0.02c129.63,63.04 236.13,131.22 318.92,202.15l0 0.01zm-1460.85 437.41c246.16,-65.48 487.83,-108.57 726.65,-121.08 307.86,-16.15 610.27,17.63 905.63,79.05 -46.82,-82.81 -84.33,-150.47 -130.02,-211.48 -262.61,-39.15 -530.08,-56.57 -801.1,-37.58 -260.55,18.27 -524.17,71.47 -793.23,150.17l92.07 140.91 0 0.01zm1706.31 -26.02c64.47,14.45 128.59,30.12 192.34,46.8 6.7,-74.28 -11.1,-145.69 -46.16,-209.86 -39.85,-8.6 -79.82,-16.82 -119.93,-24.64 -4.36,63.19 -14.91,124.22 -26.24,187.7l-0.01 0zm285.2 71.88l20.29 5.68c-5.18,-70.04 -10.64,-139.08 -16.09,-208.12l-28.5 -6.71c5.97,17.06 10.96,34.22 15.06,51.43 12.19,51.22 16.78,101.98 9.24,157.72l0 0zm-348.95 -276.38l-12.28 -2.17c4.69,9.24 9.04,18.5 12.97,27.76l-0.68 -25.59 -0.01 0zm-1426.02 510c188.92,-37.06 375.16,-59.14 559.43,-61.92 327.82,-4.96 646.54,55.69 956.13,150.17 46.33,-64.1 81.53,-119.78 107.52,-169.23 -352.16,-101.29 -715.59,-167.22 -1088.59,-154.34 -214.45,7.43 -431.34,40.34 -651.77,92.25l117.29 143.07 -0.01 0zm1610.09 118.23l35.62 11.86c53.75,-38.61 113.26,-87.29 165.67,-133.21l-1.33 -20.67c-31.55,-10.19 -63.19,-20.15 -94.94,-29.86 -25.64,51.17 -60.06,107.78 -105.02,171.88l0 0zm143.09 49.32c23.73,8.54 47.39,17.22 70.99,26.07l-5.21 -79.05 -13.07 10.82c-17.46,14.34 -35.13,28.5 -52.7,42.16l-0.01 0z"/>
   <path class="fil5" d="M2758.29 1590.88c516.34,-264.66 1209.11,-369.14 1813.67,-369.14 604.57,0 1251.73,61.89 1813.7,369.14 5.62,142.6 1.4,35.68 7.03,178.28 -211.55,-64.16 -506.05,-32.37 -748.03,58.64 49.03,-234 -42.03,-375.44 -220.16,-459.35 -23.04,188.4 -81.9,328.53 -202.32,411.45 -189.61,114.7 -371.02,171.19 -562.77,185.56 -228.14,17.12 -417.93,21.68 -661.68,125.48 -243.76,103.81 -306.72,177.2 -463.9,274.55 -308.87,87.03 -441.35,95.95 -671.03,278.39 -137.83,-334.53 -169.49,-686.05 -104.52,-1053.01l0.01 0.01z"/>
   <path class="fil6" d="M4571.96 1267.38c-386.32,0.87 -740.54,33.12 -1063.05,96.11 -274.66,53.64 -524.74,129.57 -750.62,227.39 -5.55,351.66 31.34,708.5 104.51,1053.01 -60.13,48.01 -112.17,101.91 -154.5,162.04 -103.82,-435.47 -152.05,-893.23 -132.92,-1339.65 533.26,-255.46 1197.12,-386.53 1996.59,-388.4 799.47,1.86 1463.34,132.93 1996.6,388.4 71.55,1669.48 -798.66,3497.54 -1996.6,3728.41 -660.11,-127.23 -1220.6,-739.5 -1578.95,-1542.9 40.72,-62.99 89.4,-108.12 142.76,-139.65 47.57,111.27 99.13,218.96 154.42,322.21 324.14,605.32 772.35,1052.86 1281.77,1166.62 192.28,-42.94 346.74,-76.64 534.24,-264.41 187.5,-187.78 251.7,-422.29 216.01,-572.28 -35.68,-149.99 -138.4,-295.36 -384.44,-416.81 42.11,127.01 42.78,226.36 45.41,323.75 -108.84,-256.9 -513.26,-511.26 -1182.49,-663.28 -281.18,-63.86 -767.58,-170.89 -954.47,328.68 -436.17,-770 44.97,-1158.95 725.47,-1276.25 143.59,-124.79 300.02,-238.85 598.77,-331.17 298.73,-92.32 1225.31,-37.35 1288.48,-689.45 90.95,36.84 224.02,231.44 95.37,457.68 296.2,-115.99 567.56,-116.63 643.94,-111.25 54.8,3.85 119.39,13.59 185.32,26.9 2.52,-74.17 3.22,-148.3 2.06,-222.18 -225.88,-97.82 -475.98,-173.75 -750.62,-227.4 -322.51,-62.99 -676.74,-95.24 -1063.07,-96.11l0.01 -0.01zm920.49 3110.83c132.55,-159.65 253.74,-343.06 361.28,-543.86 284.13,-530.55 470.16,-1177.69 519.38,-1830.44 -66.81,-14.44 -133.1,-25.15 -187.43,-28.96 -39.37,-2.76 -142.12,-3.38 -279.08,20.26 -85.84,14.85 -183.3,39.18 -283.43,78.4l-497.24 194.74 114.55 -201.36c-236.66,127.47 -533.39,168.12 -771.83,200.78 -102.39,14.02 -191.42,26.23 -242.67,42.06 -133.1,41.13 -233.85,86.72 -316.84,135.64 -83.05,48.96 -160.02,87.85 -213.81,157.77 -53.8,69.93 -91.15,161.37 -136.72,242.05 2.58,-56.22 0,0 14.8,-192.96 -166.21,31.03 -315.89,79.49 -435.08,146.99 -100.01,56.63 -177.51,125.87 -222.56,208.31 -42.91,78.49 -58.51,175.2 -38.36,292.12 2.33,13.48 5.1,27.21 8.37,41.18 109.76,-96.89 239.43,-146.49 374.22,-167.24 213.37,-32.81 426.32,14.53 582.16,49.91 336.34,76.41 611.14,178.08 820.45,293.51l-46.11 -139.03 404.93 199.86c149.48,73.77 263.16,161.5 339.81,263.55 87.11,116 124.98,245.52 112.02,388.9l0 5.93c-5.85,46.7 9.55,97.37 19.21,141.89l-0.02 0z"/>
   <path class="fil6" d="M3920.01 2705.03c53.96,-213.86 382.29,-187.86 521.16,-295.1 -90.16,165.78 -157.15,217.84 -239.85,257.62 -82.69,39.79 -186.55,46.69 -281.31,37.48z"/>
   <path class="fil6" d="M6373.11 2003.92c-667.6,-189.98 -1236.23,331.08 -1543.1,626.62 720.11,-356 1313.04,-473.67 1508.9,-312.53l64.92 -186.15 -30.73 -127.94 0.01 0z"/>
   <path class="fil6" d="M6015.3 3651.56c0,0 -475.69,-551.1 -1495.2,-415.05 863.78,168.3 1004.05,414.77 1293.57,670.71l205.78 -109.29 -4.15 -146.39 0 0.02z"/>
   <path class="fil6" d="M5825 3923.55c0,0 -266.78,-436.75 -1208.5,-545.48 463.44,213.35 811.57,845.71 847.5,1034.49l308.7 -215.47 52.3 -273.55 0 0.01z"/>
   <path class="fil6" d="M6258.42 2745.68c0,0 -268.88,-137.9 -1250.48,126.08 745.36,40.39 933.59,139.28 1129.43,300.42l72.11 -143.75 48.93 -282.75 0.01 0z"/>
   <polygon class="fil2" points="3137.06,1578.31 3310.31,1766.62 3563.08,1726.64 3437.51,1949.59 3553.65,2177.63 3302.81,2127.11 3121.82,2308.05 3092.35,2053.85 2864.35,1937.64 3096.99,1831.06 "/>
   <polygon class="fil2" points="5213.38,1457.34 5241.54,1531.14 5318.6,1548.57 5257.1,1598.15 5264.34,1676.83 5198.18,1633.65 5125.59,1664.86 5146.2,1588.59 5094.1,1529.21 5173,1525.24 "/>
   <polygon class="fil2" points="4434.63,1388.23 4514.33,1523.68 4671.26,1532.32 4567.07,1649.97 4607.35,1801.9 4463.26,1739.16 4331.23,1824.43 4346.36,1668 4224.47,1568.77 4377.91,1534.82 "/>
   <polygon class="fil2" points="4880.94,1412.99 4929.3,1513.87 5040.09,1529.46 4959.09,1606.63 4978.5,1716.82 4880.09,1663.62 4781.28,1716.13 4801.45,1606.09 4720.99,1528.36 4831.88,1513.54 "/>
   <polygon class="fil2" points="3850.32,1447.04 3973.09,1598.46 4167.18,1580.06 4061.11,1743.62 4138.58,1922.54 3950.26,1872.19 3804.05,2001.16 3793.72,1806.5 3625.88,1707.29 3807.83,1637.31 "/>
   <path class="fil2" d="M3573.41 2652.32c-166.21,31.03 -315.89,79.48 -435.08,146.99 -100.01,56.63 -177.51,125.87 -222.56,208.31 -42.91,78.49 -58.51,175.2 -38.36,292.11 2.33,13.49 5.1,27.22 8.37,41.19 109.76,-96.89 239.43,-146.5 374.22,-167.24 213.37,-32.81 426.32,14.52 582.16,49.91 336.34,76.41 611.14,178.08 820.45,293.51l-46.11 -139.03c499.21,57.64 808.75,207.45 989.44,335.52 -201.08,-183.44 -443.26,-351.89 -1085.82,-477.08 833.81,-111.28 1303.87,237.08 1447.43,367.67 63.1,-138.41 119.91,-282.97 169.84,-432 -195.85,-161.14 -384.09,-260.03 -1129.43,-300.42 981.59,-263.98 1250.48,-126.08 1250.47,-126.08 33,-140.58 59.97,-283.55 80.5,-427.67 -195.84,-161.14 -788.79,-43.48 -1508.9,312.53 153.57,-147.91 372.7,-352.3 636.99,-495.77l-341.06 133.57 114.55 -201.36c-236.66,127.47 -533.39,168.11 -771.83,200.78 -102.4,14.02 -191.42,26.23 -242.67,42.06 -133.11,41.13 -233.85,86.72 -316.85,135.64 -83.04,48.96 -160.01,87.85 -213.8,157.77 -53.8,69.93 -91.15,161.36 -136.72,242.05 2.58,-56.22 0,0 14.8,-192.96l-0.03 0zm627.91 15.24c-82.68,39.79 -186.55,46.68 -281.3,37.47 53.95,-213.86 382.28,-187.86 521.15,-295.1 -90.16,165.78 -157.15,217.84 -239.85,257.63z"/>
   <path class="fil7" d="M3571.28 2654.69c-83.78,15.75 -163.33,35.94 -236.85,60.78 -71.27,24.08 -136.87,52.53 -195.14,85.54 -50.95,28.85 -96.04,60.97 -133.93,96.43 -36.26,33.95 -65.94,70.96 -87.89,111.12 -21.8,39.87 -36.51,84.47 -43.02,134.08 -6.24,47.57 -4.95,99.76 4.88,156.78 1.18,6.85 2.47,13.7 3.85,20.53 1.15,5.66 2.4,11.45 3.76,17.39 54.39,-47.53 113.58,-83.59 175.8,-110.36 63.14,-27.17 129.42,-44.8 196.97,-55.19 106.88,-16.43 213.65,-12.8 313.18,-0.62 99.45,12.16 191.72,32.87 269.71,50.56 164.92,37.47 315.04,81 449.88,129.24 138.48,49.54 260.9,104.05 366.75,162.08l-45.52 -137.22 3.02 0.35c219.74,25.37 402.79,68.6 554.28,119.97 177.67,60.24 311.98,131.72 411.25,198.74 -94.65,-84.34 -200.95,-165.24 -354.52,-239.9 -165.87,-80.61 -386.9,-153.98 -707.99,-216.54l-11.61 -2.27 11.73 -1.56c321.05,-42.85 588.21,-17.61 803.64,37.11 342.13,86.91 553.78,248.2 643.38,329.26 31.08,-68.29 60.65,-138.14 88.64,-209.32 28.19,-71.73 54.75,-144.74 79.59,-218.8 -97.39,-80.04 -193.15,-144.65 -356.95,-194.29 -164.56,-49.87 -397.82,-84.66 -770.32,-104.84l-12.15 -0.66 11.74 -3.15c707.11,-190.17 1044.73,-171.86 1178.35,-146.7 26.04,4.9 44.38,10.08 56.21,14.03 7.26,2.42 11.35,4.54 13.64,6.23 -4,-0.45 -11.31,-1.38 -14.86,-2.56 -11.69,-3.91 -29.84,-9.02 -55.71,-13.89 -132.56,-24.95 -466.54,-43.08 -1164.82,143.5 365.72,20.3 595.98,54.94 759.04,104.34 165.03,50.01 261.22,115.13 359.32,195.84l1.03 0.85 -0.42 1.26c-25.01,74.65 -51.72,148.15 -80.08,220.25 -28.3,71.99 -58.27,142.7 -89.83,211.94l-1.09 2.42 -1.98 -1.79c-88.21,-80.24 -299.87,-242.8 -643.7,-330.15 -212.37,-53.94 -475.17,-79.17 -790.39,-38.58 315.15,62.14 533.16,134.8 697.28,214.57 166.22,80.8 277.17,168.87 377.82,260.68l23.32 21.27 -25.76 -18.25c-101.07,-71.63 -242.53,-150.09 -435.06,-215.38 -150.55,-51.04 -332.35,-94.05 -550.45,-119.42l46.71 140.83 -4.33 -2.38c-106.64,-58.82 -230.33,-114.06 -370.52,-164.21 -134.74,-48.21 -284.71,-91.7 -449.43,-129.11 -77.86,-17.68 -169.99,-38.35 -269.32,-50.49 -99.24,-12.13 -205.64,-15.76 -312.14,0.61 -67.22,10.34 -133.19,27.89 -196,54.93 -62.81,27.03 -122.5,63.55 -177.21,111.84l-2.44 2.16 -0.74 -3.16c-1.59,-6.81 -3.09,-13.72 -4.51,-20.67 -1.43,-7.02 -2.71,-13.89 -3.87,-20.63 -9.89,-57.41 -11.2,-109.98 -4.89,-157.94 6.57,-50.09 21.43,-95.15 43.45,-135.43 22.15,-40.52 52.09,-77.86 88.66,-112.09 38.13,-35.68 83.46,-67.99 134.65,-96.98 58.5,-33.13 124.32,-61.69 195.83,-85.85 74.4,-25.14 154.98,-45.53 239.86,-61.38l2.48 -0.46 -14.31 186.69c13.53,-24.41 26.46,-49.85 39.39,-75.29 28.6,-56.27 57.19,-112.52 93.17,-159.31 47.13,-61.26 111.79,-98.73 182.76,-139.85 10.57,-6.12 21.27,-12.32 31.6,-18.41 41.55,-24.5 87.57,-48.17 139.84,-70.85 52.28,-22.69 110.8,-44.4 177.42,-64.98 25.71,-7.94 60.87,-14.98 102.41,-21.77 41.48,-6.79 89.35,-13.35 140.57,-20.36 119.18,-16.33 252.92,-34.65 386.42,-64.81 133.41,-30.14 266.6,-72.11 384.75,-135.75l5.94 -3.2 -115.18 202.46 365.04 -142.96 -27.45 14.91c-132.01,71.66 -252.77,158.56 -359.71,246.02 -102.85,84.12 -192.88,168.71 -267.87,240.79 353.53,-173.89 676.03,-290.1 935.34,-343.81 265.78,-55.06 465.43,-44.42 564.44,37.04l0.85 0.7 -0.16 1.07c-10.24,71.9 -22.09,143.53 -35.49,214.75 -13.48,71.58 -28.51,142.67 -45.04,213.09l-1.89 -0.44 0 -1.95 -1.51 -0.14c16.39,-69.95 31.29,-140.42 44.61,-211.28 13.32,-70.74 25.11,-141.96 35.31,-213.48 -98.36,-80.05 -296.48,-90.21 -560.36,-35.56 -261.73,54.2 -587.96,172.2 -945.61,349.01l-11.22 5.55 9.03 -8.69c76.82,-74 170.05,-162.11 277.08,-249.65 100.11,-81.87 212.36,-163.28 334.64,-232.21l-318.85 124.88 113.95 -200.29c-117.01,62.05 -248.31,103.23 -379.82,132.95 -133.64,30.19 -267.49,48.53 -386.76,64.86 -51.17,7 -99.02,13.57 -140.46,20.35 -41.38,6.77 -76.37,13.76 -101.9,21.65 -66.49,20.55 -124.89,42.21 -177.01,64.82 -52.12,22.62 -97.98,46.22 -139.42,70.64 -10.96,6.46 -21.36,12.49 -31.62,18.43 -70.62,40.92 -134.97,78.21 -181.64,138.86 -35.74,46.46 -64.27,102.57 -92.78,158.68 -14.26,28.05 -28.51,56.1 -43.79,83.13l-4.28 7.6 15.26 -199.14 0.05 -0.04zm2684.35 88.76c0.42,0.32 0.79,0.61 1.09,0.9l0.18 -0.76 -1.28 -0.14 0.01 0zm1.09 0.9c0.49,0.44 0.85,0.84 1.1,1.2l0.58 0.14 0 1.03c0.16,0.6 0,0.91 0,0.91l-2.45 0 0.77 -3.28 0 0zm1.1 1.2c0.33,0.46 0.5,0.85 0.58,1.17l-0.58 -1.17zm-2055.66 -76.24c-38.75,18.64 -82.1,30.09 -126.97,36.07 -51.33,6.83 -104.66,6.51 -155.37,1.59l-2.25 -0.23 0.55 -2.18c34.25,-135.77 177.6,-175.49 313.89,-213.24 79.64,-22.06 156.85,-43.45 207.98,-82.93l7.28 -5.63 -4.4 8.09c-45.18,83.06 -84.57,137.67 -123.05,176.5 -38.54,38.89 -76.13,61.95 -117.67,81.95l0.01 0.01zm-127.47 32.23c44.5,-5.93 87.44,-17.28 125.8,-35.73 41.16,-19.8 78.41,-42.66 116.59,-81.19 37.02,-37.36 74.93,-89.5 118.16,-167.89 -51.57,36.6 -125.78,57.17 -202.18,78.33 -134.48,37.26 -275.87,76.45 -310.56,208.25 49.77,4.69 101.97,4.9 152.2,-1.78l-0.01 0.01z"/>
   <path class="fil2" d="M4886.82 4217.18c-268.17,-50.53 -541.97,-76.73 -820.22,-62.12 -123.3,6.46 -247.35,21.06 -372.4,42.7 38.75,50.82 78.6,99.43 119.49,145.64 92.93,-12.05 185.34,-19.91 277.29,-23.1 300.4,-10.37 594.6,30.38 881.71,99.54l-85.86 -202.66 -0.01 0z"/>
   <path class="fil2" d="M4041.1 3985.06c247,-17.32 491.05,-4.37 731.16,27.68 -59.85,-66.02 -147.21,-132.34 -261.26,-196.31 -1.53,-0.86 -3.06,-1.71 -4.59,-2.57 -162.03,-8.24 -325.46,-6.99 -489.9,6.96 -171.3,14.54 -343.85,43.99 -518.31,85.64 29.19,49.01 59.26,96.69 90.16,142.92 152.23,-31.79 303,-53.83 452.75,-64.32l-0.01 0z"/>
   <path class="fil2" d="M3415.19 3759.16c193.77,-51.16 385.13,-87.87 575.09,-106.6 38.7,-3.82 77.36,-6.98 115.97,-9.53 -102.98,-33.97 -215.55,-65.13 -337.53,-92.86 -24.56,-5.57 -50.81,-11.51 -78.3,-17.29 -115.11,22.37 -230.85,50.49 -347.45,83.62 23.06,48.01 47.15,95.6 72.22,142.65l0 0.01z"/>
   <path class="fil2" d="M5010.75 4625.65c-290.33,-83.96 -588.61,-136.58 -894.84,-131.94 -49.69,0.75 -99.52,2.9 -149.53,6.37 4.3,3.98 8.62,7.94 12.94,11.88 61.3,55.79 124.34,106.14 188.9,150.46 226.57,4.51 448.11,41.88 664.85,101.2 55.46,-30.22 111.1,-71.17 169.73,-129.89 2.68,-2.68 5.32,-5.38 7.94,-8.08l0.01 0z"/>
   <path class="fil2" d="M5134.21 4270.63l4.49 170.61c6.03,-13.03 11.47,-26.02 16.35,-38.92 15.99,-42.38 25.6,-82.84 29.14,-119.35 -16.63,-4.19 -33.29,-8.31 -49.98,-12.34z"/>
  </g>
  <g id="_3102424419312">
   <path class="fil8" d="M102555.55 -7523.85c179.06,-48.13 360.77,-72.49 543.47,-72.49l9900.52 0 0 0c0,2414.29 -2676.37,4371.55 -4228.74,4371.55l-4334.82 0c-406.68,0 -762.51,424.69 -867.78,1035.82l5667.28 0c0,2414.13 -2676.37,4371.55 -4228.85,4371.55l-1501.64 0c-406.68,0 -762.62,424.69 -867.89,1035.5l2834.21 0c0,2414.29 -2676.37,4371.66 -4228.85,4371.66l-1493.5 0 0 -0.38 -3027.7 0.27c1107.28,-1110.75 2090.9,-2484.07 2920.27,-4032.7 1711.46,-3196.07 2776.26,-7156.93 2914.08,-11080.78l-0.06 0z"/>
   <path class="fil2" d="M102464.61 -7864.23c100.49,-27.02 205.97,-47.91 316.23,-62.62 111.12,-14.81 217.31,-22.3 318.23,-22.3l10253.32 0 0 352.8c0,1189.16 -587.25,2269.15 -1385.58,3094.44 -965.39,998 -2258.89,1629.91 -3195.96,1629.91l-4334.82 0c-94.09,0 -191.05,59.58 -276.83,161.97 -40.48,48.35 -77.65,104.78 -110.53,168.26l5539.66 0 0 352.8c0,1189.1 -587.25,2269.09 -1385.63,3094.44 -965.39,997.95 -2258.84,1629.91 -3196.01,1629.91l-1501.64 0c-94.09,0 -191.1,59.58 -276.89,161.91 -40.48,48.29 -77.59,104.61 -110.47,168.04l2706.48 0 0 352.8c0,1189.21 -587.25,2269.2 -1385.58,3094.49 -965.39,998 -2258.89,1629.91 -3196.01,1629.91l-1846.3 0 0 -1.74 -3522.01 0.33 597.62 -599.52c534.13,-535.82 1040.43,-1136.74 1515.21,-1792.37 486.22,-671.41 935.6,-1394.26 1344.4,-2157.64 847.81,-1583.25 1535.12,-3359.77 2026.61,-5228.64 485.35,-1845.43 778.68,-3777.08 846.13,-5697.77l9.22 -261.86 251.22 -67.5 -0.07 -0.05zm90.94 340.38c179.06,-48.13 360.77,-72.49 543.47,-72.49l9900.52 0c0,2414.29 -2676.37,4371.55 -4228.74,4371.55l-4334.82 0c-406.68,0 -762.51,424.69 -867.78,1035.82l5667.28 0c0,2414.13 -2676.37,4371.55 -4228.85,4371.55l-1501.64 0c-406.68,0 -762.62,424.69 -867.89,1035.5l2834.21 0c0,2414.29 -2676.37,4371.66 -4228.85,4371.66l-1493.5 0 0 -0.38 -3027.7 0.27c1107.28,-1110.75 2090.9,-2484.07 2920.27,-4032.7 1711.46,-3196.07 2776.26,-7156.93 2914.08,-11080.78l-0.06 0z"/>
   <path class="fil9" d="M80518.13 -7523.85c-179.06,-48.13 -360.77,-72.49 -543.47,-72.49l-9900.52 0 0 0c0,2414.29 2676.37,4371.55 4228.74,4371.55l4334.82 0c406.68,0 762.57,424.69 867.78,1035.82l-5667.28 0c0,2414.13 2676.37,4371.55 4228.85,4371.55l1501.64 0c406.68,0 762.62,424.69 867.89,1035.5l-2834.21 0c0,2414.29 2676.37,4371.66 4228.85,4371.66l1493.5 0 0 -0.38 3027.7 0.27c-1107.28,-1110.75 -2090.9,-2484.07 -2920.27,-4032.7 -172.17,-321.49 -337.66,-650.96 -496.48,-987.04 -86.76,159.47 -132.01,303.42 -247.42,630.61 -1415.59,-2119.72 -1405.66,-3440.07 -1255.14,-4732.38 -526,-1933.77 -843.96,-3967.86 -915.09,-5991.97l0.11 0z"/>
   <path class="fil2" d="M80292.84 -7926.9c110.26,14.7 215.74,35.59 316.23,62.62l251.28 67.5 9.17 261.86c34.56,983.79 129.68,1976.63 280.63,2964.98 152.2,996.7 361.7,1983.25 623.45,2945.66l17.53 64.46 -7.92 67.82c-71.89,617.15 -110.69,1238.75 34.78,1945.65 117.96,573.42 357.36,1213.3 797.89,1968.93l11.23 -20.89 331.04 -608.42 295.93 626.38c79.6,168.48 159.74,332.99 240.37,493.22 86.87,172.65 169.56,332.45 247.86,478.63 408.79,763.38 858.23,1486.18 1344.4,2157.64 474.77,655.62 981.07,1256.6 1515.21,1792.37l597.67 599.52 -3522.01 -0.33 0 1.74 -1846.3 0c-937.18,0 -2230.68,-631.96 -3196.01,-1629.91 -798.33,-825.29 -1385.58,-1905.28 -1385.58,-3094.49l0 -352.8 2706.48 0c-32.94,-63.38 -70,-119.75 -110.47,-168.04 -85.78,-102.39 -182.8,-161.91 -276.89,-161.91l-1501.64 0c-937.18,0 -2230.62,-631.96 -3196.01,-1629.91 -798.33,-825.29 -1385.63,-1905.28 -1385.63,-3094.44l0 -352.8 5539.66 0c-32.94,-63.48 -70.05,-119.91 -110.53,-168.26 -85.78,-102.39 -182.75,-161.97 -276.83,-161.97l-4334.82 0c-937.12,0 -2230.62,-631.91 -3195.96,-1629.91 -798.33,-825.29 -1385.58,-1905.23 -1385.58,-3094.44l0 -352.8 10253.32 0c100.92,0 207.11,7.49 318.18,22.3l-0.13 0.04zm225.29 402.99c-179.06,-48.13 -360.77,-72.49 -543.47,-72.49l-9900.52 0c0,2414.29 2676.37,4371.55 4228.74,4371.55l4334.82 0c406.68,0 762.57,424.69 867.78,1035.82l-5667.28 0c0,2414.13 2676.37,4371.55 4228.85,4371.55l1501.64 0c406.68,0 762.62,424.69 867.89,1035.5l-2834.21 0c0,2414.29 2676.37,4371.66 4228.85,4371.66l1493.5 0 0 -0.38 3027.7 0.27c-1107.28,-1110.75 -2090.9,-2484.07 -2920.27,-4032.7 -172.17,-321.49 -337.66,-650.96 -496.48,-987.04 -86.76,159.47 -132.01,303.42 -247.42,630.61 -1415.59,-2119.72 -1405.66,-3440.07 -1255.14,-4732.38 -526,-1933.77 -843.96,-3967.86 -915.09,-5991.97l0.11 0z"/>
   <path class="fil2" d="M91536.79 -9556.54c-966.75,2.17 -1893.99,43.62 -2781.85,123.88 -3025.85,273.52 -6001.19,142.97 -5676.99,3410.18 68.31,688.39 167.83,1377.93 296.58,2063.07 771.68,-427.46 1693.56,-729.52 2691.34,-918.57 352.85,-298.32 729.04,-585.19 1189.32,-856.55 530.28,-312.59 1166.8,-601.58 1998.61,-858.66 395.93,-122.36 920.03,-194.14 1523.07,-276.73 1725.79,-236.36 4228.85,-579.39 4549.09,-2452.06 -331.58,-43.03 -667.34,-79.92 -1007.28,-110.64 -887.91,-80.25 -1815.15,-121.7 -2781.9,-123.88l0.01 -0.04zm10258.58 273.53c367.66,8577.83 -4103.51,17970.43 -10258.58,19156.66 -3391.62,-653.72 -6271.46,-3799.55 -8112.66,-7927.47 209.23,-323.66 459.31,-555.51 733.48,-717.53 244.44,571.74 509.34,1125.02 793.44,1655.52 1665.45,3110.17 3968.35,5409.65 6585.74,5994.14 987.96,-220.62 1781.57,-393.76 2744.95,-1358.56 963.38,-964.79 1293.23,-2169.74 1109.89,-2940.4 -183.34,-770.65 -711.13,-1517.54 -1975.28,-2141.58 216.39,652.58 219.81,1163.06 233.32,1663.44 -559.2,-1319.93 -2637.14,-2626.83 -6075.69,-3407.95 -1444.67,-328.11 -3943.82,-878.03 -4904.06,1688.78 -2241.04,-3956.3 231.04,-5954.69 3727.49,-6557.41 737.77,-641.19 1541.52,-1227.2 3076.48,-1701.53 1534.9,-474.39 6295.66,-191.92 6620.24,-3542.41 467.29,189.26 1151.01,1189.1 490.02,2351.57 1521.88,-595.99 2916.14,-599.25 3308.6,-571.63 281.55,19.8 613.41,69.83 952.15,138.2 12.97,-381.07 16.55,-761.97 10.58,-1141.57 -1160.56,-502.61 -2445.6,-892.74 -3856.68,-1168.38 -1657.1,-323.61 -3477.13,-489.32 -5462.07,-493.82 -1984.93,4.5 -3804.92,170.21 -5462.01,493.82 -4749.74,927.79 -4352.89,1714.18 -3319.73,6578.74 -308.96,246.67 -576.35,523.61 -793.82,832.56 -533.43,-2237.46 -781.23,-4589.41 -682.97,-6883.13 2739.91,-1312.55 6150.84,-1986.02 10258.53,-1995.62 4107.74,9.55 7518.68,683.02 10258.58,1995.62l0.06 -0.06zm-15465.2 7085.36c13.24,-288.83 0,0 76.02,-991.44 -854,159.47 -1623.07,408.41 -2235.45,755.24 -513.84,291 -912.05,646.72 -1143.53,1070.33 -220.46,403.26 -300.6,900.17 -197.07,1500.88 11.94,69.29 26.21,139.83 42.97,211.61 563.98,-497.83 1230.23,-752.69 1922.75,-859.26 1096.32,-168.59 2190.47,74.61 2991.18,256.43 1728.12,392.57 3140.07,914.98 4215.5,1508.04l-236.9 -714.33 2080.54 1026.87c767.99,379.06 1352.1,829.8 1745.92,1354.16 447.59,595.99 642.17,1261.49 575.59,1998.17l0 30.44c-30.06,239.94 49.05,500.33 98.7,729.04 681.02,-820.3 1303.7,-1762.63 1856.23,-2794.38 1459.86,-2725.96 2415.7,-6051 2668.61,-9404.86 -343.25,-74.17 -683.89,-129.19 -963,-148.78 -202.33,-14.16 -730.23,-17.36 -1433.93,104.12 -441.08,76.29 -941.79,201.3 -1456.28,402.83l-2554.83 1000.55 588.56 -1034.57c-1215.96,654.92 -2740.56,863.76 -3965.69,1031.59 -526.1,72.06 -983.51,134.78 -1246.84,216.12 -683.89,211.34 -1201.53,445.58 -1627.96,696.91 -426.7,251.55 -822.15,451.39 -1098.54,810.64 -276.4,359.31 -468.32,829.09 -702.45,1243.64l-0.1 0.01zm-4997.11 401.79l-102.71 -430.82c-275.15,-1154 -476.78,-2347.93 -596.97,-3559.39 -116.6,-1175.32 -153.66,-2357.92 -103.64,-3526.24l19.32 -451.12 406.24 -194.63c1432.41,-686.22 3029.87,-1203.32 4795.38,-1548.03 1747.98,-341.29 3675.51,-516.01 5786,-520.89 2110.49,4.88 4038.13,179.65 5786.05,520.89 1765.56,344.71 3362.97,861.86 4795.43,1548.03l406.24 194.63 19.32 451.12c194.3,4533.14 -925.67,9290.43 -2919.94,13014.5 -1936.64,3616.42 -4711.71,6284.86 -7946.25,6908.26l-140.91 27.13 -140.91 -27.13c-1791.28,-345.26 -3439.26,-1314.44 -4882.08,-2724.33 -1290.79,-1261.32 -2419.83,-2879.08 -3339.37,-4716.16l-365.66 977.38 -790.46 -1395.45c-479.11,-845.86 -764.85,-1619.82 -886.33,-2324.65 -143.68,-833.49 -61.8,-1572.83 201.09,-2223.08l0.16 -0.02zm3633.51 3005.18c84.54,191.1 167.55,371.84 249.05,541.84 126.05,262.94 258.06,523.39 395.88,780.75 816.61,1524.92 1790.79,2842.13 2880.33,3833.84 946.45,861.43 1973.59,1470.33 3050.16,1744.35 792.68,-179.06 1451.89,-360.99 2208.48,-1118.68 75.64,-75.75 146.5,-153.12 212.64,-231.69l-1003.21 -2367.95c-223.44,-527.41 -807.55,-1078.69 -1736.42,-1599.69 -951.18,-533.48 -2227.53,-1007.66 -3813.87,-1368 -661.75,-150.3 -1564.42,-351.5 -2357.75,-229.46 -28.54,4.4 -56.97,9.28 -85.3,14.65l0.01 0.04zm9482.12 4793.1c30.98,-66.96 58.93,-133.7 83.99,-200 153.61,-407 192.46,-779.33 128.11,-1049.87 -48.67,-204.51 -130.93,-406.57 -260.83,-602.5l48.78 1852.32 -0.05 0.05zm1354.55 -14731.6c-4.88,-2.77 1.41,0.87 5.75,3.42l-5.75 -3.42zm1632.3 -223.39c7.05,17.63 13.89,35.32 20.51,53.23 82.75,222.95 137.98,470.27 150.9,735.44 171.46,-39.12 337.77,-72 497.45,-99.62 516.77,-89.26 971.69,-123.12 1313.09,-131.91 -200.16,-68.42 -405.54,-134.51 -616.17,-198.32 -441.62,-133.8 -896.92,-253.39 -1365.88,-358.82l0.1 0zm-640.49 12625.94c235.65,-370.38 458.22,-751.5 667.02,-1141.41 706.14,-1318.51 1291.38,-2788.09 1731.32,-4338.56 375.42,-1323.24 643.36,-2702.79 788.61,-4095.21 -67.99,-7.98 -136.14,-14.43 -203.8,-19.15 -96.96,-6.78 -292.19,-10.04 -570.49,10.15 -195.28,14.16 -427.03,40.26 -687.31,85.19 -218.56,37.82 -446.4,86.65 -673.85,149.59 -201.41,55.72 -414.17,125.39 -635.65,212.16l-4526.52 1772.72 633.48 -1113.57c-53.77,12.86 -107.54,25.39 -161.26,37.55 -718.83,162.4 -1423.24,258.87 -2050.86,344.88 -254.7,34.89 -492.79,67.5 -701.42,101.63 -182.1,29.79 -330.12,58.71 -425.07,88.06 -321.06,99.24 -595.72,200.6 -834.19,304.13 -234.95,101.95 -444.23,209.77 -635.22,322.41 -172.65,101.79 -159.42,94.14 -165.33,97.61 -297.24,172.22 -568.1,329.19 -718.94,525.24 -139.66,181.55 -270.54,439.07 -401.41,696.53 -68.69,135.11 -137.44,270.32 -242.32,456.11l-334.35 592.03c472.44,66.31 919.81,166.79 1303.92,253.99 888.61,201.85 1688.51,433.21 2398.45,687.2 135.7,48.56 268.75,98.1 399.14,148.56l-257.3 -775.86 3686.2 1819.39c428.98,211.72 809.88,446.18 1141.84,703.64 342.54,265.71 633.27,556.76 871.2,873.58 278.46,370.81 479.49,768.27 601.69,1192.58l2.55 9.01 -0.13 -0.18zm-11285.07 -4991.2l68.96 -899.68c-56.05,17.36 -111.45,35.32 -166.09,53.77 -320.84,108.41 -614.17,235.32 -872.34,381.56 -216.23,122.46 -401.41,253.01 -549.11,391.21 -128.22,120.02 -231.96,248.56 -306.79,385.57l-6.62 12.32c327.3,-123.44 664.74,-207.27 1006.25,-259.8 278.14,-42.76 554.43,-62.45 825.73,-65l0.01 0.05z"/>
   <path class="fil4" d="M87864.21 8086.22c529.47,-45.09 1054.65,-61.86 1575.71,-45.52 832.56,26.04 1649.12,147.04 2451.13,339.61 197.07,-29.19 1056.6,-289.37 1379.23,-609.34 -1284.87,-383.29 -2602.74,-623.88 -3955.38,-634.13 -764.36,-5.81 -1536.69,56.48 -2317.82,173.63l867.13 775.81 0 -0.06zm5318.82 622.58c244.98,40.04 53.55,-25.29 314.65,336.03 -21.27,-389.21 932.73,-490.78 912.49,-877l-121 -52.42 -1106.2 593.44 0.06 -0.05zm-9174.58 -6076.67c361.97,-384.87 166.41,-395.34 489.26,-649.76 1074.89,-339.5 2134.37,-601.69 3184.89,-765.66 -71.03,-16.82 -142.81,-33.48 -215.09,-49.97 -682.97,-155.13 -1615.15,-362.67 -2454.77,-233.59 -202.5,31.2 -401.69,83.56 -592.52,163.7 -88.12,41.02 -175.75,84.81 -262.56,131.74 -676.51,647.65 -172.76,620.03 -354.86,763.82 49.7,266.52 100.27,358.82 205.75,639.72l-0.1 0zm4972.15 -1568.33c78.13,-6.46 156.16,-12.32 234.19,-17.74 2123.41,-148.51 59.36,-336.63 41.4,-512.65 -561.54,-81.72 -344.93,-204.23 -971.14,-276.83 -203.58,-23.66 -406.84,53.99 -610.26,86.38 -345.09,55.13 -697.13,102.33 -1050.63,157.35 344.01,56.1 667.23,128.7 949.87,192.95 497.56,113.08 966.53,237.12 1406.58,370.59l-0.01 -0.05zm-4661.84 2664.65c1481.57,-467.5 2931.23,-792.19 4364.01,-913.79 1040.76,-88.34 2073.54,-77.54 3094.71,1.3 -129.25,-83.07 -270.05,-167.45 -424.8,-254.32 -437.39,-245.31 -941.41,-478.25 -1510.7,-693.6 -430.01,12.7 -861.43,39.39 -1293.88,82.1 -1516.35,149.59 -3050.27,522.03 -4620.5,1049.44l391.21 728.98 -0.05 -0.11zm8393.78 -821.82c890.89,102.33 -300.33,-268.86 575.97,-94.03 -32.12,-344.55 -446.67,-436.57 -478.25,-776.89 -1375.49,-228.27 -309.23,-127.24 -1732.3,-167.66l-4.02 -0.11c666.04,323.88 1213.25,674.23 1638.59,1038.64l0.01 0.05zm-7505.87 2247.44c1264.8,-336.47 2506.48,-557.85 3733.57,-622.14 1581.78,-82.96 3135.57,90.61 4653.11,406.19 -240.53,-425.51 -433.26,-773.15 -668.05,-1086.61 -1349.28,-201.14 -2723.52,-290.67 -4116.04,-193.06 -1338.75,93.87 -2693.19,367.18 -4075.67,771.58l473.09 723.99 -0.01 0.05zm8767.09 -133.7c331.2,74.23 660.67,154.75 988.23,240.48 34.4,-381.66 -57.03,-748.57 -237.17,-1078.31 -204.78,-44.17 -410.15,-86.38 -616.23,-126.59 -22.36,324.69 -76.61,638.26 -134.78,964.41l-0.05 0.01zm1465.34 369.3l104.23 29.19c-26.59,-359.85 -54.64,-714.6 -82.64,-1069.3l-146.45 -34.51c30.66,87.68 56.32,175.86 77.37,264.25 62.67,263.21 86.22,523.99 47.48,810.37l0.01 0zm-1792.91 -1420.04l-63.1 -11.12c24.09,47.48 46.45,95.06 66.63,142.59l-3.47 -131.47 -0.06 0zm-7326.92 2620.43c970.65,-190.45 1927.58,-303.91 2874.36,-318.18 1684.33,-25.5 3321.95,286.17 4912.63,771.58 238.04,-329.36 418.89,-615.42 552.42,-869.51 -1809.4,-520.41 -3676.7,-859.15 -5593.21,-793.01 -1101.85,38.2 -2216.24,207.27 -3348.81,474.01l602.66 735.11 -0.05 0zm8272.67 607.44l183.02 60.93c276.18,-198.37 581.94,-448.51 851.23,-684.43l-6.84 -106.19c-162.13,-52.36 -324.69,-103.53 -487.8,-153.45 -131.74,262.94 -308.58,553.78 -539.61,883.13l0 0.01zm735.22 253.39c121.92,43.9 243.46,88.5 364.73,133.97l-26.75 -406.14 -67.17 55.56c-89.69,73.68 -180.52,146.45 -270.76,216.61l-0.05 0z"/>
   <path class="fil5" d="M82218.09 -8642.85c2652.98,-1359.81 6212.43,-1896.65 9318.7,-1896.65 3106.27,0 6431.42,318.02 9318.8,1896.65 28.92,732.73 7.22,183.34 36.14,916.01 -1086.93,-329.63 -2600.08,-166.31 -3843.39,301.3 251.93,-1202.29 -215.95,-1928.99 -1131.21,-2360.14 -118.39,968 -420.79,1688.02 -1039.51,2114.07 -974.24,589.32 -1906.31,879.55 -2891.51,953.4 -1172.23,87.96 -2147.33,111.4 -3399.76,644.72 -1252.43,533.37 -1575.92,910.43 -2383.53,1410.65 -1586.99,447.16 -2267.68,492.95 -3447.78,1430.34 -708.15,-1718.79 -870.82,-3524.94 -537.01,-5410.36l0.06 0.01z"/>
   <path class="fil10" d="M91536.79 -10305c-1984.93,4.5 -3804.92,170.21 -5462.01,493.82 -1411.19,275.64 -2696.12,665.77 -3856.68,1168.38 -28.54,1806.8 160.99,3640.29 536.96,5410.36 -308.96,246.67 -576.35,523.61 -793.82,832.56 -533.43,-2237.46 -781.23,-4589.41 -682.97,-6883.13 2739.91,-1312.55 6150.84,-1986.02 10258.53,-1995.62 4107.74,9.55 7518.68,683.02 10258.58,1995.62 367.66,8577.83 -4103.51,17970.43 -10258.58,19156.66 -3391.62,-653.72 -6271.46,-3799.55 -8112.66,-7927.47 209.23,-323.66 459.31,-555.51 733.48,-717.53 244.44,571.74 509.34,1125.02 793.44,1655.52 1665.45,3110.17 3968.35,5409.65 6585.74,5994.14 987.96,-220.62 1781.57,-393.76 2744.95,-1358.56 963.38,-964.79 1293.23,-2169.74 1109.89,-2940.4 -183.34,-770.65 -711.13,-1517.54 -1975.28,-2141.58 216.39,652.58 219.81,1163.06 233.32,1663.44 -559.2,-1319.93 -2637.14,-2626.83 -6075.69,-3407.95 -1444.67,-328.11 -3943.82,-878.03 -4904.06,1688.78 -2241.04,-3956.3 231.04,-5954.69 3727.49,-6557.41 737.77,-641.19 1541.52,-1227.2 3076.48,-1701.53 1534.9,-474.39 6295.66,-191.92 6620.24,-3542.41 467.29,189.26 1151.01,1189.1 490.02,2351.57 1521.88,-595.99 2916.14,-599.25 3308.6,-571.63 281.55,19.8 613.41,69.83 952.15,138.2 12.97,-381.07 16.55,-761.97 10.58,-1141.57 -1160.56,-502.61 -2445.6,-892.74 -3856.68,-1168.38 -1657.1,-323.61 -3477.13,-489.32 -5462.07,-493.82l0.05 -0.06zm4729.5 15983.55c681.02,-820.3 1303.7,-1762.63 1856.23,-2794.38 1459.86,-2725.96 2415.7,-6051 2668.61,-9404.86 -343.25,-74.17 -683.89,-129.19 -963,-148.78 -202.33,-14.16 -730.23,-17.36 -1433.93,104.12 -441.08,76.29 -941.79,201.3 -1456.28,402.83l-2554.83 1000.55 588.56 -1034.57c-1215.96,654.92 -2740.56,863.76 -3965.69,1031.59 -526.1,72.06 -983.51,134.78 -1246.84,216.12 -683.89,211.34 -1201.53,445.58 -1627.96,696.91 -426.7,251.55 -822.15,451.39 -1098.54,810.64 -276.4,359.31 -468.32,829.09 -702.45,1243.64 13.24,-288.83 0,0 76.02,-991.44 -854,159.47 -1623.07,408.41 -2235.45,755.24 -513.84,291 -912.05,646.72 -1143.53,1070.33 -220.46,403.26 -300.6,900.17 -197.07,1500.88 11.94,69.29 26.21,139.83 42.97,211.61 563.98,-497.83 1230.23,-752.69 1922.75,-859.26 1096.32,-168.59 2190.47,74.61 2991.18,256.43 1728.12,392.57 3140.07,914.98 4215.5,1508.04l-236.9 -714.33 2080.54 1026.87c767.99,379.06 1352.1,829.8 1745.92,1354.16 447.59,595.99 642.17,1261.49 575.59,1998.17l0 30.44c-30.06,239.94 49.05,500.33 98.7,729.04l-0.1 0.01z"/>
   <path class="fil10" d="M88187.05 -2918.28c277.21,-1098.82 1964.21,-965.23 2677.72,-1516.24 -463.27,851.77 -807.44,1119.27 -1232.35,1323.67 -424.85,204.45 -958.5,239.88 -1445.37,192.57z"/>
   <path class="fil10" d="M100791.13 -6520.64c-3430.15,-976.08 -6351.77,1701.1 -7928.5,3219.62 3699.93,-1829.15 6746.45,-2433.72 7752.76,-1605.77l333.59 -956.49 -157.9 -657.36 0.05 0z"/>
   <path class="fil10" d="M98952.7 1944.98c0,0 -2444.14,-2831.55 -7682.38,-2132.52 4438.13,864.74 5158.81,2131.11 6646.4,3446.15l1057.31 -561.54 -21.32 -752.15 -0.01 0.06z"/>
   <path class="fil10" d="M97974.93 3342.5c0,0 -1370.71,-2244.02 -6209.33,-2802.68 2381.19,1096.16 4169.87,4345.24 4354.52,5315.24l1586.07 -1107.12 268.75 -1405.49 -0.01 0.05z"/>
   <path class="fil10" d="M100201.87 -2709.43c0,0 -1381.56,-708.53 -6425.02,647.81 3829.66,207.54 4796.79,715.63 5803.04,1543.58l370.49 -738.64 251.44 -1452.75 0.05 0z"/>
   <polygon class="fil2" points="84164.23,-8707.42 85054.36,-7739.86 86353.12,-7945.29 85707.92,-6799.76 86304.67,-5628.07 85015.84,-5887.65 84085.93,-4958.01 83934.49,-6264.05 82763.02,-6861.18 83958.31,-7408.77 "/>
   <polygon class="fil2" points="94832.42,-9328.97 94977.08,-8949.75 95373.01,-8860.22 95057.06,-8605.47 95094.22,-8201.23 94754.29,-8423.05 94381.36,-8262.71 94487.22,-8654.57 94219.56,-8959.68 94624.93,-8980.08 "/>
   <polygon class="fil2" points="90831.14,-9684.05 91240.64,-8988.11 92046.99,-8943.72 91511.66,-8339.22 91718.61,-7558.58 90978.29,-7880.94 90299.88,-7442.84 90377.63,-8246.59 89751.36,-8756.42 90539.76,-8930.87 "/>
   <polygon class="fil2" points="93124.32,-9556.81 93372.78,-9038.52 93942.02,-8958.38 93525.84,-8561.9 93625.57,-7995.75 93119.93,-8269.06 92612.27,-7999.28 92715.91,-8564.67 92302.5,-8964.07 92872.23,-9040.2 "/>
   <polygon class="fil2" points="87828.94,-9381.87 88459.76,-8603.9 89457.01,-8698.42 88912.02,-7858.04 89310.07,-6938.77 88342.45,-7197.43 87591.23,-6534.8 87538.16,-7534.98 86675.81,-8044.69 87610.65,-8404.27 "/>
   <path class="fil2" d="M86406.19 -3189.14c-854,159.47 -1623.07,408.41 -2235.45,755.24 -513.84,291 -912.05,646.72 -1143.53,1070.33 -220.46,403.26 -300.6,900.17 -197.07,1500.88 11.94,69.29 26.21,139.83 42.97,211.61 563.98,-497.83 1230.23,-752.69 1922.75,-859.26 1096.32,-168.59 2190.47,74.61 2991.18,256.43 1728.12,392.57 3140.07,914.98 4215.5,1508.04l-236.9 -714.33c2564.92,296.15 4155.38,1065.88 5083.77,1723.89 -1033.16,-942.49 -2277.5,-1807.99 -5579,-2451.24 4284.14,-571.74 6699.3,1218.13 7436.96,1889.11 324.2,-711.13 616.07,-1453.89 872.61,-2219.61 -1006.25,-827.95 -1973.43,-1336.04 -5803.04,-1543.58 5043.45,-1356.33 6425.02,-647.81 6424.96,-647.81 169.56,-722.31 308.14,-1456.88 413.62,-2197.36 -1006.25,-827.95 -4052.83,-223.39 -7752.76,1605.77 789.05,-759.96 1914.94,-1810.11 3272.85,-2547.28l-1752.38 686.28 588.56 -1034.57c-1215.96,654.92 -2740.56,863.76 -3965.69,1031.59 -526.1,72.06 -983.51,134.78 -1246.84,216.12 -683.89,211.34 -1201.53,445.58 -1627.96,696.91 -426.7,251.55 -822.15,451.39 -1098.54,810.64 -276.4,359.31 -468.32,829.09 -702.45,1243.64 13.24,-288.83 0,0 76.02,-991.44l-0.14 0zm3226.24 78.3c-424.85,204.45 -958.5,239.88 -1445.37,192.57 277.21,-1098.82 1964.21,-965.23 2677.72,-1516.24 -463.27,851.77 -807.44,1119.27 -1232.35,1323.67z"/>
   <path class="fil7" d="M86395.23 -3176.93c-430.44,80.9 -839.18,184.65 -1216.94,312.27 -366.15,123.71 -703.21,269.89 -1002.61,439.5 -261.8,148.24 -493.44,313.3 -688.12,495.5 -186.33,174.39 -338.85,364.57 -451.6,570.92 -111.99,204.83 -187.58,434.02 -221.05,688.88 -32.07,244.44 -25.45,512.59 25.07,805.54 6.08,35.21 12.7,70.43 19.8,105.48 5.91,29.08 12.32,58.87 19.32,89.37 279.44,-244.22 583.56,-429.47 903.26,-567.02 324.42,-139.61 664.95,-230.17 1012.05,-283.56 549.16,-84.43 1097.73,-65.76 1609.13,-3.2 510.97,62.45 985.03,168.86 1385.74,259.8 847.38,192.51 1618.68,416.17 2311.52,664.03 711.51,254.53 1340.49,534.62 1884.34,832.78l-233.86 -705.05 15.52 1.79c1129.04,130.33 2069.53,352.47 2847.88,616.39 912.92,309.55 1603,676.78 2113.04,1021.12 -486.33,-433.32 -1032.51,-849 -1821.56,-1232.57 -852.21,-414.22 -1987.86,-791.16 -3637.63,-1112.6l-59.69 -11.67 60.28 -8.03c1649.55,-220.13 3022.27,-90.45 4129.12,190.67 1757.91,446.56 2845.33,1275.27 3305.73,1691.77 159.69,-350.9 311.61,-709.77 455.4,-1075.48 144.87,-368.59 281.34,-743.69 408.96,-1124.21 -500.38,-411.24 -992.41,-743.2 -1834.04,-998.27 -845.48,-256.22 -2043.97,-435 -3957.93,-538.69l-62.4 -3.36 60.34 -16.22c3633.13,-977.06 5367.82,-883.02 6054.37,-753.72 133.8,25.18 228.05,51.76 288.83,72.06 37.28,12.43 58.28,23.33 70.05,32.01 -20.56,-2.28 -58.11,-7.05 -76.34,-13.13 -60.07,-20.08 -153.34,-46.34 -286.22,-71.35 -681.12,-128.22 -2397.09,-221.38 -5984.92,737.28 1879.13,104.29 3062.21,282.26 3899.98,536.09 847.92,256.97 1342.17,591.54 1846.19,1006.25l5.32 4.34 -2.17 6.51c-128.49,383.56 -265.76,761.16 -411.45,1131.64 -145.42,369.89 -299.41,733.21 -461.53,1088.94l-5.64 12.43 -10.15 -9.17c-453.23,-412.27 -1540.76,-1247.54 -3307.36,-1696.33 -1091.17,-277.16 -2441.42,-406.79 -4061.02,-198.21 1619.22,319.26 2739.36,692.57 3582.62,1102.45 854.05,415.14 1424.1,867.67 1941.25,1339.4l119.81 109.28 -132.34 -93.76c-519.32,-368.04 -1246.13,-771.2 -2235.34,-1106.63 -773.53,-262.29 -1707.61,-483.24 -2828.24,-613.62l239.99 723.61 -22.25 -12.26c-547.92,-302.17 -1183.41,-586.01 -1903.71,-843.69 -692.3,-247.7 -1462.85,-471.14 -2309.19,-663.38 -400.06,-90.83 -873.42,-197.02 -1383.79,-259.42 -509.88,-62.34 -1056.6,-80.96 -1603.76,3.15 -345.42,53.12 -684.33,143.3 -1007.06,282.21 -322.74,138.91 -629.41,326.54 -910.53,574.67l-12.53 11.07 -3.8 -16.22c-8.19,-35 -15.9,-70.48 -23.17,-106.19 -7.33,-36.08 -13.94,-71.41 -19.91,-106.02 -50.79,-294.96 -57.52,-565.06 -25.12,-811.51 33.8,-257.35 110.15,-488.88 223.28,-695.83 113.78,-208.2 267.61,-400.06 455.51,-575.91 195.93,-183.34 428.82,-349.32 691.87,-498.32 300.55,-170.21 638.75,-316.93 1006.14,-441.08 382.31,-129.19 796.32,-233.91 1232.4,-315.36l12.75 -2.39 -73.52 959.26c69.51,-125.45 135.98,-256.16 202.39,-386.87 146.94,-289.1 293.87,-578.14 478.73,-818.51 242.16,-314.76 574.39,-507.28 939.02,-718.56 54.31,-31.47 109.28,-63.32 162.35,-94.63 213.51,-125.88 449.92,-247.48 718.51,-364.03 268.59,-116.55 569.29,-228.11 911.57,-333.86 132.12,-40.8 312.75,-76.94 526.21,-111.83 213.13,-34.89 459.09,-68.58 722.25,-104.61 612.32,-83.89 1299.52,-178.03 1985.42,-332.99 685.46,-154.86 1369.79,-370.54 1976.85,-697.51l30.55 -16.44 -591.81 1040.27 1875.6 -734.57 -141.08 76.61c-678.25,368.21 -1298.71,814.71 -1848.2,1264.09 -528.44,432.18 -991,866.8 -1376.3,1237.18 1816.46,-893.44 3473.44,-1490.57 4805.8,-1766.54 1365.61,-282.86 2391.39,-228.22 2900.13,190.34l4.34 3.58 -0.81 5.53c-52.63,369.4 -113.51,737.45 -182.37,1103.37 -69.24,367.77 -146.45,733.05 -231.42,1094.86l-9.71 -2.28 0 -9.98 -7.76 -0.76c84.21,-359.36 160.77,-721.44 229.25,-1085.52 68.42,-363.49 128.98,-729.42 181.39,-1096.86 -505.38,-411.34 -1523.29,-463.54 -2879.14,-182.75 -1344.78,278.52 -3020.97,884.76 -4858.54,1793.23l-57.68 28.54 46.39 -44.66c394.74,-380.2 873.75,-832.94 1423.67,-1282.7 514.38,-420.68 1091.11,-838.97 1719.39,-1193.12l-1638.27 641.62 585.46 -1029.09c-601.2,318.83 -1275.81,530.44 -1951.51,683.13 -686.66,155.13 -1374.35,249.32 -1987.16,333.26 -262.94,35.97 -508.79,69.72 -721.71,104.56 -212.59,34.78 -392.41,70.7 -523.55,111.23 -341.62,105.59 -641.68,216.88 -909.5,333.05 -267.77,116.22 -503.42,237.44 -716.34,362.94 -56.32,33.21 -109.77,64.19 -162.45,94.68 -362.84,210.26 -693.5,401.85 -933.27,713.46 -183.67,238.74 -330.23,527.03 -476.73,815.31 -73.25,144.11 -146.5,288.23 -224.96,427.13l-22.03 39.07 78.41 -1023.18 0.25 -0.22zm13792.26 456.05c2.17,1.63 4.07,3.15 5.64,4.61l0.92 -3.91 -6.57 -0.71 0.01 0.01zm5.64 4.61c2.5,2.28 4.34,4.34 5.64,6.19l2.98 0.71 0 5.26c0.81,3.09 0,4.72 0,4.72l-12.59 0 3.96 -16.87 0.01 -0.01zm5.64 6.19c1.68,2.33 2.55,4.34 2.98,5.97l-2.98 -5.97zm-10562.06 -391.76c-199.08,95.77 -421.82,154.64 -652.37,185.35 -263.7,35.11 -537.72,33.42 -798.27,8.14l-11.56 -1.14 2.82 -11.23c175.96,-697.56 912.49,-901.64 1612.77,-1095.61 409.17,-113.35 805.92,-223.28 1068.59,-426.1l37.44 -28.92 -22.63 41.56c-232.12,426.75 -434.51,707.33 -632.24,906.84 -197.99,199.84 -391.16,318.34 -604.56,421.06l0.01 0.05zm-654.91 165.6c228.6,-30.44 449.27,-88.77 646.34,-183.56 211.5,-101.74 402.88,-219.21 599.03,-417.15 190.24,-191.97 385.03,-459.85 607.11,-862.62 -264.95,188.06 -646.23,293.71 -1038.8,402.45 -690.94,191.43 -1417.43,392.79 -1595.67,1070 255.73,24.09 523.93,25.18 782.05,-9.17l-0.06 0.05z"/>
   <path class="fil2" d="M93154.54 4851.19c-1377.87,-259.63 -2784.67,-394.25 -4214.31,-319.21 -633.54,33.21 -1270.93,108.25 -1913.42,219.43 199.08,261.1 403.86,510.86 613.95,748.3 477.49,-61.91 952.26,-102.33 1424.7,-118.72 1543.48,-53.28 3055.1,156.11 4530.26,511.45l-441.13 -1041.25 -0.05 0z"/>
   <path class="fil2" d="M88809.2 3658.56c1269.08,-88.99 2523.03,-22.46 3756.74,142.22 -307.54,-339.23 -756.38,-679.98 -1342.39,-1008.69 -7.87,-4.4 -15.74,-8.79 -23.6,-13.19 -832.51,-42.32 -1672.18,-35.92 -2517.11,35.76 -880.15,74.72 -1766.7,226.05 -2663.07,440.05 149.97,251.77 304.45,496.75 463.22,734.3 782.16,-163.32 1556.82,-276.56 2326.28,-330.5l-0.07 0.05z"/>
   <path class="fil2" d="M85593.27 2497.83c995.56,-262.83 1978.8,-451.44 2954.83,-547.7 198.81,-19.64 397.45,-35.87 595.83,-48.94 -529.09,-174.55 -1107.5,-334.67 -1734.25,-477.11 -126.15,-28.65 -261.04,-59.14 -402.28,-88.88 -591.43,114.98 -1186.12,259.42 -1785.2,429.68 118.45,246.67 242.22,491.16 371.08,732.94l-0.01 0.01z"/>
   <path class="fil2" d="M93791.28 6949.91c-1491.71,-431.42 -3024.28,-701.74 -4597.71,-677.92 -255.29,3.85 -511.34,14.92 -768.27,32.72 22.08,20.46 44.28,40.8 66.47,61.04 314.98,286.65 638.86,545.37 970.55,773.09 1164.15,23.17 2302.41,215.19 3416.04,519.97 284.97,-155.29 570.81,-365.71 872.06,-667.4 13.78,-13.78 27.35,-27.62 40.8,-41.51l0.06 0.01z"/>
   <path class="fil2" d="M94425.63 5125.8l23.06 876.62c30.98,-66.96 58.93,-133.7 83.99,-200 82.2,-217.74 131.53,-425.61 149.76,-613.24 -85.46,-21.49 -171.08,-42.65 -256.81,-63.38z"/>
  </g>
 </g>
</svg>
