<?xml version="1.0" encoding="UTF-8"?>
<!DOCTYPE svg PUBLIC "-//W3C//DTD SVG 1.1//EN" "http://www.w3.org/Graphics/SVG/1.1/DTD/svg11.dtd">
<!-- Creator: CorelDRAW -->
<svg xmlns="http://www.w3.org/2000/svg" xml:space="preserve" width="1080px" height="960px" version="1.1" style="shape-rendering:geometricPrecision; text-rendering:geometricPrecision; image-rendering:optimizeQuality; fill-rule:evenodd; clip-rule:evenodd"
viewBox="0 0 1080 960"
 xmlns:xlink="http://www.w3.org/1999/xlink"
 xmlns:xodm="http://www.corel.com/coreldraw/odm/2003">
 <defs>
  <style type="text/css">
   <![CDATA[
    .fil4 {fill:#1600E0}
    .fil5 {fill:#2B2A29}
    .fil3 {fill:#E31E24}
    .fil1 {fill:#FEFEFE}
    .fil12 {fill:white}
    .fil14 {fill:#003399;fill-rule:nonzero}
    .fil6 {fill:#2B2A29;fill-rule:nonzero}
    .fil9 {fill:url(#id0)}
    .fil8 {fill:url(#id1)}
    .fil13 {fill:url(#id2)}
    .fil11 {fill:url(#id3)}
    .fil7 {fill:url(#id4)}
    .fil10 {fill:url(#id5)}
    .fil0 {fill:url(#id6);fill-rule:nonzero}
    .fil2 {fill:url(#id7);fill-rule:nonzero}
   ]]>
  </style>
  <linearGradient id="id0" gradientUnits="userSpaceOnUse" x1="444.89" y1="397.74" x2="658.59" y2="619.78">
   <stop offset="0" style="stop-opacity:1; stop-color:#00FF80"/>
   <stop offset="1" style="stop-opacity:1; stop-color:#328700"/>
  </linearGradient>
  <linearGradient id="id1" gradientUnits="userSpaceOnUse" x1="471.38" y1="505.16" x2="725.44" y2="387.08">
   <stop offset="0" style="stop-opacity:1; stop-color:#00A2FF"/>
   <stop offset="0.470588" style="stop-opacity:1; stop-color:#0080FF"/>
   <stop offset="1" style="stop-opacity:1; stop-color:#003F73"/>
  </linearGradient>
  <linearGradient id="id2" gradientUnits="userSpaceOnUse" x1="401.53" y1="347.24" x2="529.83" y2="347.24">
   <stop offset="0" style="stop-opacity:1; stop-color:#00A2FF"/>
   <stop offset="0.470588" style="stop-opacity:1; stop-color:#0080FF"/>
   <stop offset="1" style="stop-opacity:1; stop-color:#004F8F"/>
  </linearGradient>
  <linearGradient id="id3" gradientUnits="userSpaceOnUse" xlink:href="#id0" x1="418.95" y1="347.26" x2="607.52" y2="347.26">
  </linearGradient>
  <linearGradient id="id4" gradientUnits="userSpaceOnUse" x1="634.74" y1="629.81" x2="472.57" y2="242.41">
   <stop offset="0" style="stop-opacity:1; stop-color:#003B6B"/>
   <stop offset="0.529412" style="stop-opacity:1; stop-color:#024B94"/>
   <stop offset="1" style="stop-opacity:1; stop-color:#00A2FF"/>
  </linearGradient>
  <linearGradient id="id5" gradientUnits="userSpaceOnUse" xlink:href="#id0" x1="392.81" y1="537.7" x2="630.72" y2="537.7">
  </linearGradient>
  <linearGradient id="id6" gradientUnits="userSpaceOnUse" x1="12385.07" y1="-897.58" x2="12385.07" y2="896.2">
   <stop offset="0" style="stop-opacity:1; stop-color:#1600E0"/>
   <stop offset="1" style="stop-opacity:1; stop-color:#E31E24"/>
  </linearGradient>
  <linearGradient id="id7" gradientUnits="userSpaceOnUse" xlink:href="#id6" x1="9237.78" y1="-897.58" x2="9237.78" y2="896.2">
  </linearGradient>
 </defs>
 <g id="Слой_x0020_1">
  <metadata id="CorelCorpID_0Corel-Layer"/>
  <g id="_3065279188608">
   <path class="fil0" d="M12112.89 -888.65c21.15,-5.68 42.61,-8.56 64.19,-8.56l1169.35 0 0 0c0,285.16 -316.11,516.33 -499.46,516.33l-511.98 0c-48.04,0 -90.07,50.16 -102.5,122.34l669.37 0c0,285.13 -316.11,516.33 -499.47,516.33l-177.36 0c-48.04,0 -90.08,50.16 -102.51,122.3l334.75 0c0,285.15 -316.11,516.34 -499.47,516.34l-176.4 0 0 -0.05 -357.6 0.03c130.78,-131.19 246.95,-293.39 344.91,-476.3 202.14,-377.49 327.91,-845.31 344.18,-1308.76l0 0z"/>
   <path class="fil1" d="M12102.15 -928.85c11.86,-3.19 24.32,-5.66 37.35,-7.39 13.12,-1.75 25.66,-2.64 37.58,-2.64l1211.03 0 0 41.67c0,140.45 -69.36,268.01 -163.65,365.49 -114.03,117.87 -266.8,192.51 -377.48,192.51l-511.99 0c-11.11,0 -22.56,7.03 -32.7,19.13 -4.78,5.71 -9.17,12.37 -13.05,19.87l654.29 0 0 41.67c0,140.44 -69.36,268 -163.66,365.49 -114.02,117.86 -266.79,192.5 -377.48,192.5l-177.36 0c-11.11,0 -22.57,7.04 -32.7,19.13 -4.78,5.7 -9.17,12.35 -13.05,19.85l319.67 0 0 41.66c0,140.46 -69.37,268.02 -163.66,365.5 -114.02,117.87 -266.8,192.51 -377.48,192.51l-218.07 0 0 -0.21 -415.98 0.04 70.58 -70.81c63.09,-63.29 122.89,-134.26 178.96,-211.7 57.43,-79.3 110.51,-164.67 158.79,-254.84 100.14,-187 181.32,-396.82 239.37,-617.55 57.32,-217.97 91.97,-446.12 99.93,-672.97l1.09 -30.93 29.67 -7.97 0 -0.01zm10.74 40.2c21.15,-5.68 42.61,-8.56 64.19,-8.56l1169.35 0c0,285.16 -316.11,516.33 -499.46,516.33l-511.98 0c-48.04,0 -90.07,50.16 -102.5,122.34l669.37 0c0,285.13 -316.11,516.33 -499.47,516.33l-177.36 0c-48.04,0 -90.08,50.16 -102.51,122.3l334.75 0c0,285.15 -316.11,516.34 -499.47,516.34l-176.4 0 0 -0.05 -357.6 0.03c130.78,-131.19 246.95,-293.39 344.91,-476.3 202.14,-377.49 327.91,-845.31 344.18,-1308.76l0 0z"/>
   <path class="fil2" d="M9510.04 -888.65c-21.15,-5.68 -42.61,-8.56 -64.19,-8.56l-1169.36 0 0 0c0,285.16 316.11,516.33 499.46,516.33l511.99 0c48.03,0 90.07,50.16 102.49,122.34l-669.36 0c0,285.13 316.1,516.33 499.47,516.33l177.36 0c48.03,0 90.07,50.16 102.5,122.3l-334.75 0c0,285.15 316.11,516.34 499.48,516.34l176.39 0 0 -0.05 357.61 0.03c-130.78,-131.19 -246.96,-293.39 -344.92,-476.3 -20.33,-37.97 -39.88,-76.88 -58.64,-116.58 -10.24,18.84 -15.59,35.84 -29.22,74.48 -167.2,-250.36 -166.02,-406.31 -148.25,-558.94 -62.12,-228.4 -99.68,-468.65 -108.08,-707.72l0.02 0z"/>
   <path class="fil1" d="M9483.43 -936.25c13.02,1.74 25.48,4.2 37.35,7.4l29.68 7.97 1.08 30.93c4.08,116.19 15.32,233.46 33.14,350.19 17.98,117.72 42.72,234.24 73.64,347.92l2.07 7.61 -0.93 8.01c-8.5,72.89 -13.08,146.31 4.1,229.8 13.94,67.73 42.21,143.3 94.24,232.55l1.33 -2.47 39.1 -71.86 34.95 73.99c9.4,19.9 18.87,39.33 28.39,58.25 10.26,20.39 20.03,39.27 29.28,56.53 48.28,90.16 101.36,175.54 158.78,254.84 56.08,77.44 115.88,148.42 178.97,211.7l70.59 70.81 -415.99 -0.04 0 0.21 -218.07 0c-110.69,0 -263.46,-74.65 -377.48,-192.51 -94.29,-97.48 -163.65,-225.04 -163.65,-365.5l0 -41.67 319.66 0c-3.89,-7.48 -8.26,-14.14 -13.04,-19.84 -10.14,-12.1 -21.6,-19.13 -32.71,-19.13l-177.36 0c-110.69,0 -263.46,-74.64 -377.48,-192.51 -94.29,-97.47 -163.66,-225.03 -163.66,-365.48l0 -41.67 654.29 0c-3.89,-7.5 -8.27,-14.16 -13.05,-19.87 -10.13,-12.1 -21.59,-19.13 -32.7,-19.13l-511.98 0c-110.69,0 -263.46,-74.64 -377.48,-192.51 -94.29,-97.48 -163.65,-225.03 -163.65,-365.49l0 -41.67 1211.02 0c11.92,0 24.46,0.89 37.58,2.64l-0.01 0zm26.61 47.6c-21.15,-5.69 -42.61,-8.56 -64.19,-8.56l-1169.36 0c0,285.15 316.11,516.32 499.46,516.32l511.99 0c48.03,0 90.07,50.16 102.49,122.34l-669.36 0c0,285.14 316.1,516.33 499.47,516.33l177.36 0c48.03,0 90.07,50.16 102.5,122.3l-334.75 0c0,285.15 316.11,516.34 499.48,516.34l176.39 0 0 -0.04 357.61 0.03c-130.78,-131.19 -246.96,-293.4 -344.92,-476.31 -20.33,-37.97 -39.88,-76.88 -58.64,-116.58 -10.24,18.84 -15.59,35.84 -29.22,74.49 -167.2,-250.37 -166.02,-406.31 -148.25,-558.95 -62.12,-228.4 -99.68,-468.64 -108.08,-707.71l0.02 0z"/>
   <path class="fil1" d="M10811.46 -1128.73c-114.19,0.26 -223.7,5.15 -328.57,14.63 -357.38,32.31 -708.8,16.89 -670.51,402.78 8.07,81.31 19.82,162.75 35.03,243.67 91.14,-50.49 200.02,-86.16 317.87,-108.49 41.68,-35.24 86.11,-69.12 140.47,-101.17 62.64,-36.92 137.81,-71.05 236.06,-101.41 46.76,-14.46 108.67,-22.93 179.89,-32.69 203.83,-27.92 499.47,-68.43 537.3,-289.61 -39.17,-5.09 -78.82,-9.44 -118.97,-13.07 -104.88,-9.48 -214.39,-14.38 -328.58,-14.63l0.01 -0.01zm1211.64 32.31c43.43,1013.13 -484.67,2122.5 -1211.64,2262.6 -400.59,-77.21 -740.73,-448.77 -958.19,-936.32 24.71,-38.22 54.24,-65.61 86.63,-84.74 28.87,67.52 60.16,132.87 93.71,195.53 196.71,367.34 468.7,638.94 777.85,707.97 116.68,-26.06 210.42,-46.51 324.2,-160.46 113.79,-113.95 152.75,-256.27 131.09,-347.29 -21.65,-91.02 -83.99,-179.24 -233.3,-252.94 25.56,77.07 25.96,137.37 27.56,196.47 -66.05,-155.9 -311.48,-310.26 -717.6,-402.52 -170.63,-38.75 -465.81,-103.7 -579.22,199.46 -264.7,-467.28 27.28,-703.31 440.25,-774.5 87.14,-75.73 182.07,-144.94 363.37,-200.96 181.28,-56.03 743.58,-22.67 781.92,-418.4 55.19,22.35 135.94,140.45 57.87,277.75 179.75,-70.4 344.43,-70.78 390.78,-67.52 33.26,2.34 72.45,8.25 112.46,16.32 1.53,-45.01 1.96,-89.99 1.25,-134.83 -137.07,-59.36 -288.85,-105.44 -455.51,-138 -195.72,-38.22 -410.69,-57.79 -645.13,-58.32 -234.44,0.53 -449.4,20.1 -645.12,58.32 -561,109.59 -514.12,202.47 -392.1,777.02 -36.49,29.14 -68.07,61.85 -93.76,98.34 -63,-264.27 -92.27,-542.06 -80.66,-812.97 323.61,-155.03 726.48,-234.57 1211.64,-235.71 485.17,1.13 888.03,80.67 1211.64,235.71l0.01 -0.01zm-1826.6 836.85c1.56,-34.11 0,0 8.98,-117.09 -100.87,18.83 -191.7,48.23 -264.03,89.2 -60.69,34.37 -107.72,76.38 -135.07,126.41 -26.03,47.63 -35.5,106.32 -23.27,177.27 1.41,8.19 3.09,16.52 5.07,25 66.62,-58.8 145.31,-88.9 227.1,-101.49 129.49,-19.91 258.72,8.81 353.29,30.29 204.11,46.36 370.88,108.07 497.9,178.11l-27.98 -84.37 245.73 121.29c90.71,44.77 159.7,98 206.21,159.94 52.87,70.39 75.85,148.99 67.98,236l0 3.6c-3.55,28.34 5.8,59.09 11.66,86.1 80.44,-96.88 153.98,-208.18 219.24,-330.04 172.43,-321.97 285.32,-714.69 315.19,-1110.81 -40.54,-8.76 -80.77,-15.26 -113.74,-17.58 -23.9,-1.67 -86.25,-2.05 -169.36,12.3 -52.1,9.01 -111.24,23.78 -172,47.58l-301.75 118.17 69.51 -122.19c-143.62,77.35 -323.69,102.02 -468.39,121.84 -62.14,8.51 -116.16,15.92 -147.26,25.53 -80.78,24.96 -141.92,52.63 -192.28,82.31 -50.4,29.71 -97.11,53.32 -129.75,95.75 -32.65,42.43 -55.32,97.92 -82.97,146.88l-0.01 0zm-590.21 47.46l-12.13 -50.88c-32.5,-136.3 -56.32,-277.32 -70.51,-420.41 -13.77,-138.81 -18.15,-278.49 -12.24,-416.48l2.28 -53.28 47.98 -22.99c169.18,-81.05 357.86,-142.13 566.39,-182.84 206.45,-40.31 434.11,-60.95 683.38,-61.52 249.27,0.57 476.95,21.22 683.4,61.52 208.53,40.71 397.2,101.79 566.39,182.84l47.98 22.99 2.28 53.28c22.95,535.41 -109.33,1097.3 -344.88,1537.15 -228.73,427.13 -556.5,742.31 -938.53,815.94l-16.64 3.2 -16.65 -3.2c-211.57,-40.78 -406.21,-155.25 -576.62,-321.78 -152.46,-148.97 -285.81,-340.05 -394.42,-557.02l-43.19 115.43 -93.36 -164.81c-56.58,-99.91 -90.33,-191.32 -104.68,-274.57 -16.97,-98.44 -7.3,-185.77 23.75,-262.57l0.02 0zm429.15 354.94c9.99,22.57 19.79,43.92 29.42,64 14.89,31.06 30.48,61.82 46.76,92.22 96.45,180.1 211.51,335.68 340.19,452.81 111.79,101.75 233.11,173.66 360.26,206.03 93.62,-21.15 171.48,-42.64 260.84,-132.13 8.94,-8.95 17.31,-18.09 25.12,-27.36l-118.49 -279.68c-26.39,-62.3 -95.38,-127.41 -205.09,-188.94 -112.34,-63.01 -263.09,-119.02 -450.46,-161.58 -78.16,-17.75 -184.77,-41.52 -278.47,-27.1 -3.37,0.52 -6.73,1.09 -10.08,1.73l0 0zm1119.94 566.12c3.66,-7.91 6.96,-15.79 9.92,-23.62 18.14,-48.07 22.73,-92.05 15.13,-124 -5.75,-24.16 -15.46,-48.02 -30.8,-71.17l5.76 218.78 -0.01 0.01zm159.99 -1739.96c-0.58,-0.32 0.16,0.1 0.68,0.41l-0.68 -0.41zm192.79 -26.38c0.83,2.08 1.64,4.17 2.42,6.28 9.78,26.34 16.3,55.55 17.83,86.87 20.25,-4.62 39.89,-8.51 58.75,-11.77 61.04,-10.54 114.77,-14.54 155.09,-15.58 -23.64,-8.08 -47.9,-15.89 -72.78,-23.42 -52.16,-15.81 -105.93,-29.93 -161.32,-42.38l0.01 0zm-75.65 1491.25c27.83,-43.74 54.12,-88.76 78.78,-134.81 83.41,-155.73 152.53,-329.3 204.49,-512.43 44.34,-156.29 75.99,-319.23 93.14,-483.69 -8.03,-0.94 -16.08,-1.7 -24.07,-2.26 -11.45,-0.8 -34.51,-1.18 -67.38,1.2 -23.06,1.67 -50.44,4.76 -81.18,10.06 -25.81,4.47 -52.72,10.24 -79.59,17.67 -23.78,6.58 -48.91,14.81 -75.07,25.06l-534.63 209.38 74.82 -131.53c-6.35,1.52 -12.7,3 -19.05,4.44 -84.9,19.18 -168.1,30.57 -242.23,40.73 -30.08,4.12 -58.2,7.97 -82.84,12 -21.51,3.52 -38.99,6.94 -50.21,10.41 -37.92,11.72 -70.36,23.69 -98.52,35.92 -27.75,12.04 -52.47,24.77 -75.03,38.08 -20.39,12.02 -18.83,11.12 -19.53,11.53 -35.1,20.34 -67.09,38.88 -84.91,62.03 -16.5,21.44 -31.95,51.86 -47.41,82.27 -8.11,15.96 -16.23,31.93 -28.62,53.87l-39.49 69.93c55.8,7.83 108.64,19.7 154,29.99 104.96,23.84 199.44,51.17 283.29,81.17 16.02,5.74 31.74,11.59 47.14,17.55l-30.39 -91.64 435.38 214.89c50.67,25 95.65,52.7 134.86,83.11 40.46,31.38 74.8,65.75 102.9,103.17 32.89,43.8 56.63,90.75 71.07,140.86l0.3 1.06 -0.02 -0.02zm-1332.88 -589.51l8.14 -106.26c-6.62,2.05 -13.16,4.17 -19.62,6.35 -37.89,12.8 -72.54,27.79 -103.03,45.07 -25.54,14.46 -47.41,29.88 -64.85,46.2 -15.15,14.18 -27.4,29.36 -36.24,45.54l-0.78 1.46c38.66,-14.58 78.51,-24.48 118.85,-30.69 32.85,-5.05 65.48,-7.37 97.52,-7.68l0.01 0.01z"/>
   <path class="fil3" d="M10377.69 955.07c62.53,-5.33 124.56,-7.31 186.1,-5.38 98.34,3.08 194.78,17.37 289.51,40.11 23.27,-3.45 124.79,-34.18 162.9,-71.97 -151.76,-45.27 -307.41,-73.68 -467.17,-74.89 -90.28,-0.69 -181.5,6.67 -273.76,20.5l102.42 91.63 0 0zm628.2 73.53c28.94,4.73 6.33,-2.99 37.17,39.69 -2.51,-45.97 110.16,-57.97 107.77,-103.58l-14.29 -6.19 -130.65 70.09 0 -0.01zm-1083.61 -717.72c42.75,-45.46 19.65,-46.69 57.79,-76.74 126.95,-40.1 252.09,-71.07 376.17,-90.43 -8.39,-1.99 -16.87,-3.96 -25.41,-5.91 -80.67,-18.32 -190.77,-42.83 -289.93,-27.59 -23.92,3.69 -47.45,9.87 -69.99,19.34 -10.4,4.84 -20.75,10.02 -31.01,15.56 -79.9,76.49 -20.4,73.23 -41.91,90.21 5.87,31.48 11.84,42.38 24.3,75.56l-0.01 0zm587.26 -185.23c9.23,-0.77 18.45,-1.46 27.66,-2.1 250.8,-17.54 7.01,-39.76 4.89,-60.55 -66.32,-9.65 -40.74,-24.12 -114.7,-32.7 -24.04,-2.79 -48.05,6.38 -72.08,10.21 -40.76,6.51 -82.34,12.08 -124.09,18.58 40.63,6.63 78.81,15.2 112.19,22.79 58.77,13.36 114.16,28.01 166.13,43.77l0 0zm-550.61 314.72c174.99,-55.22 346.21,-93.57 515.44,-107.93 122.92,-10.43 244.9,-9.16 365.51,0.15 -15.26,-9.81 -31.89,-19.77 -50.17,-30.03 -51.66,-28.98 -111.19,-56.49 -178.43,-81.92 -50.79,1.5 -101.74,4.65 -152.82,9.69 -179.1,17.67 -360.27,61.66 -545.73,123.95l46.21 86.1 -0.01 -0.01zm991.39 -97.07c105.23,12.09 -35.47,-31.75 68.03,-11.1 -3.79,-40.7 -52.75,-51.57 -56.48,-91.76 -162.46,-26.96 -36.53,-15.03 -204.61,-19.8l-0.47 -0.02c78.66,38.26 143.3,79.64 193.53,122.68l0 0zm-886.52 265.45c149.39,-39.74 296.04,-65.89 440.98,-73.48 186.82,-9.8 370.34,10.7 549.58,47.97 -28.41,-50.25 -51.18,-91.31 -78.91,-128.34 -159.36,-23.75 -321.67,-34.33 -486.14,-22.8 -158.12,11.09 -318.1,43.37 -481.38,91.13l55.87 85.51 0 0.01zm1035.49 -15.79c39.12,8.77 78.03,18.28 116.72,28.4 4.06,-45.08 -6.74,-88.41 -28.01,-127.36 -24.19,-5.22 -48.45,-10.2 -72.79,-14.95 -2.64,38.35 -9.05,75.39 -15.92,113.91l0 0zm173.07 43.62l12.31 3.44c-3.14,-42.5 -6.45,-84.4 -9.76,-126.29l-17.3 -4.08c3.62,10.36 6.65,20.77 9.14,31.21 7.4,31.09 10.18,61.89 5.61,95.72l0 0zm-211.76 -167.73l-7.45 -1.31c2.84,5.61 5.48,11.23 7.86,16.84l-0.41 -15.53 0 0zm-865.39 309.51c114.65,-22.5 227.67,-35.9 339.49,-37.59 198.94,-3.01 392.36,33.8 580.24,91.14 28.11,-38.9 49.47,-72.69 65.24,-102.7 -213.71,-61.47 -434.25,-101.48 -660.61,-93.66 -130.14,4.51 -261.76,24.48 -395.53,55.98l71.18 86.83 -0.01 0zm977.09 71.74l21.62 7.2c32.62,-23.43 68.73,-52.98 100.54,-80.84l-0.81 -12.54c-19.15,-6.19 -38.35,-12.23 -57.62,-18.13 -15.56,31.06 -36.44,65.41 -63.73,104.31l0 0zm86.84 29.93c14.4,5.18 28.75,10.45 43.08,15.82l-3.16 -47.97 -7.94 6.56c-10.59,8.71 -21.32,17.3 -31.98,25.59l0 0z"/>
   <path class="fil4" d="M9710.82 -1020.81c313.34,-160.61 733.75,-224.02 1100.64,-224.02 366.88,0 759.61,37.57 1100.64,224.02 3.42,86.54 0.86,21.65 4.27,108.19 -128.38,-38.93 -307.09,-19.64 -453.94,35.59 29.75,-142.01 -25.51,-227.84 -133.61,-278.76 -13.98,114.33 -49.7,199.37 -122.78,249.69 -115.07,69.61 -225.15,103.89 -341.52,112.61 -138.45,10.39 -253.62,13.16 -401.54,76.15 -147.93,62.99 -186.14,107.53 -281.52,166.61 -187.44,52.81 -267.84,58.22 -407.22,168.94 -83.64,-203.01 -102.85,-416.33 -63.43,-639.02l0.01 0z"/>
   <path class="fil5" d="M10811.46 -1217.13c-234.45,0.53 -449.41,20.1 -645.13,58.33 -166.67,32.55 -318.44,78.63 -455.51,137.99 -3.37,213.41 19.02,429.96 63.42,639.02 -36.49,29.14 -68.07,61.85 -93.76,98.34 -63,-264.27 -92.27,-542.06 -80.66,-812.97 323.61,-155.03 726.48,-234.57 1211.64,-235.7 485.16,1.12 888.03,80.67 1211.64,235.7 43.43,1013.13 -484.66,2122.5 -1211.64,2262.6 -400.59,-77.21 -740.73,-448.77 -958.19,-936.32 24.71,-38.22 54.25,-65.61 86.63,-84.74 28.87,67.52 60.16,132.87 93.71,195.53 196.71,367.34 468.71,638.94 777.85,707.97 116.69,-26.06 210.42,-46.51 324.2,-160.46 113.79,-113.95 152.75,-256.27 131.09,-347.29 -21.65,-91.02 -83.99,-179.24 -233.3,-252.94 25.56,77.07 25.96,137.37 27.56,196.47 -66.05,-155.9 -311.47,-310.26 -717.6,-402.52 -170.63,-38.75 -465.81,-103.7 -579.22,199.46 -264.69,-467.28 27.28,-703.31 440.25,-774.5 87.14,-75.73 182.07,-144.94 363.37,-200.96 181.28,-56.03 743.58,-22.67 781.92,-418.4 55.19,22.35 135.94,140.45 57.87,277.75 179.75,-70.4 344.43,-70.78 390.78,-67.52 33.26,2.34 72.45,8.25 112.46,16.32 1.53,-45.01 1.96,-89.99 1.25,-134.83 -137.07,-59.36 -288.85,-105.44 -455.51,-138 -195.72,-38.22 -410.69,-57.79 -645.13,-58.32l0.01 -0.01zm558.6 1887.83c80.43,-96.89 153.98,-208.19 219.24,-330.05 172.42,-321.96 285.32,-714.69 315.19,-1110.81 -40.54,-8.76 -80.77,-15.26 -113.74,-17.57 -23.9,-1.68 -86.25,-2.05 -169.36,12.29 -52.1,9.01 -111.24,23.78 -172,47.58l-301.76 118.18 69.52 -122.2c-143.62,77.36 -323.69,102.02 -468.39,121.85 -62.14,8.51 -116.16,15.91 -147.27,25.52 -80.77,24.96 -141.91,52.63 -192.28,82.31 -50.39,29.71 -97.1,53.32 -129.74,95.75 -32.65,42.44 -55.32,97.92 -82.97,146.89 1.56,-34.12 0,0 8.98,-117.1 -100.87,18.83 -191.7,48.23 -264.03,89.2 -60.69,34.37 -107.72,76.38 -135.07,126.42 -26.03,47.62 -35.5,106.31 -23.27,177.26 1.41,8.19 3.09,16.52 5.07,25 66.62,-58.8 145.31,-88.9 227.1,-101.49 129.49,-19.91 258.72,8.81 353.29,30.29 204.11,46.36 370.88,108.07 497.9,178.11l-27.98 -84.37 245.73 121.29c90.71,44.77 159.7,98.01 206.21,159.94 52.87,70.39 75.85,148.99 67.98,236l0 3.6c-3.55,28.34 5.8,59.09 11.66,86.11l-0.01 0z"/>
   <path class="fil5" d="M10415.82 -344.68c32.74,-129.78 231.99,-114 316.26,-179.08 -54.71,100.6 -95.36,132.19 -145.55,156.34 -50.18,24.14 -113.21,28.33 -170.71,22.74z"/>
   <path class="fil5" d="M11904.49 -770.16c-405.14,-115.28 -750.21,200.92 -936.44,380.27 437,-216.04 796.83,-287.44 915.68,-189.65l39.4 -112.97 -18.65 -77.65 0.01 0z"/>
   <path class="fil5" d="M11687.35 229.72c0,0 -288.68,-334.43 -907.37,-251.87 524.19,102.13 609.31,251.71 785.01,407.03l124.88 -66.33 -2.52 -88.83 0 0z"/>
   <path class="fil5" d="M11571.87 394.78c0,0 -161.9,-265.04 -733.39,-331.02 281.24,129.47 492.51,513.22 514.31,627.78l187.34 -130.76 31.74 -166 0 0z"/>
   <path class="fil5" d="M11834.89 -320.01c0,0 -163.17,-83.69 -758.86,76.51 452.32,24.51 566.55,84.52 685.4,182.31l43.76 -87.24 29.7 -171.58 0 0z"/>
   <polygon class="fil1" points="9940.68,-1028.44 10045.81,-914.16 10199.21,-938.42 10123,-803.12 10193.49,-664.73 10041.26,-695.39 9931.43,-585.59 9913.54,-739.85 9775.18,-810.38 9916.36,-875.05 "/>
   <polygon class="fil1" points="11200.7,-1101.85 11217.79,-1057.06 11264.55,-1046.48 11227.24,-1016.4 11231.63,-968.65 11191.48,-994.85 11147.43,-975.91 11159.93,-1022.2 11128.32,-1058.23 11176.2,-1060.64 "/>
   <polygon class="fil1" points="10728.11,-1143.79 10776.48,-1061.59 10871.72,-1056.35 10808.49,-984.95 10832.93,-892.75 10745.49,-930.82 10665.36,-879.08 10674.55,-974.01 10600.58,-1034.23 10693.7,-1054.83 "/>
   <polygon class="fil1" points="10998.96,-1128.76 11028.31,-1067.54 11095.54,-1058.08 11046.38,-1011.25 11058.16,-944.38 10998.44,-976.66 10938.48,-944.8 10950.72,-1011.58 10901.89,-1058.75 10969.19,-1067.74 "/>
   <polygon class="fil1" points="10373.52,-1108.1 10448.03,-1016.21 10565.81,-1027.37 10501.44,-928.12 10548.46,-819.54 10434.17,-850.09 10345.44,-771.83 10339.18,-889.96 10237.32,-950.16 10347.74,-992.63 "/>
   <path class="fil1" d="M10205.48 -376.67c-100.87,18.83 -191.7,48.24 -264.03,89.2 -60.69,34.37 -107.72,76.39 -135.07,126.42 -26.03,47.63 -35.5,106.32 -23.27,177.27 1.41,8.18 3.09,16.51 5.07,24.99 66.62,-58.8 145.31,-88.9 227.1,-101.49 129.49,-19.91 258.72,8.82 353.29,30.29 204.11,46.37 370.88,108.07 497.9,178.12l-27.98 -84.37c302.94,34.97 490.79,125.89 600.44,203.61 -122.03,-111.32 -268.99,-213.55 -658.94,-289.52 506.01,-67.53 791.26,143.87 878.39,223.12 38.29,-83.99 72.76,-171.72 103.06,-262.16 -118.85,-97.79 -233.08,-157.8 -685.4,-182.31 595.69,-160.2 758.86,-76.51 758.86,-76.51 20.02,-85.32 36.39,-172.08 48.85,-259.53 -118.85,-97.79 -478.68,-26.39 -915.68,189.65 93.19,-89.76 226.17,-213.79 386.55,-300.86l-206.97 81.06 69.52 -122.19c-143.62,77.35 -323.69,102.02 -468.39,121.84 -62.14,8.51 -116.17,15.92 -147.27,25.52 -80.77,24.97 -141.91,52.63 -192.28,82.32 -50.4,29.71 -97.1,53.31 -129.75,95.74 -32.64,42.44 -55.31,97.93 -82.96,146.89 1.56,-34.12 0,0 8.97,-117.1l-0.01 0zm381.05 9.25c-50.18,24.14 -113.21,28.33 -170.71,22.74 32.74,-129.78 231.99,-114 316.26,-179.08 -54.71,100.6 -95.36,132.2 -145.55,156.34z"/>
   <path class="fil6" d="M10204.18 -375.23c-50.84,9.56 -99.11,21.81 -143.73,36.88 -43.25,14.62 -83.06,31.88 -118.42,51.91 -30.92,17.51 -58.28,37.01 -81.27,58.53 -22.01,20.59 -40.02,43.06 -53.34,67.43 -13.23,24.19 -22.16,51.26 -26.11,81.36 -3.79,28.87 -3.01,60.54 2.96,95.15 0.72,4.15 1.5,8.31 2.34,12.45 0.7,3.44 1.45,6.96 2.28,10.56 33.01,-28.85 68.93,-50.73 106.69,-66.97 38.31,-16.49 78.53,-27.19 119.53,-33.49 64.86,-9.98 129.65,-7.77 190.05,-0.38 60.36,7.37 116.35,19.94 163.68,30.68 100.08,22.74 191.18,49.16 273.01,78.43 84.04,30.07 158.33,63.15 222.56,98.36l-27.62 -83.27 1.83 0.21c133.35,15.39 244.44,41.63 336.37,72.8 107.82,36.56 189.33,79.94 249.57,120.61 -57.44,-51.18 -121.95,-100.28 -215.15,-145.58 -100.65,-48.93 -234.78,-93.45 -429.64,-131.41l-7.05 -1.38 7.12 -0.95c194.83,-26 356.96,-10.68 487.69,22.52 207.63,52.75 336.07,150.62 390.44,199.82 18.87,-41.45 36.81,-83.83 53.79,-127.03 17.11,-43.53 33.23,-87.84 48.3,-132.78 -59.1,-48.57 -117.21,-87.78 -216.61,-117.91 -99.86,-30.26 -241.42,-51.37 -467.48,-63.62l-7.37 -0.4 7.13 -1.91c429.11,-115.4 633.99,-104.3 715.08,-89.02 15.81,2.97 26.94,6.11 34.12,8.51 4.4,1.46 6.88,2.75 8.27,3.78 -2.43,-0.27 -6.86,-0.84 -9.02,-1.55 -7.09,-2.38 -18.11,-5.48 -33.8,-8.43 -80.45,-15.15 -283.12,-26.15 -706.88,87.08 221.94,12.32 361.68,33.34 460.63,63.32 100.14,30.35 158.52,69.86 218.05,118.85l0.63 0.51 -0.26 0.77c-15.17,45.3 -31.39,89.9 -48.59,133.66 -17.18,43.68 -35.37,86.6 -54.52,128.61l-0.66 1.47 -1.2 -1.08c-53.53,-48.7 -181.98,-147.35 -390.63,-200.36 -128.88,-32.73 -288.36,-48.04 -479.65,-23.41 191.24,37.71 323.54,81.8 423.14,130.21 100.87,49.03 168.2,102.48 229.28,158.2l14.15 12.91 -15.63 -11.08c-61.33,-43.47 -147.18,-91.08 -264.01,-130.7 -91.37,-30.98 -201.69,-57.08 -334.05,-72.48l28.35 85.47 -2.63 -1.45c-64.72,-35.69 -139.77,-69.21 -224.85,-99.65 -81.77,-29.25 -172.78,-55.64 -272.74,-78.35 -47.25,-10.73 -103.16,-23.27 -163.44,-30.64 -60.22,-7.36 -124.79,-9.56 -189.42,0.37 -40.8,6.28 -80.83,16.93 -118.94,33.33 -38.12,16.41 -74.34,38.57 -107.55,67.88l-1.48 1.31 -0.45 -1.92c-0.96,-4.13 -1.87,-8.32 -2.73,-12.54 -0.87,-4.26 -1.65,-8.44 -2.35,-12.52 -6,-34.84 -6.8,-66.74 -2.97,-95.85 3.99,-30.4 13.01,-57.74 26.37,-82.19 13.44,-24.59 31.61,-47.25 53.8,-68.02 23.14,-21.65 50.65,-41.26 81.72,-58.85 35.5,-20.11 75.44,-37.44 118.83,-52.1 45.16,-15.26 94.06,-27.63 145.56,-37.25l1.51 -0.28 -8.68 113.3c8.21,-14.82 16.06,-30.26 23.9,-45.7 17.35,-34.14 34.71,-68.28 56.54,-96.67 28.6,-37.18 67.84,-59.92 110.91,-84.87 6.42,-3.72 12.91,-7.48 19.18,-11.18 25.21,-14.86 53.14,-29.23 84.86,-42.99 31.72,-13.77 67.24,-26.94 107.67,-39.43 15.6,-4.82 36.93,-9.09 62.15,-13.21 25.17,-4.12 54.22,-8.1 85.3,-12.36 72.32,-9.91 153.49,-21.03 234.5,-39.33 80.96,-18.29 161.79,-43.76 233.49,-82.38l3.61 -1.94 -69.9 122.86 221.52 -86.76 -16.66 9.05c-80.11,43.49 -153.39,96.23 -218.29,149.3 -62.41,51.05 -117.05,102.38 -162.56,146.13 214.55,-105.53 410.25,-176.05 567.62,-208.65 161.29,-33.41 282.45,-26.95 342.54,22.48l0.51 0.43 -0.1 0.65c-6.21,43.63 -13.4,87.1 -21.54,130.32 -8.18,43.44 -17.29,86.58 -27.33,129.31l-1.15 -0.27 0 -1.18 -0.91 -0.09c9.94,-42.44 18.98,-85.2 27.07,-128.21 8.08,-42.93 15.24,-86.15 21.43,-129.55 -59.69,-48.58 -179.92,-54.75 -340.06,-21.58 -158.83,32.89 -356.81,104.5 -573.84,211.8l-6.82 3.37 5.48 -5.28c46.63,-44.9 103.2,-98.38 168.15,-151.5 60.76,-49.68 128.87,-99.09 203.08,-140.92l-193.5 75.79 69.15 -121.55c-71,37.66 -150.68,62.65 -230.49,80.68 -81.1,18.33 -162.33,29.45 -234.71,39.37 -31.05,4.24 -60.09,8.23 -85.24,12.34 -25.11,4.11 -46.34,8.36 -61.83,13.14 -40.35,12.47 -75.79,25.62 -107.42,39.34 -31.63,13.73 -59.46,28.04 -84.61,42.87 -6.65,3.92 -12.97,7.58 -19.19,11.18 -42.85,24.83 -81.91,47.46 -110.23,84.27 -21.69,28.19 -39,62.24 -56.31,96.29 -8.65,17.02 -17.3,34.05 -26.57,50.45l-2.6 4.62 9.26 -120.85 0.03 -0.03zm1629.01 53.87c0.26,0.19 0.48,0.37 0.67,0.54l0.11 -0.46 -0.78 -0.09 0 0.01zm0.67 0.54c0.3,0.27 0.51,0.51 0.67,0.73l0.35 0.08 0 0.63c0.09,0.36 0,0.55 0,0.55l-1.49 0 0.47 -1.99 0 0zm0.67 0.73c0.19,0.28 0.3,0.51 0.35,0.71l-0.35 -0.71zm-1247.49 -46.27c-23.52,11.31 -49.83,18.26 -77.06,21.89 -31.14,4.15 -63.51,3.95 -94.28,0.96l-1.37 -0.13 0.34 -1.33c20.78,-82.39 107.77,-106.49 190.48,-129.4 48.33,-13.39 95.19,-26.37 126.21,-50.33l4.43 -3.41 -2.68 4.91c-27.41,50.4 -51.32,83.54 -74.67,107.1 -23.38,23.61 -46.2,37.6 -71.41,49.73l0.01 0.01zm-77.36 19.56c27,-3.6 53.07,-10.49 76.34,-21.68 24.98,-12.02 47.59,-25.89 70.76,-49.27 22.47,-22.67 45.47,-54.31 71.7,-101.89 -31.29,22.22 -76.32,34.69 -122.69,47.54 -81.61,22.61 -167.41,46.39 -188.47,126.38 30.21,2.84 61.88,2.97 92.37,-1.09l-0.01 0.01z"/>
   <path class="fil1" d="M11002.53 572.98c-162.74,-30.67 -328.9,-46.57 -497.76,-37.71 -74.82,3.93 -150.11,12.79 -225.99,25.92 23.51,30.84 47.7,60.34 72.51,88.38 56.4,-7.31 112.48,-12.08 168.28,-14.02 182.3,-6.29 360.83,18.44 535.07,60.41l-52.11 -122.98 0 0z"/>
   <path class="fil1" d="M10489.3 432.11c149.89,-10.51 297.99,-2.65 443.71,16.8 -36.32,-40.06 -89.34,-80.31 -158.55,-119.13 -0.93,-0.52 -1.86,-1.04 -2.79,-1.56 -98.33,-5 -197.5,-4.25 -297.3,4.22 -103.95,8.83 -208.66,26.7 -314.53,51.98 17.71,29.73 35.96,58.67 54.71,86.72 92.38,-19.29 183.88,-32.66 274.76,-39.03l-0.01 0z"/>
   <path class="fil1" d="M10109.46 295.02c117.59,-31.04 233.72,-53.32 349,-64.69 23.48,-2.32 46.94,-4.24 70.37,-5.78 -62.49,-20.62 -130.8,-39.53 -204.83,-56.35 -14.9,-3.39 -30.83,-6.99 -47.51,-10.5 -69.86,13.58 -140.1,30.64 -210.85,50.75 13.99,29.14 28.6,58.01 43.82,86.57l0 0z"/>
   <path class="fil1" d="M11077.73 820.86c-176.18,-50.96 -357.19,-82.89 -543.03,-80.07 -30.16,0.45 -60.4,1.76 -90.74,3.86 2.6,2.42 5.23,4.82 7.85,7.21 37.2,33.86 75.45,64.42 114.63,91.31 137.5,2.74 271.94,25.42 403.47,61.42 33.66,-18.35 67.42,-43.2 103,-78.83 1.63,-1.63 3.23,-3.26 4.82,-4.9l0 0z"/>
   <path class="fil1" d="M11152.66 605.41l2.72 103.54c3.66,-7.91 6.96,-15.79 9.92,-23.62 9.71,-25.72 15.54,-50.27 17.69,-72.43 -10.09,-2.54 -20.21,-5.04 -30.33,-7.49z"/>
  </g>
  <g id="_3065279188560">
   <path class="fil7" d="M690.03 529.49c-29.16,51.67 -75.05,94.52 -144.61,128.74 -63.71,-31.34 -105.73,-68.95 -134.2,-111.79 -43.93,-66.08 -38.38,-138.28 -18.05,-225.53 5.59,-24.02 41.97,-83.72 75.01,-106.92 20.1,52.17 27.62,89.79 93.87,91.5 39.69,1.02 83.87,-17.38 104.78,-71.47 43.26,49.17 63.1,125.94 56.41,190.45 -3.88,37.5 -14.97,72.71 -33.21,105.02z"/>
   <path class="fil8" d="M666.83 234.02c20.13,61.52 5.46,136.49 -75.16,221.07 -29.34,30.79 -3.6,89.51 -31.52,116.25 -21.56,20.65 -58.16,27.87 -82.53,45.39 19.35,14.83 41.76,28.69 67.8,41.5 69.56,-34.22 115.45,-77.07 144.61,-128.74 18.24,-32.31 29.33,-67.52 33.21,-105.02 6.69,-64.51 -13.15,-141.28 -56.41,-190.45z"/>
   <path class="fil9" d="M690.03 529.49c-29.16,51.67 -75.05,94.52 -144.61,128.74 -74.6,-36.7 -123.9,-84.52 -152.61,-144.05 19.67,15.55 66.94,61.95 115.79,52.39 29.16,-5.71 59,-27.32 58.29,-66.25 -0.65,-35.77 -37.68,-64.9 -80.6,-70.14 -11.91,-1.45 -23.71,0.4 -36.94,5.75 2.45,-18.42 21.58,-34.05 43.86,-37.59 0.8,-8.84 5.49,-17.36 19.27,-22.61 -3.11,5.42 -2.34,10.36 0.64,14.74 9.47,-8.88 24.76,-13.64 36.65,-14.55 26.72,-2.04 33.14,0.42 56.68,4.02 34.76,5.31 60.19,12.35 70.93,-20.64 10.88,36.8 4.3,48.13 -19.02,58.16 26.5,19.27 38.35,43.44 52.3,65.64 -5.36,16.04 -12.23,31.52 -20.63,46.39z"/>
   <path class="fil10" d="M625.04 607.22c14.14,-40.28 13.81,-82.9 -5.64,-127.03 -10.12,-22.98 -25.85,-46.19 -52.7,-58.06 -40.38,-17.84 -94.5,-15.53 -117.35,13.8 13.23,-5.35 25.03,-7.2 36.94,-5.75 42.92,5.24 79.95,34.37 80.6,70.14 0.71,38.93 -29.13,60.54 -58.29,66.25 -48.85,9.56 -96.12,-36.84 -115.79,-52.39 28.71,59.53 78.01,107.35 152.61,144.05 31.05,-15.28 57.39,-32.27 79.62,-51.01z"/>
   <path class="fil11" d="M605 230.45c-54.3,82.39 -171.55,111.7 -183.66,212.08 -9.81,81.37 15.58,159.41 124.51,215.92 -174.81,-84.24 -192.64,-263.77 -104.04,-370.89 52.95,-64.01 189.99,-162.57 95.38,-244.08 -2.88,-2.48 -5.98,-4.94 -9.3,-7.39 70.82,21.62 118.06,119.48 87.05,177.69 -3.04,5.7 -6.36,11.25 -9.94,16.67l0 0z"/>
   <path class="fil12" d="M543.71 47.68c129.3,128.11 -26.68,190.24 -79.62,254.24 -90.59,91.74 -93.11,272.27 81.7,356.5 -63.71,-28.84 -105.73,-63.45 -134.2,-102.88 -130.43,-180.57 -4.6,-289.71 86.11,-418.2 28.34,-40.15 45.93,-67.1 30.14,-101.28 4.03,2.93 12.11,7.9 15.87,11.62l0 0z"/>
   <path class="fil13" d="M536.58 44.17c78.88,103 -41.88,179.36 -94.82,243.36 -88.61,107.13 -70.78,286.66 104.03,370.89 -63.71,-28.84 -105.73,-63.45 -134.2,-102.88 -130.43,-180.57 -4.6,-289.71 86.11,-418.2 28.34,-40.15 45.93,-67.1 30.14,-101.28 4.03,2.93 6.72,5.49 8.74,8.11l0 0z"/>
  </g>
  <path class="fil14" d="M339.66 760.67c0,7.35 -1.37,13.61 -4.11,18.81 -2.74,5.19 -6.72,9.17 -11.96,11.91 -5.24,2.74 -11.65,4.11 -19.22,4.11 -7.52,0 -13.91,-1.37 -19.17,-4.11 -5.26,-2.74 -9.26,-6.72 -12,-11.91 -2.74,-5.2 -4.11,-11.46 -4.11,-18.81l0 -56.21 0.92 -0.85 7.63 0c4,0 7.06,1.02 9.19,3.09 2.13,2.06 3.2,5.43 3.2,10.08l0 44.09c0,5.96 1.08,10.43 3.26,13.46 2.17,3.02 5.87,4.54 11.08,4.54 5.26,0 8.98,-1.52 11.16,-4.54 2.17,-3.03 3.26,-7.5 3.26,-13.46l0 -56.41c1.74,-0.35 3.54,-0.57 5.39,-0.65 1.85,-0.09 3.43,-0.13 4.78,-0.13 1.26,0 2.96,0.04 5.07,0.13 2.1,0.08 3.97,0.3 5.63,0.65l0 56.21zm30.19 -5.21c1.57,-2.09 3.35,-4.26 5.35,-6.5 2,-2.24 3.74,-4.16 5.22,-5.76l-0.39 -0.66c-1.61,0.18 -3.37,0.33 -5.29,0.48 -1.91,0.15 -3.8,0.28 -5.69,0.37 -1.89,0.09 -3.66,0.13 -5.26,0.13l-10.05 0c-0.21,-1 -0.39,-2.04 -0.52,-3.13 -0.13,-1.08 -0.19,-2.11 -0.19,-3.06 0,-1.53 0.1,-3.05 0.32,-4.57 0.22,-1.52 0.48,-2.96 0.78,-4.3l45.53 0c0.82,2.43 1.47,4.54 1.93,6.32 0.46,1.79 0.67,3.39 0.67,4.83 0,0.91 -0.13,1.91 -0.41,3.02 -0.28,1.11 -0.78,2.11 -1.48,2.98l-15.98 21.06c-1.47,1.87 -3.06,3.85 -4.78,5.96 -1.72,2.11 -3.41,4.04 -5.06,5.78l0.39 0.66c1.87,-0.27 3.65,-0.46 5.35,-0.59 1.69,-0.13 3.34,-0.2 4.95,-0.2l4.5 0c2,0 4.09,-0.15 6.24,-0.43 2.15,-0.28 4.13,-0.85 5.96,-1.72 0.74,1.74 1.28,3.22 1.61,4.46 0.32,1.24 0.47,2.56 0.47,3.95 0,2.7 -0.8,4.87 -2.41,6.53 -1.61,1.65 -4.43,2.47 -8.48,2.47l-39.32 0c-0.83,-2.43 -1.41,-4.41 -1.76,-5.91 -0.35,-1.5 -0.52,-2.83 -0.52,-4 0,-1.13 0.21,-2.33 0.65,-3.59 0.43,-1.26 1.17,-2.58 2.22,-3.97l15.45 -20.61zm64.83 34.82l-19.96 0 0 -91.82 0.91 -0.91 7.7 0c4,0 6.89,0.91 8.67,2.73 1.78,1.83 2.68,5 2.68,9.53l0 80.47zm38.15 -30.19c0.04,7.04 -1.26,13.15 -3.91,18.34 -2.66,5.2 -6.42,9.22 -11.31,12.05 -4.89,2.82 -10.67,4.24 -17.32,4.24 -4.74,0 -9.31,-0.42 -13.72,-1.22 -4.42,-0.8 -8.37,-1.87 -11.85,-3.22l9.65 -15c2.44,1.57 5.02,2.76 7.74,3.59 2.72,0.83 5.57,1.24 8.57,1.24 2.65,0 4.8,-0.81 6.45,-2.39 1.65,-1.59 2.87,-3.85 3.65,-6.81 0.79,-2.95 1.18,-6.45 1.18,-10.5 0,-5.91 -0.68,-10.19 -2.05,-12.84 -1.36,-2.66 -3.47,-4 -6.3,-4.05 -1.87,-0.08 -3.91,0.52 -6.15,1.83 -2.24,1.3 -4.18,3.43 -5.78,6.39l-2.87 -15.39c1.78,-1.74 3.69,-3.31 5.74,-4.7 2.04,-1.39 4.32,-2.5 6.82,-3.3 2.5,-0.81 5.26,-1.2 8.31,-1.2 5.17,0 9.47,1.42 12.89,4.26 3.41,2.85 5.98,6.76 7.69,11.72 1.72,4.96 2.57,10.61 2.57,16.96zm76.95 -25.37c0,6.78 -1.37,12.45 -4.13,17.04 -2.76,4.59 -6.54,8.04 -11.35,10.37 -4.8,2.33 -10.3,3.5 -16.47,3.5l-19.11 0 0 -15.26c1.17,-0.09 2.98,-0.17 5.41,-0.26 2.44,-0.09 4.83,-0.17 7.15,-0.24 2.33,-0.07 3.92,-0.09 4.79,-0.09 3.47,0 6.1,-0.82 7.89,-2.47 1.78,-1.66 2.98,-3.66 3.58,-5.98 0.61,-2.33 0.92,-4.52 0.92,-6.61 0,-2.05 -0.31,-4.24 -0.92,-6.57 -0.6,-2.32 -1.8,-4.3 -3.58,-5.95 -1.79,-1.66 -4.42,-2.48 -7.89,-2.48 -1.31,0 -2.59,-0.02 -3.87,-0.05 -1.29,-0.02 -2.83,-0.04 -4.61,-0.08l0 73.95c-1.74,0.31 -3.57,0.5 -5.5,0.61 -1.94,0.11 -3.61,0.18 -5,0.18 -1.26,0 -2.89,-0.07 -4.92,-0.18 -2.02,-0.11 -3.86,-0.3 -5.52,-0.61l0 -88.43 0.92 -0.91c5.56,-0.13 10.78,-0.26 15.63,-0.37 4.84,-0.11 9.71,-0.15 14.63,-0.15 6.17,0 11.67,1.1 16.47,3.34 4.81,2.24 8.59,5.66 11.35,10.24 2.76,4.59 4.13,10.42 4.13,17.46l0 0zm53.87 -6.07c0,2.39 -0.43,5.44 -1.3,9.16 -0.87,3.71 -2.13,7.02 -3.79,9.89 -1.13,-0.44 -2.24,-0.74 -3.34,-0.92 -1.11,-0.17 -2.24,-0.32 -3.37,-0.45 -1.74,0 -3.31,0.3 -4.7,0.93 -1.39,0.63 -2.65,1.57 -3.78,2.78 -1.13,1.22 -2.2,2.72 -3.2,4.5 -1,1.79 -1.95,3.83 -2.87,6.13l-2.28 -3.06c0.22,-3.61 0.68,-7.2 1.37,-10.74 0.7,-3.54 1.76,-6.76 3.2,-9.67 1.43,-2.92 3.41,-5.26 5.91,-7.03 2.5,-1.76 5.65,-2.63 9.48,-2.63 2,0 3.63,0.09 4.87,0.29 1.24,0.19 2.5,0.47 3.8,0.82zm-47.8 9.26c0.35,-1.82 1.15,-3.8 2.41,-5.91 1.26,-2.11 2.52,-3.63 3.78,-4.59 6.05,0.44 10.61,2.66 13.68,6.68 3.06,4.02 4.87,9.3 5.43,15.82l0 43.63c-1.43,0.26 -3.04,0.46 -4.82,0.59 -1.79,0.13 -3.57,0.2 -5.35,0.2 -1.7,0 -3.44,-0.07 -5.24,-0.2 -1.8,-0.13 -3.48,-0.33 -5,-0.59l0 -42.13c0,-3.87 -0.54,-6.91 -1.65,-9.1 -1.11,-2.2 -2.2,-3.66 -3.24,-4.4zm81.65 55.63c-1.44,0.26 -3.04,0.46 -4.85,0.59 -1.8,0.13 -3.59,0.2 -5.33,0.2 -1.69,0 -3.43,-0.07 -5.23,-0.2 -1.81,-0.13 -3.48,-0.33 -5,-0.59l0 -43.17c0,-2.17 -0.44,-3.98 -1.33,-5.41 -0.89,-1.44 -2.5,-2.15 -4.81,-2.15l-1.95 0c-0.57,-2.22 -0.85,-4.53 -0.85,-6.92 0,-1.13 0.07,-2.35 0.2,-3.63 0.13,-1.28 0.34,-2.5 0.65,-3.67 2,-0.22 4.06,-0.39 6.17,-0.5 2.11,-0.11 3.87,-0.15 5.31,-0.15l2.8 0c4.39,0 7.87,1.39 10.41,4.19 2.55,2.81 3.81,6.61 3.81,11.39l0 50.02zm-24.33 -83.41c0,-1.22 0.13,-2.5 0.39,-3.82 0.26,-1.33 0.63,-2.59 1.11,-3.81 1.13,-0.56 2.61,-1.04 4.42,-1.43 1.8,-0.39 3.56,-0.59 5.3,-0.59 1.78,0 3.61,0.2 5.46,0.59 1.84,0.39 3.26,0.87 4.26,1.43 0.48,1.22 0.84,2.5 1.11,3.87 0.26,1.37 0.39,2.63 0.39,3.76 0,1.18 -0.13,2.44 -0.39,3.78 -0.27,1.35 -0.63,2.61 -1.11,3.79 -1,0.56 -2.42,1.04 -4.26,1.43 -1.85,0.39 -3.68,0.59 -5.46,0.59 -1.74,0 -3.54,-0.2 -5.41,-0.57 -1.87,-0.37 -3.31,-0.84 -4.31,-1.45 -0.48,-1.18 -0.85,-2.44 -1.11,-3.79 -0.26,-1.34 -0.39,-2.6 -0.39,-3.78zm48.26 17.41c3.87,0 6.83,1.33 8.85,4 2.02,2.68 3.02,6.29 3.02,10.81l0 51.19c-1.43,0.26 -3.04,0.46 -4.85,0.59 -1.8,0.13 -3.58,0.2 -5.32,0.2 -1.7,0 -3.44,-0.07 -5.24,-0.2 -1.81,-0.13 -3.48,-0.33 -5,-0.59l0 -65.08 0.91 -0.92 7.63 0zm26.35 26.74c0,-3.48 -0.63,-5.8 -1.89,-6.97 -1.26,-1.18 -2.59,-1.77 -3.98,-1.77 -1.87,0.05 -3.83,0.79 -5.89,2.22 -2.07,1.44 -3.96,3.18 -5.65,5.24 -1.7,2.07 -2.92,4.13 -3.66,6.17l0 -17.6c2.05,-2.31 4.31,-4.57 6.77,-6.76 2.45,-2.2 5.08,-4 7.91,-5.42 2.83,-1.41 5.8,-2.11 8.93,-2.11 3.79,0 7.03,0.87 9.7,2.63 2.67,1.76 4.69,4.2 6.09,7.29 1.39,3.08 2.08,6.63 2.08,10.63l0 45.71c-1.43,0.26 -3.04,0.46 -4.85,0.59 -1.8,0.13 -3.58,0.2 -5.32,0.2 -1.7,0 -3.44,-0.07 -5.24,-0.2 -1.8,-0.13 -3.48,-0.33 -5,-0.59l0 -39.26zm34.89 -0.13c0,-3.48 -0.65,-5.78 -1.98,-6.91 -1.32,-1.13 -2.69,-1.7 -4.08,-1.7 -1.7,0 -3.55,0.72 -5.57,2.18 -2.02,1.45 -3.93,3.28 -5.72,5.48 -1.78,2.19 -3.19,4.43 -4.24,6.69l0 -18.85c1.96,-2.34 4.26,-4.58 6.92,-6.69 2.65,-2.11 5.52,-3.81 8.58,-5.11 3.07,-1.3 6.11,-1.96 9.16,-1.96 3.82,0 7.02,0.89 9.58,2.7 2.57,1.8 4.5,4.28 5.81,7.41 1.3,3.13 1.95,6.7 1.95,10.7l0 29.15c0,2.52 0.24,4.89 0.72,7.13 0.48,2.24 1.33,4.19 2.54,5.85 -1.47,1.21 -3.32,2.24 -5.54,3.08 -2.22,0.85 -4.61,1.29 -7.17,1.29 -4.09,0 -6.94,-1.09 -8.55,-3.26 -1.6,-2.18 -2.41,-5.31 -2.41,-9.39l0 -27.79zm44.87 13.44l0 -14.02 24.59 0 0 -1.5c0,-2 -0.29,-3.85 -0.85,-5.53 -0.57,-1.67 -1.46,-3.02 -2.7,-4.04 -1.24,-1.02 -2.91,-1.52 -5,-1.52 -3.17,0 -5.39,1.3 -6.67,3.91 -1.28,2.61 -1.94,6.63 -1.94,12.07l0 6.13c0,2.95 0.26,5.71 0.79,8.28 0.52,2.57 1.63,4.63 3.32,6.2 1.7,1.56 4.29,2.34 7.76,2.34 2.96,0 5.87,-0.39 8.72,-1.15 2.85,-0.76 5.57,-1.67 8.17,-2.76 1.53,1.48 2.74,3.35 3.66,5.61 0.91,2.26 1.52,4.41 1.82,6.46 -3.3,2.39 -7.24,4.21 -11.82,5.5 -4.59,1.28 -9.22,1.93 -13.87,1.93 -5.74,0 -10.48,-0.96 -14.22,-2.85 -3.74,-1.89 -6.69,-4.45 -8.87,-7.69 -2.17,-3.24 -3.69,-6.89 -4.59,-10.96 -0.89,-4.06 -1.34,-8.24 -1.34,-12.54 0,-6.57 1,-12.5 2.97,-17.79 1.98,-5.28 5.11,-9.45 9.42,-12.54 4.3,-3.09 9.91,-4.63 16.82,-4.63 5.74,0 10.63,1.22 14.68,3.65 4.04,2.44 7.15,5.72 9.3,9.87 2.15,4.15 3.22,8.87 3.22,14.13 0,2.92 -0.13,5.33 -0.41,7.26 -0.29,1.94 -0.74,4 -1.35,6.18l-41.61 0z"/>
  <path class="fil14" d="M432.33 819.03l0.91 -0.91 19.63 0 0 17.15c0,1.83 0.02,3.46 0.07,4.89 0.04,1.44 0.06,3.05 0.06,4.83l0 35.87c0,1.69 -0.02,3.24 -0.06,4.63 -0.05,1.39 -0.07,2.98 -0.07,4.76l0 17.35 -8.54 0c-3.74,0 -6.68,-1.09 -8.81,-3.26 -2.13,-2.18 -3.19,-5.16 -3.19,-8.94l0 -76.37zm49.37 34.89c0.48,1.26 0.8,2.72 0.98,4.37 0.17,1.66 0.26,3.05 0.26,4.18 0,1.17 -0.09,2.54 -0.26,4.11 -0.18,1.56 -0.5,3.02 -0.98,4.37l-19.89 0c-1.09,0 -2.63,-0.03 -4.63,-0.05 -2,-0.02 -4.05,-0.04 -6.16,-0.08 -2.11,-0.05 -3.87,-0.09 -5.26,-0.14l0 -16.49c1.39,-0.05 3.15,-0.09 5.26,-0.14 2.11,-0.04 4.16,-0.08 6.16,-0.1 2,-0.03 3.54,-0.03 4.63,-0.03l19.89 0zm7.76 -35.8c0.35,1.57 0.56,3.02 0.63,4.39 0.06,1.37 0.09,2.65 0.09,3.83 0,1.17 -0.14,2.61 -0.42,4.32 -0.28,1.72 -0.72,3.37 -1.28,4.94l-26.67 0c-1.09,0 -2.63,-0.02 -4.63,-0.05 -2,-0.02 -4.05,-0.04 -6.16,-0.08 -2.11,-0.04 -3.87,-0.09 -5.26,-0.13l0 -17.22 43.7 0zm3.26 72c0,5.74 -0.89,10.09 -2.68,13.04 -1.78,2.96 -5.45,4.44 -11.02,4.44l-33.26 0 0 -16.83c2.83,-0.13 5.55,-0.28 8.13,-0.43 2.59,-0.16 5.46,-0.22 8.63,-0.22l30.2 0zm35.28 17.48l-8.8 0c-3.74,0 -6.7,-1.09 -8.87,-3.26 -2.18,-2.18 -3.26,-5.16 -3.26,-8.94l0 -77.28 0.91 -0.85 7.63 0c4,0 7.06,1.02 9.2,3.09 2.13,2.06 3.19,5.43 3.19,10.09l0 77.15 0 0zm34.83 -18c0,6.61 -1.07,11.26 -3.22,13.95 -2.15,2.7 -5.83,4.05 -11,4.05l-29.41 0 -11.22 -15.13c5.69,-1 11.35,-1.74 16.93,-2.2 5.59,-0.46 10.68,-0.67 15.29,-0.67l22.63 0zm84.84 -27c0,5.08 -0.35,9.98 -1.06,14.69 -0.72,4.72 -2.13,9.13 -4.22,13.22 -2.09,4.09 -5.22,7.74 -9.39,10.96 -2,1.56 -4.41,2.82 -7.24,3.78 -2.83,0.96 -5.7,1.65 -8.63,2.09 -2.94,0.43 -5.63,0.65 -8.07,0.65 -3.74,0 -7.39,-0.02 -10.97,-0.07 -3.59,-0.04 -7.18,-0.11 -10.76,-0.19 -3.59,-0.09 -7.29,-0.18 -11.07,-0.26l-0.91 -0.92 0 -87.78 0.91 -0.91c3.74,-0.13 7.41,-0.24 11,-0.33 3.59,-0.08 7.17,-0.15 10.78,-0.17 3.61,-0.02 7.28,-0.02 11.02,-0.02 2.44,0 5.13,0.22 8.09,0.65 2.96,0.44 5.85,1.13 8.67,2.11 2.83,0.98 5.22,2.26 7.18,3.82 4.13,3.22 7.24,6.88 9.32,10.96 2.09,4.09 3.5,8.46 4.24,13.13 0.74,4.68 1.11,9.55 1.11,14.59l0 0zm-21.45 0c0,-3.31 -0.2,-6.68 -0.61,-10.09 -0.42,-3.41 -1.22,-6.54 -2.39,-9.39 -1.18,-2.85 -2.9,-5.15 -5.16,-6.91 -2.26,-1.76 -5.26,-2.63 -9,-2.63 -2.21,0 -4.34,-0.02 -6.39,-0.05 -2.04,-0.02 -4.21,-0.04 -6.52,-0.08l0 58.36c2.31,-0.04 4.48,-0.06 6.52,-0.06 2.05,0 4.18,0 6.39,0 3.74,0 6.74,-0.89 9,-2.65 2.26,-1.76 3.98,-4.09 5.16,-6.98 1.17,-2.89 1.97,-6.04 2.39,-9.46 0.41,-3.41 0.61,-6.76 0.61,-10.06z"/>
 </g>
</svg>
