<?xml version="1.0" encoding="UTF-8"?>
<svg id="Layer_1" xmlns="http://www.w3.org/2000/svg" xmlns:xlink="http://www.w3.org/1999/xlink" version="1.1" viewBox="0 0 1200 401.7">
  <!-- Generator: Adobe Illustrator 30.2.1, SVG Export Plug-In . SVG Version: 2.1.1 Build 1)  -->
  <defs>
    <style>
      .st0 {
        fill: none;
      }

      .st1 {
        fill: #231f20;
      }

      .st2 {
        fill: #c7cbce;
      }

      .st3 {
        clip-path: url(#clippath-1);
      }

      .st4 {
        clip-path: url(#clippath-2);
      }

      .st5 {
        fill: #2d8557;
      }

      .st6 {
        fill: #2d77bb;
      }

      .st7 {
        fill: #3db174;
      }

      .st8 {
        clip-path: url(#clippath);
      }
    </style>
    <clipPath id="clippath">
      <rect class="st0" y="0" width="1200" height="200.4"/>
    </clipPath>
    <clipPath id="clippath-1">
      <rect class="st0" y="0" width="1200" height="200.4"/>
    </clipPath>
    <clipPath id="clippath-2">
      <rect class="st0" y="0" width="1200" height="200.4"/>
    </clipPath>
  </defs>
  <g id="Logo-Horizontal-FullColor">
    <g class="st8">
      <g class="st3">
        <path class="st6" d="M1097.3,58.4c-16.8-11.3-31.7-25.8-57-25.8s-43.1,26.9-43.1,26.9V26.4s10.8-25.4,43.1-25.4,40.1,14.4,56.9,25.7l1.4,1c16.8,11.3,31.4,25.7,56.9,25.7s43.1-26.9,43.1-26.9v33.1s-10.8,25.4-43.1,25.4-40.1-14.4-56.9-25.7"/>
        <path class="st6" d="M1097.3,115.8c-16.8-11.3-31.7-25.8-57-25.8s-43.1,26.9-43.1,26.9v-33.1s10.8-25.4,43.1-25.4,40.1,14.4,56.9,25.7l1.4,1c16.8,11.3,31.4,25.7,56.9,25.7s43.1-26.9,43.1-26.9v33.1s-10.8,25.4-43.1,25.4-40.1-14.4-56.9-25.7"/>
        <path class="st6" d="M1097.3,173.2c-16.8-11.3-31.7-25.8-57-25.8s-43.1,26.9-43.1,26.9v-32.9s10.8-25.4,43.1-25.4,40.1,14.4,56.9,25.7l1.4,1c16.8,11.3,31.4,25.7,56.9,25.7s43.1-26.9,43.1-26.9v33.1s-10.8,25.4-43.1,25.4-40.1-14.4-56.9-25.7"/>
        <path class="st2" d="M1098.3,58.4c16.8-11.3,31.7-25.8,57-25.8s43.1,26.9,43.1,26.9V26.4s-10.8-25.4-43.1-25.4-40.1,14.4-56.9,25.7l-1.4,1c-16.8,11.3-31.6,25.7-56.9,25.7s-43.1-26.9-43.1-26.9v33.1s10.8,25.4,43.1,25.4,40.1-14.4,56.9-25.7"/>
        <path class="st2" d="M1098.3,115.8c16.8-11.3,31.7-25.8,57-25.8s43.1,26.9,43.1,26.9v-33.1s-10.8-25.4-43.1-25.4-40.1,14.4-56.9,25.7l-1.4,1c-16.8,11.3-31.6,25.7-56.9,25.7s-43.1-26.9-43.1-26.9v33.1s10.8,25.4,43.1,25.4,40.1-14.4,56.9-25.7"/>
        <path class="st2" d="M1098.3,173.2c16.8-11.3,31.7-25.8,57-25.8s43.1,26.9,43.1,26.9v-32.9s-10.8-25.4-43.1-25.4-40.1,14.4-56.9,25.7l-1.4,1c-16.8,11.3-31.6,25.7-56.9,25.7s-43.1-26.9-43.1-26.9v33.1s10.8,25.4,43.1,25.4,40.1-14.4,56.9-25.7"/>
      </g>
      <g class="st4">
        <path class="st6" d="M-.6,175.4V28c0-1.4.7-2.2,2.2-2.2h11.1c1.4,0,2.2.7,2.2,2.2v147.4c0,1.4-.7,2.2-2.2,2.2H1.6c-1.4,0-2.2-.7-2.2-2.2"/>
        <path class="st6" d="M125.7,76.5c6.9,6.8,10.3,15.9,10.3,27.3v71.5c0,1.4-.7,2.2-2.2,2.2h-11.1c-1.4,0-2.2-.7-2.2-2.2v-68.5c0-7.9-2.4-14.4-7.3-19.5-4.8-5.1-11.1-7.6-18.8-7.6s-14.4,2.5-19.3,7.4c-4.9,4.9-7.4,11.3-7.4,19.3v68.9c0,1.4-.7,2.2-2.2,2.2h-11.1c-1.4,0-2.2-.7-2.2-2.2v-105.3c0-1.4.7-2.2,2.2-2.2h11.1c1.4,0,2.2.7,2.2,2.2v9.3c0,.3.1.5.3.7.2.1.4,0,.5-.2,6.4-9,16.1-13.4,29.3-13.4s20.8,3.4,27.6,10.2"/>
        <path class="st6" d="M216.4,80.6h-24.5c-.6,0-.9.3-.9.9v63.9c0,6.9,1.6,11.8,4.7,14.6,3.1,2.8,8,4.2,14.6,4.2h5.4c1.4,0,2.2.7,2.2,2.2v8.9c0,1.4-.7,2.2-2.2,2.2-1.7.1-4.4.2-8,.2-10.4,0-18.3-1.9-23.6-5.9-5.3-3.9-8-11.1-8-21.7v-68.7c0-.6-.3-.9-.9-.9h-13.2c-1.4,0-2.2-.7-2.2-2.2v-8.5c0-1.4.7-2.2,2.2-2.2h13.2c.6,0,.9-.3.9-.9v-25.1c0-1.4.7-2.2,2.2-2.2h10.6c1.4,0,2.2.7,2.2,2.2v25.1c0,.6.3.9.9.9h24.5c1.4,0,2.2.7,2.2,2.2v8.5c0,1.4-.7,2.2-2.2,2.2"/>
        <path class="st6" d="M330,119.4v6.9c0,1.4-.7,2.2-2.2,2.2h-70c-.6,0-.9.3-.9.9.3,7.9.7,13.1,1.3,15.4,1.6,6.5,5,11.6,10.2,15.4,5.2,3.8,11.8,5.6,19.9,5.6s11.4-1.4,16-4.1c4.6-2.7,8.2-6.6,10.8-11.7.9-1.3,1.9-1.6,3-.9l8.5,5c1.2.7,1.4,1.7.9,3-3.6,6.9-9,12.4-16.3,16.4-7.2,4-15.5,6-24.9,6-10.3-.1-18.9-2.6-25.8-7.4-6.9-4.8-11.9-11.4-15-19.9-2.6-6.9-3.9-16.9-3.9-29.9s.1-11,.3-14.8c.2-3.8.8-7.3,1.6-10.3,2.5-9.4,7.4-16.9,14.8-22.5,7.4-5.6,16.4-8.5,27-8.5s23.3,3.3,30.3,10c7.1,6.6,11.5,16,13.2,28.2.6,4,.9,9.1.9,15.2M267.9,85.1c-4.7,3.7-7.8,8.6-9.2,14.8-.9,3-1.4,8-1.7,14.7,0,.6.3.9.9.9h56.1c.6,0,.9-.3.9-.9-.3-6.5-.7-11.1-1.3-13.9-1.6-6.5-4.8-11.7-9.6-15.5-4.8-3.8-10.9-5.7-18.3-5.7s-13,1.8-17.7,5.5"/>
        <path class="st6" d="M360.6,175.4V28c0-1.4.7-2.2,2.2-2.2h11.1c1.4,0,2.2.7,2.2,2.2v147.4c0,1.4-.7,2.2-2.2,2.2h-11.1c-1.4,0-2.2-.7-2.2-2.2"/>
        <path class="st6" d="M410.4,175.4V28c0-1.4.7-2.2,2.2-2.2h11.1c1.4,0,2.2.7,2.2,2.2v147.4c0,1.4-.7,2.2-2.2,2.2h-11.1c-1.4,0-2.2-.7-2.2-2.2"/>
        <path class="st6" d="M462,44.4c-2.3-2.3-3.5-5.2-3.5-8.7s1.2-6.5,3.5-8.8c2.3-2.2,5.2-3.4,8.7-3.4s6.4,1.1,8.7,3.4c2.3,2.2,3.5,5.2,3.5,8.8s-1.2,6.4-3.5,8.7c-2.3,2.3-5.2,3.5-8.7,3.5s-6.4-1.2-8.7-3.5M462.5,175.1v-105.3c0-1.4.7-2.2,2.2-2.2h11.1c1.4,0,2.2.7,2.2,2.2v105.3c0,1.4-.7,2.2-2.2,2.2h-11.1c-1.4,0-2.2-.7-2.2-2.2"/>
        <path class="st6" d="M523.7,168.2c-9.5-7.4-14.2-17.2-14.2-29.5v-6.7c0-1.4.7-2.2,2.2-2.2h10.6c1.4,0,2.2.7,2.2,2.2v5.9c0,8.4,3.5,15.1,10.4,20.3,6.9,5.1,16.5,7.7,28.8,7.7s19.6-2.3,25.4-7c5.8-4.7,8.7-10.9,8.7-18.7s-1.3-9.4-4-13c-2.7-3.6-6.8-7-12.4-10.2-5.6-3.2-13.4-6.9-23.5-11.1-10.8-4.3-19.3-8.1-25.3-11.4-6-3.3-10.8-7.4-14.5-12.6-3.7-5.1-5.5-11.6-5.5-19.4,0-12.1,4.2-21.6,12.7-28.3,8.5-6.7,20.1-10.1,34.8-10.1s28.7,3.8,37.9,11.3c9.2,7.5,13.9,17.5,13.9,29.9v4.8c0,1.4-.7,2.2-2.2,2.2h-10.8c-1.4,0-2.2-.7-2.2-2.2v-3.9c0-8.4-3.3-15.2-9.9-20.6-6.6-5.3-15.7-8-27.4-8s-18.1,2.1-23.6,6.3c-5.5,4.2-8.2,10.3-8.2,18.2s1.3,9.5,4,12.9c2.7,3.4,6.5,6.4,11.5,8.9,5,2.5,12.7,5.8,23.1,9.9,10.5,4.3,19,8.4,25.5,12.1,6.4,3.8,11.6,8.3,15.6,13.8,4,5.4,6,12,6,19.8,0,12.1-4.5,21.8-13.4,29-9,7.2-21.4,10.8-37.3,10.8s-29.2-3.7-38.7-11.1"/>
        <path class="st6" d="M715.3,76.5c6.9,6.8,10.3,15.9,10.3,27.3v71.5c0,1.4-.7,2.2-2.2,2.2h-11.1c-1.4,0-2.2-.7-2.2-2.2v-68.5c0-7.9-2.4-14.4-7.3-19.5-4.8-5.1-11.1-7.6-18.7-7.6s-14.4,2.5-19.3,7.4c-4.9,4.9-7.4,11.3-7.4,19.3v68.9c0,1.4-.7,2.2-2.2,2.2h-11.1c-1.4,0-2.2-.7-2.2-2.2V28c0-1.4.7-2.2,2.2-2.2h11.1c1.4,0,2.2.7,2.2,2.2v51.4c0,.3.1.5.3.7.2.1.4,0,.5-.2,6.4-9,16.1-13.4,29.3-13.4s20.8,3.4,27.6,10.2"/>
        <path class="st6" d="M760.7,44.4c-2.3-2.3-3.5-5.2-3.5-8.7s1.2-6.5,3.5-8.8c2.3-2.2,5.2-3.4,8.7-3.4s6.4,1.1,8.7,3.4c2.3,2.2,3.5,5.2,3.5,8.8s-1.2,6.4-3.5,8.7c-2.3,2.3-5.2,3.5-8.7,3.5s-6.4-1.2-8.7-3.5M761.2,175.1v-105.3c0-1.4.7-2.2,2.2-2.2h11.1c1.4,0,2.2.7,2.2,2.2v105.3c0,1.4-.7,2.2-2.2,2.2h-11.1c-1.4,0-2.2-.7-2.2-2.2"/>
        <path class="st6" d="M841.4,44.5c-2.9,3.5-4.3,9.6-4.3,18.1v4.3c0,.6.3.9.9.9h24.3c1.4,0,2.2.7,2.2,2.2v9.8c0,1.4-.7,2.2-2.2,2.2h-24.3c-.6,0-.9.3-.9.9v92.6c0,1.4-.7,2.2-2.2,2.2h-10.8c-1.4,0-2.2-.7-2.2-2.2v-92.6c0-.6-.3-.9-.9-.9h-14.5c-1.4,0-2.2-.7-2.2-2.2v-9.8c0-1.4.7-2.2,2.2-2.2h14.5c.6,0,.9-.3.9-.9v-5.2c0-9,1-16,3-21.1,2-5.1,5.5-8.9,10.5-11.3s12-3.6,20.9-3.6h6.3c1.4,0,2.2.7,2.2,2.2v9.1c0,1.4-.7,2.2-2.2,2.2h-5c-7.9,0-13.4,1.8-16.3,5.3"/>
        <path class="st6" d="M938.5,80.6h-24.5c-.6,0-.9.3-.9.9v63.9c0,6.9,1.6,11.8,4.7,14.6,3.1,2.8,8,4.2,14.6,4.2h5.4c1.4,0,2.2.7,2.2,2.2v8.9c0,1.4-.7,2.2-2.2,2.2-1.7.1-4.4.2-8,.2-10.4,0-18.3-1.9-23.6-5.9-5.3-3.9-8-11.1-8-21.7v-68.7c0-.6-.3-.9-.9-.9h-13.2c-1.4,0-2.2-.7-2.2-2.2v-8.5c0-1.4.7-2.2,2.2-2.2h13.2c.6,0,.9-.3.9-.9v-25.1c0-1.4.7-2.2,2.2-2.2h10.6c1.4,0,2.2.7,2.2,2.2v25.1c0,.6.3.9.9.9h24.5c1.4,0,2.2.7,2.2,2.2v8.5c0,1.4-.7,2.2-2.2,2.2"/>
      </g>
    </g>
  </g>
  <g>
    <g>
      <path class="st1" d="M589.6,295c4-7.8,9.5-13.7,16.4-17.9,6.9-4.2,14.6-6.3,23.1-6.3s12.6,1.4,18.5,4.2c5.9,2.8,10.5,6.5,14,11.2v-47.1h25.4v132.6h-25.4v-14.7c-3.1,4.9-7.5,8.8-13.1,11.8-5.6,3-12.1,4.5-19.5,4.5s-16-2.2-22.9-6.5c-6.9-4.3-12.4-10.4-16.4-18.2-4-7.8-6-16.8-6-27s2-18.9,6-26.7ZM658.1,306.4c-2.4-4.4-5.6-7.7-9.7-10-4.1-2.3-8.4-3.5-13.1-3.5s-9,1.1-12.9,3.4c-3.9,2.3-7.1,5.6-9.6,9.9-2.5,4.4-3.7,9.5-3.7,15.5s1.2,11.2,3.7,15.7c2.4,4.5,5.7,7.9,9.7,10.3,4,2.4,8.3,3.6,12.8,3.6s9-1.2,13.1-3.5c4.1-2.3,7.3-5.7,9.7-10,2.4-4.4,3.6-9.6,3.6-15.7s-1.2-11.3-3.6-15.7Z"/>
      <path class="st1" d="M743.9,275.5c5.2-3,11.1-4.5,17.8-4.5v26.3h-6.6c-7.9,0-13.8,1.9-17.8,5.6-4,3.7-6,10.2-6,19.4v49.5h-25.1v-99.3h25.1v15.4c3.2-5.3,7.4-9.4,12.6-12.4Z"/>
      <path class="st1" d="M798.3,272.4v99.3h-25.1v-99.3h25.1Z"/>
      <path class="st1" d="M859,348.6l25.1-76.2h26.7l-36.7,99.3h-30.5l-36.6-99.3h26.9l25.1,76.2Z"/>
      <path class="st1" d="M1011.2,329.6h-72.6c.6,7.2,3.1,12.8,7.5,16.8,4.4,4.1,9.9,6.1,16.3,6.1,9.3,0,16-4,19.9-12h27.1c-2.9,9.6-8.4,17.4-16.5,23.6-8.1,6.2-18.1,9.2-29.9,9.2s-18.1-2.1-25.7-6.4c-7.6-4.2-13.5-10.2-17.7-18-4.2-7.8-6.4-16.7-6.4-26.9s2.1-19.3,6.3-27.1c4.2-7.8,10-13.7,17.6-17.9,7.5-4.2,16.2-6.3,26-6.3s17.9,2,25.4,6.1c7.5,4.1,13.3,9.8,17.4,17.3,4.1,7.5,6.2,16,6.2,25.7s-.2,6.8-.7,9.7ZM985.9,312.7c-.1-6.5-2.4-11.6-7-15.5-4.5-3.9-10.1-5.8-16.7-5.8s-11.4,1.9-15.7,5.6c-4.2,3.8-6.8,9-7.8,15.7h47.1Z"/>
      <path class="st1" d="M1062.5,275.5c5.2-3,11.1-4.5,17.8-4.5v26.3h-6.6c-7.9,0-13.8,1.9-17.8,5.6-4,3.7-6,10.2-6,19.4v49.5h-25.1v-99.3h25.1v15.4c3.2-5.3,7.4-9.4,12.6-12.4Z"/>
      <path class="st1" d="M1197.1,272.4v99.3h-25.1v-99.3h25.1Z"/>
    </g>
    <circle class="st7" cx="1124.5" cy="307" r="23.1"/>
    <circle class="st5" cx="1124.5" cy="334.5" r="23.1"/>
    <path class="st1" d="M774.7,256.4c-2.9-2.8-4.4-6.3-4.4-10.5s1.5-7.7,4.4-10.5c2.9-2.8,6.6-4.2,11-4.2s8.1,1.4,11,4.2c2.9,2.8,4.4,6.3,4.4,10.5s-1.5,7.7-4.4,10.5c-2.9,2.8-6.6,4.2-11,4.2s-8.1-1.4-11-4.2Z"/>
    <path class="st1" d="M1173.6,256.4c-2.9-2.8-4.4-6.3-4.4-10.5s1.5-7.7,4.4-10.5c2.9-2.8,6.6-4.2,11-4.2s8.1,1.4,11,4.2,4.4,6.3,4.4,10.5-1.5,7.7-4.4,10.5-6.6,4.2-11,4.2-8.1-1.4-11-4.2Z"/>
  </g>
  <g>
    <g>
      <path d="M290.1,370.5l-11.2-70.1v-.3c0-.4.1-.7.4-.9.3-.2.6-.4,1-.4h7.3c.8,0,1.2.4,1.4,1.3l7.8,56.7c.2.5.4.5.7,0l22-56.7c.4-.9,1-1.3,1.7-1.3h6.6c1,0,1.4.4,1.4,1.2l8.2,56.7c0,.2.2.3.4.3s.3,0,.4-.3l22.2-56.5c.4-.9,1-1.3,1.7-1.3h7.2c1.1.1,1.4.7,1.2,1.7l-28.8,69.9c-.3.8-.8,1.2-1.6,1.2h-7.5c-.7,0-1.2-.4-1.4-1.2l-8.5-53.8c0-.2-.2-.3-.4-.3s-.3,0-.4.3l-21.4,53.8c-.3.8-.9,1.2-1.7,1.2h-7.5c-.7,0-1.2-.4-1.4-1.2Z"/>
      <path d="M379.1,370l8.6-69.9c.2-1,.7-1.4,1.6-1.4h7.1c.5,0,.8.1,1.1.4.2.3.3.6.2,1l-8.6,69.9c-.2,1-.7,1.4-1.6,1.4h-7.1c-.9,0-1.3-.5-1.3-1.4ZM389.8,283.6c-1.3-1.3-1.9-2.9-1.9-5s.9-4.8,2.7-6.5c1.8-1.8,3.9-2.7,6.3-2.7s3.7.6,5,1.9c1.3,1.2,1.9,2.9,1.9,5s-.9,4.8-2.6,6.5c-1.7,1.8-3.8,2.7-6.3,2.7s-3.7-.6-5-1.9Z"/>
      <path d="M452.4,306.9c-.3.3-.6.4-1,.4h-15.8c-.4,0-.6.2-.6.6l-5.3,42.4c0,.8-.1,1.8-.1,3,0,3.5.9,5.9,2.7,7.3,1.8,1.4,4.6,2.2,8.3,2.2h3.5c.9,0,1.3.5,1.3,1.4l-.7,5.9c-.2,1-.7,1.4-1.6,1.4-1.2,0-2.9.1-5.2.1-6,0-10.6-1-13.7-3-3.1-2-4.7-5.7-4.7-11.1s0-2.3.3-4.2l5.6-45.6c0-.4-.2-.6-.6-.6h-8.5c-1,0-1.3-.5-1.2-1.4l.6-5.6c0-.4.3-.7.6-1,.3-.3.6-.4,1-.4h8.6c0,0,.2,0,.4-.1.1,0,.2-.2.2-.4l2-16.7c.2-1,.7-1.4,1.6-1.4h6.9c.4,0,.7.1.9.4.2.3.3.6.2,1l-2,16.7c0,.4.1.6.4.6h15.8c1,0,1.3.5,1.2,1.4l-.6,5.6c0,.4-.3.7-.6,1Z"/>
      <path d="M518.2,303.4c3.8,3.7,5.8,8.8,5.8,15.3s0,2.1-.3,4l-5.8,47.5c-.2,1-.7,1.4-1.6,1.4h-7.2c-.4,0-.7-.1-.9-.4-.2-.3-.3-.6-.2-1l5.6-45.5c0-.7.1-1.6.1-2.9,0-4.6-1.3-8.3-4-11-2.6-2.7-6.2-4.1-10.7-4.1s-9.5,1.6-13.1,4.9c-3.5,3.3-5.7,7.5-6.3,12.8l-5.6,45.8c0,.4-.1.7-.4,1-.3.3-.7.4-1.2.4h-7.1c-.9,0-1.3-.5-1.3-1.4l12.1-97.8c.2-1,.7-1.4,1.6-1.4h7.1c.5,0,.8.1,1.1.4.2.3.3.6.2,1l-4.2,34.1c0,.2,0,.3,0,.4.1,0,.3,0,.5-.1,2.3-3,5.2-5.2,8.6-6.7,3.4-1.5,7.2-2.2,11.3-2.2,6.7,0,12,1.9,15.8,5.6Z"/>
    </g>
    <g>
      <path class="st1" d="M290.1,370.5l-11.2-70.1v-.3c0-.4.1-.7.4-.9.3-.2.6-.4,1-.4h7.3c.8,0,1.2.4,1.4,1.3l7.8,56.7c.2.5.4.5.7,0l22-56.7c.4-.9,1-1.3,1.7-1.3h6.6c1,0,1.4.4,1.4,1.2l8.2,56.7c0,.2.2.3.4.3s.3,0,.4-.3l22.2-56.5c.4-.9,1-1.3,1.7-1.3h7.2c1.1.1,1.4.7,1.2,1.7l-28.8,69.9c-.3.8-.8,1.2-1.6,1.2h-7.5c-.7,0-1.2-.4-1.4-1.2l-8.5-53.8c0-.2-.2-.3-.4-.3s-.3,0-.4.3l-21.4,53.8c-.3.8-.9,1.2-1.7,1.2h-7.5c-.7,0-1.2-.4-1.4-1.2Z"/>
      <path class="st1" d="M379.1,370l8.6-69.9c.2-1,.7-1.4,1.6-1.4h7.1c.5,0,.8.1,1.1.4.2.3.3.6.2,1l-8.6,69.9c-.2,1-.7,1.4-1.6,1.4h-7.1c-.9,0-1.3-.5-1.3-1.4ZM389.8,283.6c-1.3-1.3-1.9-2.9-1.9-5s.9-4.8,2.7-6.5c1.8-1.8,3.9-2.7,6.3-2.7s3.7.6,5,1.9c1.3,1.2,1.9,2.9,1.9,5s-.9,4.8-2.6,6.5c-1.7,1.8-3.8,2.7-6.3,2.7s-3.7-.6-5-1.9Z"/>
      <path class="st1" d="M452.4,306.9c-.3.3-.6.4-1,.4h-15.8c-.4,0-.6.2-.6.6l-5.3,42.4c0,.8-.1,1.8-.1,3,0,3.5.9,5.9,2.7,7.3,1.8,1.4,4.6,2.2,8.3,2.2h3.5c.9,0,1.3.5,1.3,1.4l-.7,5.9c-.2,1-.7,1.4-1.6,1.4-1.2,0-2.9.1-5.2.1-6,0-10.6-1-13.7-3-3.1-2-4.7-5.7-4.7-11.1s0-2.3.3-4.2l5.6-45.6c0-.4-.2-.6-.6-.6h-8.5c-1,0-1.3-.5-1.2-1.4l.6-5.6c0-.4.3-.7.6-1,.3-.3.6-.4,1-.4h8.6c0,0,.2,0,.4-.1.1,0,.2-.2.2-.4l2-16.7c.2-1,.7-1.4,1.6-1.4h6.9c.4,0,.7.1.9.4.2.3.3.6.2,1l-2,16.7c0,.4.1.6.4.6h15.8c1,0,1.3.5,1.2,1.4l-.6,5.6c0,.4-.3.7-.6,1Z"/>
      <path class="st1" d="M518.2,303.4c3.8,3.7,5.8,8.8,5.8,15.3s0,2.1-.3,4l-5.8,47.5c-.2,1-.7,1.4-1.6,1.4h-7.2c-.4,0-.7-.1-.9-.4-.2-.3-.3-.6-.2-1l5.6-45.5c0-.7.1-1.6.1-2.9,0-4.6-1.3-8.3-4-11-2.6-2.7-6.2-4.1-10.7-4.1s-9.5,1.6-13.1,4.9c-3.5,3.3-5.7,7.5-6.3,12.8l-5.6,45.8c0,.4-.1.7-.4,1-.3.3-.7.4-1.2.4h-7.1c-.9,0-1.3-.5-1.3-1.4l12.1-97.8c.2-1,.7-1.4,1.6-1.4h7.1c.5,0,.8.1,1.1.4.2.3.3.6.2,1l-4.2,34.1c0,.2,0,.3,0,.4.1,0,.3,0,.5-.1,2.3-3,5.2-5.2,8.6-6.7,3.4-1.5,7.2-2.2,11.3-2.2,6.7,0,12,1.9,15.8,5.6Z"/>
    </g>
  </g>
</svg>